<?xml version="1.0" encoding="UTF-8" standalone="no"?>
<svg
   xmlns:dc="http://purl.org/dc/elements/1.1/"
   xmlns:cc="http://creativecommons.org/ns#"
   xmlns:rdf="http://www.w3.org/1999/02/22-rdf-syntax-ns#"
   xmlns:svg="http://www.w3.org/2000/svg"
   xmlns="http://www.w3.org/2000/svg"
   xmlns:sodipodi="http://sodipodi.sourceforge.net/DTD/sodipodi-0.dtd"
   xmlns:inkscape="http://www.inkscape.org/namespaces/inkscape"
   viewBox="0 0 125.46725 52.44775"
   version="1.1"
   id="svg3763"
   sodipodi:docname="git-logo.svg"
   width="125.46725"
   height="52.44775"
   inkscape:version="0.92.4 5da689c313, 2019-01-14">
  <metadata
     id="metadata3769">
    <rdf:RDF>
      <cc:Work
         rdf:about="">
        <dc:format>image/svg+xml</dc:format>
        <dc:type
           rdf:resource="http://purl.org/dc/dcmitype/StillImage" />
        <dc:title></dc:title>
      </cc:Work>
    </rdf:RDF>
  </metadata>
  <defs
     id="defs3767" />
  <sodipodi:namedview
     pagecolor="#ffffff"
     bordercolor="#666666"
     borderopacity="1"
     objecttolerance="10"
     gridtolerance="10"
     guidetolerance="10"
     inkscape:pageopacity="0"
     inkscape:pageshadow="2"
     inkscape:window-width="1920"
     inkscape:window-height="992"
     id="namedview3765"
     showgrid="false"
     inkscape:zoom="6.1953125"
     inkscape:cx="62.79925"
     inkscape:cy="26.22375"
     inkscape:window-x="0"
     inkscape:window-y="27"
     inkscape:window-maximized="1"
     inkscape:current-layer="svg3763" />
  <path
     d="m 74.80325,12.812 c -7.655,0 -11.459,3.996 -11.459,9.75 0,3.704 1.852,6.328 4.304,7.529 -1.201,1.101 -2.201,2.064 -3.102,3.014 -0.902,0.952 -1.452,1.957 -1.452,3.059 0,1.352 0.55,2.605 2.202,3.303 -1.751,1.654 -2.753,2.854 -2.753,5.107 0,3.953 3.453,6.256 12.511,6.256 8.708,0 13.761,-3.251 13.761,-9.007 0,-6.653 -5.103,-6.904 -13.761,-7.456 l -4.904,-0.3 1.652,-2.652 c 0.899,0.25 2.352,0.45 3.955,0.45 6.304,0 10.658,-3.252 10.658,-8.808 0,-2.302 -1.137,-3.903 -2.037,-5.055 l 4.421,-0.35 v -4.428 h -9.391 c -1.15,0 -2.453,-0.412 -4.605,-0.412 z m 2.252,28.511 c 2.404,0.15 4.306,0.25 4.306,1.854 0,2.699 -3.955,2.902 -6.856,2.902 -3.504,0 -6.056,-0.602 -6.056,-2.603 0,-1.002 0.65,-1.852 1.302,-2.652 z m -1.949,-14.712 c -3.304,0 -4.655,-1.703 -4.655,-4.154 0,-3.253 2.051,-4.605 4.804,-4.605 2.852,0 4.554,1.552 4.554,4.504 0,2.604 -1.902,4.255 -4.703,4.255 z m 22.866,-17.702 c 2.902,0 4.554,-1.652 4.554,-4.506 0,-2.85 -1.652,-4.403 -4.554,-4.403 -2.853,0 -4.505,1.553 -4.505,4.403 0,2.853 1.652,4.506 4.505,4.506 z m 3.827,24.77 V 13.224 h -9.733 l -0.55,3.896 2.667,0.874 c 0.502,0.149 0.616,0.423 0.616,0.973 v 14.712 c 0,0.752 -0.422,0.902 -1.123,1.003 l -2.877,0.35 v 4.192 h 15 v -4.192 l -2.876,-0.35 c -0.753,-0.101 -1.124,-0.2 -1.124,-1.003 z m 22.418,-1.04 c -1.202,0.45 -2.632,0.799 -4.035,0.799 -2.701,0 -3.383,-1.15 -3.383,-4.103 V 17.224 h 7 v -5 h -6.638 c -0.401,0 -0.362,-0.003 -0.362,-0.353 V 5.224 h -4.793 c -0.55,5 -3.207,7.196 -7.207,7.698 v 4.302 h 4.003 c 0.401,0 -0.003,0.353 -0.003,0.652 v 13.111 c 0,5.657 2.454,8.058 8.408,8.058 2.854,0 6.107,-0.951 8.26,-2.001 z M 28.53725,1.03 c -1.317,-1.318 -3.455,-1.318 -4.773,0 l -4.751,4.751 6.027,6.027 c 1.401,-0.473 3.007,-0.156 4.124,0.961 1.122,1.123 1.437,2.743 0.952,4.149 l 5.809,5.809 c 1.406,-0.484 3.027,-0.171 4.149,0.953 1.57,1.568 1.57,4.11 0,5.679 -1.569,1.57 -4.11,1.57 -5.68,0 -1.18,-1.181 -1.624,-2.914 -1.025,-4.368 l -5.57,-5.417 v 14.257 c 0,0.189 0.895,0.441 1.214,0.759 1.568,1.568 1.644,4.11 0.075,5.681 -1.569,1.568 -4.074,1.568 -5.642,0 -1.568,-1.571 -1.549,-4.112 0.02,-5.681 0.388,-0.387 0.333,-0.68 1.333,-0.876 V 19.325 c -1,-0.196 -0.927,-0.487 -1.314,-0.876 -1.188,-1.188 -1.474,-2.931 -0.865,-4.39 l -5.942,-5.943 -15.689,15.689 c -1.319,1.319 -1.319,3.457 0,4.774 l 22.882,22.881 c 1.317,1.317 3.454,1.317 4.773,0 l 22.775,-22.776 c 1.317,-1.318 1.317,-3.456 0,-4.774 z"
     id="path3761"
     inkscape:connector-curvature="0"
     style="fill:#f34f29" />
</svg>
