<?xml version="1.0" encoding="UTF-8"?>
<svg width="200.5" height="40.83" version="1.1" viewBox="0 0 53.05 10.8" xmlns="http://www.w3.org/2000/svg">
 <g>
  <g transform="translate(0 1.454)" fill="none" stroke="#808080">
   <path d="m1.323 1.413h42.29" stroke-width=".2365px"/>
   <g stroke-width=".2646px">
    <path d="m11.91 1.413c4.731-0.0138 6.413 6.561 10.58 6.615"/>
    <path d="m22.49 8.027h7.044"/>
    <path d="m29.53 8.027c7.216 0.0534 6.33-6.781 14.12-6.704"/>
   </g>
   <path d="m29.53 8.027h15.84" stroke-width=".2546px"/>
  </g>
  <g transform="translate(2.98e-8 -286.2)" fill="#ffc600" stroke="#414141" stroke-miterlimit="10" stroke-width=".1251">
   <circle cx="1.323" cy="289.1" r="1.26"/>
   <circle cx="11.91" cy="289.1" r="1.26"/>
   <circle cx="22.49" cy="289.1" r="1.26"/>
   <circle cx="43.66" cy="289" r="1.26"/>
   <circle cx="33.07" cy="289" r="1.26"/>
  </g>
  <g transform="translate(2.98e-8 -286.2)" fill="#09f" stroke="#414141" stroke-miterlimit="10" stroke-width=".1251">
   <circle cx="22.49" cy="295.7" r="1.26"/>
   <circle cx="29.53" cy="295.7" r="1.26"/>
   <circle cx="45.58" cy="295.7" r="1.26"/>
  </g>
 </g>
 <g transform="translate(0 1.454)" fill="#808080" stroke-width=".2646">
  <g aria-label="master">
   <path d="m48.71 1.082q0.04515-0.01129 0.1185-0.02399 0.07479-0.0127 0.1722-0.0127 0.07055 0 0.1185 0.01976 0.04798 0.01834 0.08043 0.05503 0.0099-0.00706 0.03104-0.01976 0.02117-0.0127 0.05221-0.02399 0.03104-0.0127 0.06914-0.02117 0.0381-0.00988 0.08185-0.00988 0.08467 0 0.1383 0.0254 0.05362 0.02399 0.08326 0.06914 0.03104 0.04516 0.04092 0.1072 0.01129 0.06209 0.01129 0.1355v0.412h-0.1312v-0.3838q0-0.06491-0.0071-0.1115-0.0056-0.04657-0.02399-0.07761-0.01693-0.03104-0.04798-0.04516-0.02963-0.01552-0.07761-0.01552-0.06632 0-0.1101 0.01834-0.04233 0.01693-0.05786 0.03104 0.01129 0.03669 0.01693 0.08043 0.0056 0.04374 0.0056 0.09172v0.412h-0.1311v-0.3838q0-0.06491-0.0071-0.1115-0.0071-0.04657-0.0254-0.07761-0.01693-0.03104-0.04798-0.04516-0.02963-0.01552-0.0762-0.01552-0.01975 0-0.04233 0.00141t-0.04374 0.00423q-0.01976 0.00141-0.03669 0.00423t-0.02258 0.00423v0.6195h-0.1312z"/>
   <path d="m50.17 1.7q0.04657 0 0.08185-0.00141 0.03669-0.00282 0.06068-0.00847v-0.2187q-0.01411-0.00706-0.04657-0.01129-0.03105-0.00564-0.0762-0.00564-0.02963 0-0.0635 0.00423-0.03246 0.00423-0.06068 0.01834-0.02681 0.0127-0.04516 0.03669-0.01835 0.02258-0.01835 0.06068 0 0.07056 0.04516 0.09878 0.04515 0.02681 0.1228 0.02681zm-0.01129-0.6576q0.07902 0 0.1326 0.02117 0.05503 0.01976 0.08749 0.05786 0.03387 0.03669 0.04798 0.0889 0.01411 0.0508 0.01411 0.1129v0.4586q-0.01693 0.00282-0.04798 0.00847-0.02963 0.00423-0.06773 0.00847-0.0381 0.00423-0.08326 0.00706-0.04374 0.00423-0.08749 0.00423-0.06209 0-0.1143-0.0127t-0.09031-0.03951q-0.0381-0.02822-0.05927-0.07338-0.02117-0.04516-0.02117-0.1087 0-0.06068 0.02399-0.1044 0.0254-0.04374 0.06773-0.07056t0.09878-0.03951q0.05644-0.0127 0.1185-0.0127 0.01976 0 0.04092 0.00282 0.02117 0.00141 0.03951 0.00564 0.01976 0.00282 0.03387 0.00564t0.01976 0.00423v-0.03669q0-0.03246-0.0071-0.0635-0.0071-0.03246-0.0254-0.05644-0.01834-0.0254-0.0508-0.03951-0.03104-0.01552-0.08184-0.01552-0.06491 0-0.1143 0.00988-0.04798 0.00847-0.07197 0.01834l-0.01552-0.1087q0.0254-0.01129 0.08467-0.02117 0.05927-0.01129 0.1284-0.01129z"/>
   <path d="m50.83 1.7q0.08043 0 0.1185-0.02117 0.03951-0.02117 0.03951-0.06773 0-0.04798-0.0381-0.0762t-0.1256-0.0635q-0.04233-0.01693-0.08185-0.03387-0.0381-0.01834-0.06632-0.04233t-0.04516-0.05786q-0.01693-0.03387-0.01693-0.08326 0-0.09737 0.07197-0.1538 0.07197-0.05786 0.1961-0.05786 0.03104 0 0.06209 0.00423 0.03104 0.00282 0.05786 0.00847 0.02681 0.00423 0.04657 0.00988 0.02117 0.00564 0.03246 0.00988l-0.02399 0.1129q-0.02117-0.01129-0.06632-0.02258-0.04516-0.0127-0.1087-0.0127-0.05503 0-0.09596 0.02258-0.04092 0.02117-0.04092 0.06773 0 0.02399 0.0085 0.04233 0.0099 0.01834 0.02822 0.03387 0.01976 0.01411 0.04798 0.02681t0.06773 0.02681q0.05221 0.01976 0.09313 0.03951 0.04092 0.01834 0.06914 0.04374 0.02963 0.0254 0.04516 0.06209 0.01552 0.03528 0.01552 0.08749 0 0.1016-0.0762 0.1538-0.07479 0.05221-0.2145 0.05221-0.09737 0-0.1524-0.01693-0.05503-0.01552-0.07479-0.02399l0.02399-0.1129q0.02258 0.00847 0.07197 0.0254 0.04939 0.01693 0.1312 0.01693z"/>
   <path d="m51.41 1.061h0.278v0.1101h-0.278v0.3387q0 0.05503 0.0085 0.09172 0.0085 0.03528 0.0254 0.05644 0.01693 0.01976 0.04233 0.02822 0.0254 0.00847 0.05927 0.00847 0.05927 0 0.09455-0.0127 0.03669-0.01411 0.0508-0.01976l0.0254 0.1087q-0.01976 0.00988-0.06915 0.02399-0.04939 0.01552-0.1129 0.01552-0.07479 0-0.1242-0.01834-0.04798-0.01976-0.07761-0.05786t-0.04233-0.09313q-0.01129-0.05644-0.01129-0.1298v-0.6548l0.1312-0.02258z"/>
   <path d="m51.8 1.429q0-0.09737 0.02822-0.1693 0.02822-0.07338 0.07479-0.1214 0.04657-0.04798 0.1072-0.07197 0.06068-0.02399 0.1242-0.02399 0.1482 0 0.2272 0.09313 0.07902 0.09172 0.07902 0.2808 0 0.00847 0 0.02258 0 0.0127-0.0014 0.02399h-0.5024q0.0085 0.1143 0.06632 0.1736 0.05786 0.05927 0.1806 0.05927 0.06915 0 0.1157-0.01129 0.04798-0.0127 0.07197-0.02399l0.01834 0.1101q-0.02399 0.0127-0.08467 0.02681-0.05927 0.01411-0.1355 0.01411-0.09595 0-0.1665-0.02822-0.06914-0.02963-0.1143-0.08043-0.04515-0.0508-0.06773-0.1199-0.02117-0.07056-0.02117-0.1538zm0.5038-0.07197q0.0014-0.0889-0.04516-0.1453-0.04516-0.05786-0.1256-0.05786-0.04516 0-0.08043 0.01834-0.03387 0.01693-0.05786 0.04516-0.02399 0.02822-0.0381 0.06491-0.0127 0.03669-0.01693 0.07479z"/>
   <path d="m52.9 1.046q0.01693 0 0.0381 0.00282 0.02258 0.00141 0.04375 0.00564 0.02117 0.00282 0.0381 0.00706 0.01834 0.00282 0.02681 0.00564l-0.02258 0.1143q-0.01552-0.00564-0.05221-0.0127-0.03528-0.00847-0.09172-0.00847-0.03669 0-0.07338 0.00847-0.03528 0.00706-0.04657 0.00988v0.6167h-0.1312v-0.7027q0.04657-0.01693 0.1157-0.03104 0.06914-0.01552 0.1552-0.01552z"/>
  </g>
  <g aria-label="dev">
   <path d="m49.22 7.988q-0.02399-0.01976-0.06914-0.0381-0.04516-0.01834-0.09878-0.01834-0.05644 0-0.09737 0.02117-0.03951 0.01976-0.06491 0.05644-0.0254 0.03528-0.03669 0.08467t-0.01129 0.1058q0 0.1284 0.0635 0.199 0.0635 0.06914 0.1693 0.06914 0.05362 0 0.0889-0.00423 0.03669-0.00564 0.05644-0.01129zm0-0.4939 0.1312-0.02258v1.074q-0.04516 0.0127-0.1157 0.0254-0.07055 0.0127-0.1623 0.0127-0.08467 0-0.1524-0.02681t-0.1157-0.0762q-0.04798-0.04939-0.07479-0.1199-0.0254-0.07197-0.0254-0.1609 0-0.08467 0.02117-0.1552 0.02258-0.07056 0.06491-0.1214 0.04233-0.0508 0.103-0.07902 0.06209-0.02822 0.1411-0.02822 0.0635 0 0.1115 0.01693 0.04939 0.01693 0.07338 0.03246z"/>
   <path d="m49.54 8.201q0-0.09737 0.02822-0.1693 0.02822-0.07338 0.07479-0.1214 0.04657-0.04798 0.1072-0.07197 0.06068-0.02399 0.1242-0.02399 0.1482 0 0.2272 0.09313 0.07902 0.09172 0.07902 0.2808 0 0.00847 0 0.02258 0 0.0127-0.0014 0.02399h-0.5024q0.0085 0.1143 0.06632 0.1736 0.05786 0.05927 0.1806 0.05927 0.06914 0 0.1157-0.01129 0.04798-0.0127 0.07197-0.02399l0.01835 0.1101q-0.02399 0.0127-0.08467 0.02681-0.05927 0.01411-0.1355 0.01411-0.09596 0-0.1665-0.02822-0.06914-0.02963-0.1143-0.08043t-0.06773-0.1199q-0.02117-0.07056-0.02117-0.1538zm0.5038-0.07197q0.0014-0.0889-0.04516-0.1453-0.04516-0.05786-0.1256-0.05786-0.04516 0-0.08043 0.01834-0.03387 0.01693-0.05785 0.04516-0.02399 0.02822-0.0381 0.06491-0.0127 0.03669-0.01693 0.07479z"/>
   <path d="m50.94 7.833q-0.05503 0.206-0.1298 0.3951-0.07338 0.1891-0.1425 0.3387h-0.1185q-0.06914-0.1496-0.1439-0.3387-0.07338-0.1891-0.1284-0.3951h0.1411q0.01693 0.06914 0.03951 0.1482 0.02399 0.07761 0.04939 0.1552 0.02681 0.0762 0.05362 0.1482 0.02681 0.07197 0.0508 0.1284 0.02399-0.05644 0.0508-0.1284 0.02681-0.07197 0.05221-0.1482 0.02681-0.07761 0.04939-0.1552 0.02399-0.07902 0.04092-0.1482z"/>
  </g>
 </g>
 <circle cx="40.49" cy="2.987" r="2.819" fill="none" stroke="#268b00" stroke-miterlimit="10" stroke-width=".3358"/>
</svg>
