<?xml version="1.0" encoding="UTF-8"?>
<!-- Created with Inkscape (http://www.inkscape.org/) -->
<svg width="121.39mm" height="56.581mm" version="1.1" viewBox="0 0 121.39 56.581" xmlns="http://www.w3.org/2000/svg" xmlns:cc="http://creativecommons.org/ns#" xmlns:dc="http://purl.org/dc/elements/1.1/" xmlns:rdf="http://www.w3.org/1999/02/22-rdf-syntax-ns#">
 <metadata>
  <rdf:RDF>
   <cc:Work rdf:about="">
    <dc:format>image/svg+xml</dc:format>
    <dc:type rdf:resource="http://purl.org/dc/dcmitype/StillImage"/>
    <dc:title/>
   </cc:Work>
  </rdf:RDF>
 </metadata>
 <g transform="translate(-60.793 -21.064)" fill="none" stroke="#fff" stroke-width=".5">
  <path d="m109.02 45.122-19.473 6.9434"/>
  <path d="m78.075 30.331 21.554-2.9691"/>
  <path d="m67.091 49.237 10.984-18.906"/>
  <path d="m67.091 49.237 22.453 2.8293"/>
  <path d="m78.075 30.331 11.469 21.735"/>
  <path d="m109.02 45.122-9.3878-17.761"/>
  <path d="m106.59 69.08-17.045-17.014"/>
  <path d="m84.478 71.348 5.0663-19.282"/>
 </g>
 <g fill="#fff" stroke="#fff" stroke-width=".5">
  <circle cx="23.685" cy="50.284" r="6.0476"/>
  <circle cx="48.227" cy="24.058" r="6.0476"/>
  <circle cx="17.282" cy="9.2668" r="6.0476"/>
  <circle cx="6.2976" cy="28.173" r="6.0476"/>
  <circle cx="45.797" cy="48.016" r="6.0476"/>
 </g>
 <g transform="translate(-62.531 -17.857)" stroke="#fff">
  <circle cx="91.281" cy="48.859" r="6.0476" fill="#fff" stroke-width=".5"/>
 </g>
 <g transform="translate(-61.328 -25.741)" stroke="#fff">
  <circle cx="100.16" cy="32.039" r="6.0476" fill="#fff" stroke-width=".5"/>
 </g>
 <g transform="matrix(.017721 0 0 .017721 44 19.832)">
  <g fill="#020202">
   <path d="m269.6 91.579h-239.77c-16.461 0-29.838 13.378-29.838 29.838v162.72c0 16.461 13.377 29.84 29.838 29.84h80.36v39.366h-12.674c-8.856 0-16.021 7.165-16.021 16.021 0 8.855 7.165 16.022 16.021 16.022h104.39c8.855 0 16.023-7.167 16.023-16.022 0-8.857-7.167-16.021-16.023-16.021h-12.689v-39.366h80.376c16.461 0 29.838-13.379 29.838-29.84v-162.72c-1e-3 -16.46-13.378-29.838-29.839-29.838zm-2.206 190.36h-235.35v-158.31h235.35z"/>
   <path d="m460.32 134.07h-104.24c-9.2 0-16.648 7.448-16.648 16.648v218.02c0 9.2 7.448 16.648 16.648 16.648h104.24c9.201 0 16.648-7.448 16.648-16.648v-218.02c1e-3 -9.201-7.446-16.649-16.648-16.649zm-52.134 184.16c-6.978 0-12.641-5.663-12.641-12.643 0-6.978 5.663-12.642 12.641-12.642 6.979 0 12.643 5.664 12.643 12.642 0 6.98-5.664 12.643-12.643 12.643zm45.407-66.999c0 4.977-4.036 9.013-9.013 9.013h-72.756c-4.976 0-9.013-4.036-9.013-9.013v-21.403c0-4.976 4.037-9.013 9.013-9.013h72.756c4.977 0 9.013 4.037 9.013 9.013zm0-60.145c0 4.977-4.036 9.013-9.013 9.013h-72.756c-4.976 0-9.013-4.036-9.013-9.013v-21.403c0-4.977 4.037-9.013 9.013-9.013h72.756c4.977 0 9.013 4.036 9.013 9.013z"/>
  </g>
 </g>
 <g transform="matrix(.017721 0 0 .017721 13.055 5.0406)">
  <g fill="#020202">
   <path d="m269.6 91.579h-239.77c-16.461 0-29.838 13.378-29.838 29.838v162.72c0 16.461 13.377 29.84 29.838 29.84h80.36v39.366h-12.674c-8.856 0-16.021 7.165-16.021 16.021 0 8.855 7.165 16.022 16.021 16.022h104.39c8.855 0 16.023-7.167 16.023-16.022 0-8.857-7.167-16.021-16.023-16.021h-12.689v-39.366h80.376c16.461 0 29.838-13.379 29.838-29.84v-162.72c-1e-3 -16.46-13.378-29.838-29.839-29.838zm-2.206 190.36h-235.35v-158.31h235.35z"/>
   <path d="m460.32 134.07h-104.24c-9.2 0-16.648 7.448-16.648 16.648v218.02c0 9.2 7.448 16.648 16.648 16.648h104.24c9.201 0 16.648-7.448 16.648-16.648v-218.02c1e-3 -9.201-7.446-16.649-16.648-16.649zm-52.134 184.16c-6.978 0-12.641-5.663-12.641-12.643 0-6.978 5.663-12.642 12.641-12.642 6.979 0 12.643 5.664 12.643 12.642 0 6.98-5.664 12.643-12.643 12.643zm45.407-66.999c0 4.977-4.036 9.013-9.013 9.013h-72.756c-4.976 0-9.013-4.036-9.013-9.013v-21.403c0-4.976 4.037-9.013 9.013-9.013h72.756c4.977 0 9.013 4.037 9.013 9.013zm0-60.145c0 4.977-4.036 9.013-9.013 9.013h-72.756c-4.976 0-9.013-4.036-9.013-9.013v-21.403c0-4.977 4.037-9.013 9.013-9.013h72.756c4.977 0 9.013 4.036 9.013 9.013z"/>
  </g>
 </g>
 <g transform="matrix(.017721 0 0 .017721 19.458 46.058)">
  <g fill="#020202">
   <path d="m269.6 91.579h-239.77c-16.461 0-29.838 13.378-29.838 29.838v162.72c0 16.461 13.377 29.84 29.838 29.84h80.36v39.366h-12.674c-8.856 0-16.021 7.165-16.021 16.021 0 8.855 7.165 16.022 16.021 16.022h104.39c8.855 0 16.023-7.167 16.023-16.022 0-8.857-7.167-16.021-16.023-16.021h-12.689v-39.366h80.376c16.461 0 29.838-13.379 29.838-29.84v-162.72c-1e-3 -16.46-13.378-29.838-29.839-29.838zm-2.206 190.36h-235.35v-158.31h235.35z"/>
   <path d="m460.32 134.07h-104.24c-9.2 0-16.648 7.448-16.648 16.648v218.02c0 9.2 7.448 16.648 16.648 16.648h104.24c9.201 0 16.648-7.448 16.648-16.648v-218.02c1e-3 -9.201-7.446-16.649-16.648-16.649zm-52.134 184.16c-6.978 0-12.641-5.663-12.641-12.643 0-6.978 5.663-12.642 12.641-12.642 6.979 0 12.643 5.664 12.643 12.642 0 6.98-5.664 12.643-12.643 12.643zm45.407-66.999c0 4.977-4.036 9.013-9.013 9.013h-72.756c-4.976 0-9.013-4.036-9.013-9.013v-21.403c0-4.976 4.037-9.013 9.013-9.013h72.756c4.977 0 9.013 4.037 9.013 9.013zm0-60.145c0 4.977-4.036 9.013-9.013 9.013h-72.756c-4.976 0-9.013-4.036-9.013-9.013v-21.403c0-4.977 4.037-9.013 9.013-9.013h72.756c4.977 0 9.013 4.036 9.013 9.013z"/>
  </g>
 </g>
 <g transform="matrix(.00053801 0 0 -.00053801 2.8545 30.715)">
  <path d="m2280 9441c-674-3-1233-10-1243-15-10-4-21-16-25-25s-5-522-2-1141 6-2206 8-3527c1-1451 6-2412 11-2427 6-13 16-28 23-32 9-6 6-10-10-14-18-4-79-106-293-490-149-267-293-528-321-580s-123-220-210-375c-88-154-174-304-190-333-29-52-30-56-26-160 5-125 22-169 77-200 20-11 46-34 58-50 14-19 42-37 75-49 51-17 252-18 6178-18h6125l74 22c77 23 88 30 133 78 55 58 71 102 76 206 3 80 1 104-15 140-24 53-127 227-234 394-87 136-569 917-755 1222-121 198-123 203-109 230 13 24 15 469 15 3433 0 2335 3 3441 11 3519 12 130 8 154-25 177-22 14-405 16-4103 18-2243 2-4629 0-5303-3zm8930-3531v-2740h-9760v5480h9760z"/>
 </g>
 <g transform="matrix(.00053801 0 0 -.00053801 42.353 50.558)">
  <path d="m2280 9441c-674-3-1233-10-1243-15-10-4-21-16-25-25s-5-522-2-1141 6-2206 8-3527c1-1451 6-2412 11-2427 6-13 16-28 23-32 9-6 6-10-10-14-18-4-79-106-293-490-149-267-293-528-321-580s-123-220-210-375c-88-154-174-304-190-333-29-52-30-56-26-160 5-125 22-169 77-200 20-11 46-34 58-50 14-19 42-37 75-49 51-17 252-18 6178-18h6125l74 22c77 23 88 30 133 78 55 58 71 102 76 206 3 80 1 104-15 140-24 53-127 227-234 394-87 136-569 917-755 1222-121 198-123 203-109 230 13 24 15 469 15 3433 0 2335 3 3441 11 3519 12 130 8 154-25 177-22 14-405 16-4103 18-2243 2-4629 0-5303-3zm8930-3531v-2740h-9760v5480h9760z"/>
 </g>
 <g transform="matrix(.017721 0 0 .017721 24.524 26.776)">
  <g fill="#020202">
   <path d="m269.6 91.579h-239.77c-16.461 0-29.838 13.378-29.838 29.838v162.72c0 16.461 13.377 29.84 29.838 29.84h80.36v39.366h-12.674c-8.856 0-16.021 7.165-16.021 16.021 0 8.855 7.165 16.022 16.021 16.022h104.39c8.855 0 16.023-7.167 16.023-16.022 0-8.857-7.167-16.021-16.023-16.021h-12.689v-39.366h80.376c16.461 0 29.838-13.379 29.838-29.84v-162.72c-1e-3 -16.46-13.378-29.838-29.839-29.838zm-2.206 190.36h-235.35v-158.31h235.35z"/>
   <path d="m460.32 134.07h-104.24c-9.2 0-16.648 7.448-16.648 16.648v218.02c0 9.2 7.448 16.648 16.648 16.648h104.24c9.201 0 16.648-7.448 16.648-16.648v-218.02c1e-3 -9.201-7.446-16.649-16.648-16.649zm-52.134 184.16c-6.978 0-12.641-5.663-12.641-12.643 0-6.978 5.663-12.642 12.641-12.642 6.979 0 12.643 5.664 12.643 12.642 0 6.98-5.664 12.643-12.643 12.643zm45.407-66.999c0 4.977-4.036 9.013-9.013 9.013h-72.756c-4.976 0-9.013-4.036-9.013-9.013v-21.403c0-4.976 4.037-9.013 9.013-9.013h72.756c4.977 0 9.013 4.037 9.013 9.013zm0-60.145c0 4.977-4.036 9.013-9.013 9.013h-72.756c-4.976 0-9.013-4.036-9.013-9.013v-21.403c0-4.977 4.037-9.013 9.013-9.013h72.756c4.977 0 9.013 4.036 9.013 9.013z"/>
  </g>
 </g>
 <g transform="matrix(.00053801 0 0 -.00053801 35.389 8.8397)">
  <path d="m2280 9441c-674-3-1233-10-1243-15-10-4-21-16-25-25s-5-522-2-1141 6-2206 8-3527c1-1451 6-2412 11-2427 6-13 16-28 23-32 9-6 6-10-10-14-18-4-79-106-293-490-149-267-293-528-321-580s-123-220-210-375c-88-154-174-304-190-333-29-52-30-56-26-160 5-125 22-169 77-200 20-11 46-34 58-50 14-19 42-37 75-49 51-17 252-18 6178-18h6125l74 22c77 23 88 30 133 78 55 58 71 102 76 206 3 80 1 104-15 140-24 53-127 227-234 394-87 136-569 917-755 1222-121 198-123 203-109 230 13 24 15 469 15 3433 0 2335 3 3441 11 3519 12 130 8 154-25 177-22 14-405 16-4103 18-2243 2-4629 0-5303-3zm8930-3531v-2740h-9760v5480h9760z"/>
 </g>
 <g stroke="#fff">
  <g transform="translate(5.0614 -22.655)">
   <circle cx="91.281" cy="48.859" r="6.0476" fill="#fff" stroke-width=".5"/>
  </g>
  <g transform="translate(-8.3314 -41.517)">
   <circle cx="91.281" cy="48.859" r="6.0476" fill="#fff" stroke-width=".5"/>
  </g>
  <g transform="translate(17.896 -40.401)">
   <circle cx="91.281" cy="48.859" r="6.0476" fill="#fff" stroke-width=".5"/>
  </g>
  <g transform="translate(17.896 -1.7849)">
   <circle cx="91.281" cy="48.859" r="6.0476" fill="#fff" stroke-width=".5"/>
  </g>
  <g transform="translate(-1.5234 -3.0125)">
   <circle cx="91.281" cy="48.859" r="6.0476" fill="#fff" stroke-width=".5"/>
  </g>
  <g transform="translate(-15.139 -14.731)">
   <circle cx="91.281" cy="48.859" r="6.0476" fill="#fff" stroke-width=".5"/>
  </g>
  <g transform="translate(23.811 -20.758)">
   <circle cx="91.281" cy="48.859" r="6.0476" fill="#fff" stroke-width=".5"/>
  </g>
  <g transform="translate(3.1506 -2.0034)" fill="none" stroke-width=".5">
   <path d="m72.991 36.131 20.201-7.9241"/>
   <path d="m79.799 9.3455 13.393 18.862"/>
   <path d="m106.03 10.462-12.835 17.746"/>
   <path d="m111.94 30.104-18.75-1.8973"/>
   <path d="m106.03 49.078-12.835-20.87"/>
   <path d="m86.607 47.85 6.5848-19.643"/>
  </g>
 </g>
 <g transform="matrix(.017721 0 0 .017721 78.723 3.1158)">
  <g fill="#020202">
   <path d="m269.6 91.579h-239.77c-16.461 0-29.838 13.378-29.838 29.838v162.72c0 16.461 13.377 29.84 29.838 29.84h80.36v39.366h-12.674c-8.856 0-16.021 7.165-16.021 16.021 0 8.855 7.165 16.022 16.021 16.022h104.39c8.855 0 16.023-7.167 16.023-16.022 0-8.857-7.167-16.021-16.023-16.021h-12.689v-39.366h80.376c16.461 0 29.838-13.379 29.838-29.84v-162.72c-1e-3 -16.46-13.378-29.838-29.839-29.838zm-2.206 190.36h-235.35v-158.31h235.35z"/>
   <path d="m460.32 134.07h-104.24c-9.2 0-16.648 7.448-16.648 16.648v218.02c0 9.2 7.448 16.648 16.648 16.648h104.24c9.201 0 16.648-7.448 16.648-16.648v-218.02c1e-3 -9.201-7.446-16.649-16.648-16.649zm-52.134 184.16c-6.978 0-12.641-5.663-12.641-12.643 0-6.978 5.663-12.642 12.641-12.642 6.979 0 12.643 5.664 12.643 12.642 0 6.98-5.664 12.643-12.643 12.643zm45.407-66.999c0 4.977-4.036 9.013-9.013 9.013h-72.756c-4.976 0-9.013-4.036-9.013-9.013v-21.403c0-4.976 4.037-9.013 9.013-9.013h72.756c4.977 0 9.013 4.037 9.013 9.013zm0-60.145c0 4.977-4.036 9.013-9.013 9.013h-72.756c-4.976 0-9.013-4.036-9.013-9.013v-21.403c0-4.977 4.037-9.013 9.013-9.013h72.756c4.977 0 9.013 4.036 9.013 9.013z"/>
  </g>
 </g>
 <g transform="matrix(.017721 0 0 .017721 85.531 41.62)">
  <g fill="#020202">
   <path d="m269.6 91.579h-239.77c-16.461 0-29.838 13.378-29.838 29.838v162.72c0 16.461 13.377 29.84 29.838 29.84h80.36v39.366h-12.674c-8.856 0-16.021 7.165-16.021 16.021 0 8.855 7.165 16.022 16.021 16.022h104.39c8.855 0 16.023-7.167 16.023-16.022 0-8.857-7.167-16.021-16.023-16.021h-12.689v-39.366h80.376c16.461 0 29.838-13.379 29.838-29.84v-162.72c-1e-3 -16.46-13.378-29.838-29.839-29.838zm-2.206 190.36h-235.35v-158.31h235.35z"/>
   <path d="m460.32 134.07h-104.24c-9.2 0-16.648 7.448-16.648 16.648v218.02c0 9.2 7.448 16.648 16.648 16.648h104.24c9.201 0 16.648-7.448 16.648-16.648v-218.02c1e-3 -9.201-7.446-16.649-16.648-16.649zm-52.134 184.16c-6.978 0-12.641-5.663-12.641-12.643 0-6.978 5.663-12.642 12.641-12.642 6.979 0 12.643 5.664 12.643 12.642 0 6.98-5.664 12.643-12.643 12.643zm45.407-66.999c0 4.977-4.036 9.013-9.013 9.013h-72.756c-4.976 0-9.013-4.036-9.013-9.013v-21.403c0-4.976 4.037-9.013 9.013-9.013h72.756c4.977 0 9.013 4.037 9.013 9.013zm0-60.145c0 4.977-4.036 9.013-9.013 9.013h-72.756c-4.976 0-9.013-4.036-9.013-9.013v-21.403c0-4.977 4.037-9.013 9.013-9.013h72.756c4.977 0 9.013 4.036 9.013 9.013z"/>
  </g>
 </g>
 <g transform="matrix(.017721 0 0 .017721 104.95 42.848)">
  <g fill="#020202">
   <path d="m269.6 91.579h-239.77c-16.461 0-29.838 13.378-29.838 29.838v162.72c0 16.461 13.377 29.84 29.838 29.84h80.36v39.366h-12.674c-8.856 0-16.021 7.165-16.021 16.021 0 8.855 7.165 16.022 16.021 16.022h104.39c8.855 0 16.023-7.167 16.023-16.022 0-8.857-7.167-16.021-16.023-16.021h-12.689v-39.366h80.376c16.461 0 29.838-13.379 29.838-29.84v-162.72c-1e-3 -16.46-13.378-29.838-29.839-29.838zm-2.206 190.36h-235.35v-158.31h235.35z"/>
   <path d="m460.32 134.07h-104.24c-9.2 0-16.648 7.448-16.648 16.648v218.02c0 9.2 7.448 16.648 16.648 16.648h104.24c9.201 0 16.648-7.448 16.648-16.648v-218.02c1e-3 -9.201-7.446-16.649-16.648-16.649zm-52.134 184.16c-6.978 0-12.641-5.663-12.641-12.643 0-6.978 5.663-12.642 12.641-12.642 6.979 0 12.643 5.664 12.643 12.642 0 6.98-5.664 12.643-12.643 12.643zm45.407-66.999c0 4.977-4.036 9.013-9.013 9.013h-72.756c-4.976 0-9.013-4.036-9.013-9.013v-21.403c0-4.976 4.037-9.013 9.013-9.013h72.756c4.977 0 9.013 4.037 9.013 9.013zm0-60.145c0 4.977-4.036 9.013-9.013 9.013h-72.756c-4.976 0-9.013-4.036-9.013-9.013v-21.403c0-4.977 4.037-9.013 9.013-9.013h72.756c4.977 0 9.013 4.036 9.013 9.013z"/>
  </g>
 </g>
 <g transform="matrix(.017721 0 0 .017721 110.87 23.875)">
  <g fill="#020202">
   <path d="m269.6 91.579h-239.77c-16.461 0-29.838 13.378-29.838 29.838v162.72c0 16.461 13.377 29.84 29.838 29.84h80.36v39.366h-12.674c-8.856 0-16.021 7.165-16.021 16.021 0 8.855 7.165 16.022 16.021 16.022h104.39c8.855 0 16.023-7.167 16.023-16.022 0-8.857-7.167-16.021-16.023-16.021h-12.689v-39.366h80.376c16.461 0 29.838-13.379 29.838-29.84v-162.72c-1e-3 -16.46-13.378-29.838-29.839-29.838zm-2.206 190.36h-235.35v-158.31h235.35z"/>
   <path d="m460.32 134.07h-104.24c-9.2 0-16.648 7.448-16.648 16.648v218.02c0 9.2 7.448 16.648 16.648 16.648h104.24c9.201 0 16.648-7.448 16.648-16.648v-218.02c1e-3 -9.201-7.446-16.649-16.648-16.649zm-52.134 184.16c-6.978 0-12.641-5.663-12.641-12.643 0-6.978 5.663-12.642 12.641-12.642 6.979 0 12.643 5.664 12.643 12.642 0 6.98-5.664 12.643-12.643 12.643zm45.407-66.999c0 4.977-4.036 9.013-9.013 9.013h-72.756c-4.976 0-9.013-4.036-9.013-9.013v-21.403c0-4.976 4.037-9.013 9.013-9.013h72.756c4.977 0 9.013 4.037 9.013 9.013zm0-60.145c0 4.977-4.036 9.013-9.013 9.013h-72.756c-4.976 0-9.013-4.036-9.013-9.013v-21.403c0-4.977 4.037-9.013 9.013-9.013h72.756c4.977 0 9.013 4.036 9.013 9.013z"/>
  </g>
 </g>
 <g transform="matrix(.00053801 0 0 -.00053801 105.73 11)">
  <path d="m2280 9441c-674-3-1233-10-1243-15-10-4-21-16-25-25s-5-522-2-1141 6-2206 8-3527c1-1451 6-2412 11-2427 6-13 16-28 23-32 9-6 6-10-10-14-18-4-79-106-293-490-149-267-293-528-321-580s-123-220-210-375c-88-154-174-304-190-333-29-52-30-56-26-160 5-125 22-169 77-200 20-11 46-34 58-50 14-19 42-37 75-49 51-17 252-18 6178-18h6125l74 22c77 23 88 30 133 78 55 58 71 102 76 206 3 80 1 104-15 140-24 53-127 227-234 394-87 136-569 917-755 1222-121 198-123 203-109 230 13 24 15 469 15 3433 0 2335 3 3441 11 3519 12 130 8 154-25 177-22 14-405 16-4103 18-2243 2-4629 0-5303-3zm8930-3531v-2740h-9760v5480h9760z"/>
 </g>
 <g transform="matrix(.00053801 0 0 -.00053801 72.698 36.67)">
  <path d="m2280 9441c-674-3-1233-10-1243-15-10-4-21-16-25-25s-5-522-2-1141 6-2206 8-3527c1-1451 6-2412 11-2427 6-13 16-28 23-32 9-6 6-10-10-14-18-4-79-106-293-490-149-267-293-528-321-580s-123-220-210-375c-88-154-174-304-190-333-29-52-30-56-26-160 5-125 22-169 77-200 20-11 46-34 58-50 14-19 42-37 75-49 51-17 252-18 6178-18h6125l74 22c77 23 88 30 133 78 55 58 71 102 76 206 3 80 1 104-15 140-24 53-127 227-234 394-87 136-569 917-755 1222-121 198-123 203-109 230 13 24 15 469 15 3433 0 2335 3 3441 11 3519 12 130 8 154-25 177-22 14-405 16-4103 18-2243 2-4629 0-5303-3zm8930-3531v-2740h-9760v5480h9760z"/>
 </g>
 <g transform="matrix(.0087037 0 0 .0087037 91.991 21.852)">
  <path d="m624.6 118.3h-249.2c-8.8 0-15.9 7.1-15.9 15.9v731.6c0 8.8 7.1 15.9 15.9 15.9h249.2c8.8 0 15.9-7.1 15.9-15.9v-731.6c-0.1-8.8-7.2-15.9-15.9-15.9zm-124.6 623.9c-30.6 0-55.4-24.8-55.4-55.4s24.8-55.4 55.4-55.4 55.4 24.8 55.4 55.4-24.8 55.4-55.4 55.4zm102-283c0 8.8-7.1 15.9-15.9 15.9h-172.2c-8.8 0-15.9-7.1-15.9-15.9v-15.9c0-8.8 7.1-15.9 15.9-15.9h172.2c8.8 0 15.9 7.1 15.9 15.9zm0-79.3c0 8.8-7.1 15.9-15.9 15.9h-172.2c-8.8 0-15.9-7.1-15.9-15.9v-15.9c0-8.8 7.1-15.9 15.9-15.9h172.2c8.8 0 15.9 7.1 15.9 15.9zm0-79.3c0 8.8-7.1 15.9-15.9 15.9h-172.2c-8.8 0-15.9-7.1-15.9-15.9v-15.9c0-8.8 7.1-15.9 15.9-15.9h172.2c8.8 0 15.9 7.1 15.9 15.9zm0-79.4c0 8.8-7.1 15.9-15.9 15.9h-172.2c-8.8 0-15.9-7.1-15.9-15.9v-15.9c0-8.8 7.1-15.9 15.9-15.9h172.2c8.8 0 15.9 7.1 15.9 15.9z"/>
  <path d="m990 202.8c0-7.5-6.3-14.1-14.1-14.8-73.9-6.7-147.8-13.4-221.6-20.1-0.8-0.1-3.1 0-5.6 0.7l-86.4 21.8v678.6l89.4 12.6c1.1 0.2 2.5 0 2.6 0 73.9-6.7 147.8-14.2 221.6-20.9 7.8-0.7 14.1-7.3 14.1-14.9v-643zm-215.7 46.5c0-8 6.3-14.1 14.1-13.5 51.1 3.6 102.1 7.2 153.2 10.8 7.8 0.6 14.1 7.1 14.1 14.7v13.7c0 7.6-6.3 13.4-14.1 12.9-51-2.9-102.1-5.8-153.2-8.7-7.8-0.5-14.1-7.3-14.1-15.3zm181.4 231.3c0 7.6-6.3 13.8-14.1 13.8-51 0.6-102.1 1.1-153.2 1.7-7.8 0.1-14.1-6.3-14.1-14.4v-14.5c0-8 6.3-14.5 14.1-14.5 51.1 0.2 102.1 0.3 153.2 0.4 7.8 0 14.1 6.2 14.1 13.8zm-14.1-55c-51-0.6-102.1-1.2-153.2-1.8-7.8-0.1-14.1-6.7-14.1-14.7v-14.5c0-8 6.3-14.4 14.1-14.2 51.1 1.3 102.1 2.6 153.2 3.9 7.8 0.2 14.1 6.5 14.1 14.1v13.7c0 7.5-6.3 13.6-14.1 13.5zm14.1-82.1c0 7.6-6.3 13.5-14.1 13.2-51-1.7-102.1-3.5-153.2-5.3-7.8-0.3-14.1-7-14.1-15v-14.4c0-8 6.3-14.2 14.1-13.8 51.1 2.4 102.1 4.9 153.2 7.4 7.8 0.4 14.1 6.8 14.1 14.4z"/>
  <path d="m245.7 167.8c-73.9 6.7-147.8 13.4-221.6 20.1-7.8 0.7-14.1 7.3-14.1 14.8v643c0 7.5 6.3 14.1 14.1 14.9 73.9 6.7 147.8 14.2 221.6 20.9 0.1 0 1.5 0.2 2.6 0l89.4-12.6v-678.6l-86.4-21.8c-2.4-0.7-4.7-0.8-5.6-0.7zm-20.1 313.9c0 8-6.3 14.5-14.1 14.4-51.1-0.6-102.1-1.1-153.2-1.7-7.8-0.1-14.1-6.3-14.1-13.8v-13.7c0-7.6 6.3-13.7 14.1-13.8 51.1-0.1 102.1-0.3 153.2-0.4 7.8 0 14.1 6.5 14.1 14.5zm0-72.6c0 8-6.3 14.6-14.1 14.7-51.1 0.6-102.1 1.2-153.2 1.8-7.8 0.1-14.1-6-14.1-13.5v-13.7c0-7.6 6.3-13.9 14.1-14.1 51.1-1.3 102.1-2.6 153.2-3.9 7.8-0.2 14.1 6.1 14.1 14.2zm0-72.7c0 8-6.3 14.8-14.1 15-51.1 1.7-102.1 3.5-153.2 5.3-7.8 0.2-14.1-5.7-14.1-13.2v-13.7c0-7.6 6.3-14 14.1-14.4 51.1-2.4 102.1-4.9 153.2-7.4 7.8-0.4 14.1 5.8 14.1 13.8zm0-72.6c0 8-6.3 14.9-14.1 15.3-51.1 2.9-102.1 5.8-153.2 8.7-7.8 0.4-14.1-5.4-14.1-12.9v-13.7c0-7.6 6.3-14.1 14.1-14.7 51.1-3.6 102.1-7.2 153.2-10.8 7.8-0.6 14.1 5.5 14.1 13.5z"/>
 </g>
</svg>
