<?xml version="1.0" encoding="UTF-8"?>
<svg width="458.8" height="247.7" version="1.1" viewBox="0 0 121.4 65.53" xmlns="http://www.w3.org/2000/svg">
 <g stroke="#fff">
  <g transform="translate(-60.79 -21.06)" fill="none" stroke-width=".5">
   <path d="m109 45.12-19.47 6.943"/>
   <path d="m78.08 30.33 21.55-2.969"/>
   <path d="m67.09 49.24 10.98-18.91"/>
   <path d="m67.09 49.24 22.45 2.829"/>
   <path d="m78.08 30.33 11.47 21.74"/>
   <path d="m109 45.12-9.388-17.76"/>
   <path d="m106.6 69.08-17.04-17.01"/>
   <path d="m84.48 71.35 5.066-19.28"/>
  </g>
  <g transform="translate(0 -.0004013)" fill="#fff" stroke-width=".5">
   <circle cx="23.68" cy="50.28" r="6.048"/>
   <circle cx="48.23" cy="24.06" r="6.048"/>
   <circle cx="17.28" cy="9.267" r="6.048"/>
   <circle cx="6.298" cy="28.17" r="6.048"/>
   <circle cx="45.8" cy="48.02" r="6.048"/>
  </g>
  <g transform="translate(-62.53 -17.86)">
   <circle cx="91.28" cy="48.86" r="6.048" fill="#fff" stroke-width=".5"/>
  </g>
  <g transform="translate(-61.33 -25.74)">
   <circle cx="100.2" cy="32.04" r="6.048" fill="#fff" stroke-width=".5"/>
  </g>
 </g>
 <g transform="matrix(.01772 0 0 .01772 44 19.83)">
  <g fill="#020202">
   <path d="m269.6 91.58h-239.8c-16.46 0-29.84 13.38-29.84 29.84v162.7c0 16.46 13.38 29.84 29.84 29.84h80.36v39.37h-12.67c-8.856 0-16.02 7.165-16.02 16.02s7.165 16.02 16.02 16.02h104.4c8.855 0 16.02-7.167 16.02-16.02 0-8.857-7.167-16.02-16.02-16.02h-12.69v-39.37h80.38c16.46 0 29.84-13.38 29.84-29.84v-162.7c-1e-3 -16.46-13.38-29.84-29.84-29.84zm-2.206 190.4h-235.4v-158.3h235.4z"/>
   <path d="m460.3 134.1h-104.2c-9.2 0-16.65 7.448-16.65 16.65v218c0 9.2 7.448 16.65 16.65 16.65h104.2c9.201 0 16.65-7.448 16.65-16.65v-218c1e-3 -9.201-7.446-16.65-16.65-16.65zm-52.13 184.2c-6.978 0-12.64-5.663-12.64-12.64 0-6.978 5.663-12.64 12.64-12.64 6.979 0 12.64 5.664 12.64 12.64 0 6.98-5.664 12.64-12.64 12.64zm45.41-67c0 4.977-4.036 9.013-9.013 9.013h-72.76c-4.976 0-9.013-4.036-9.013-9.013v-21.4c0-4.976 4.037-9.013 9.013-9.013h72.76c4.977 0 9.013 4.037 9.013 9.013zm0-60.14c0 4.977-4.036 9.013-9.013 9.013h-72.76c-4.976 0-9.013-4.036-9.013-9.013v-21.4c0-4.977 4.037-9.013 9.013-9.013h72.76c4.977 0 9.013 4.036 9.013 9.013z"/>
  </g>
 </g>
 <g transform="matrix(.01772 0 0 .01772 13.06 5.04)">
  <g fill="#020202">
   <path d="m269.6 91.58h-239.8c-16.46 0-29.84 13.38-29.84 29.84v162.7c0 16.46 13.38 29.84 29.84 29.84h80.36v39.37h-12.67c-8.856 0-16.02 7.165-16.02 16.02s7.165 16.02 16.02 16.02h104.4c8.855 0 16.02-7.167 16.02-16.02 0-8.857-7.167-16.02-16.02-16.02h-12.69v-39.37h80.38c16.46 0 29.84-13.38 29.84-29.84v-162.7c-1e-3 -16.46-13.38-29.84-29.84-29.84zm-2.206 190.4h-235.4v-158.3h235.4z"/>
   <path d="m460.3 134.1h-104.2c-9.2 0-16.65 7.448-16.65 16.65v218c0 9.2 7.448 16.65 16.65 16.65h104.2c9.201 0 16.65-7.448 16.65-16.65v-218c1e-3 -9.201-7.446-16.65-16.65-16.65zm-52.13 184.2c-6.978 0-12.64-5.663-12.64-12.64 0-6.978 5.663-12.64 12.64-12.64 6.979 0 12.64 5.664 12.64 12.64 0 6.98-5.664 12.64-12.64 12.64zm45.41-67c0 4.977-4.036 9.013-9.013 9.013h-72.76c-4.976 0-9.013-4.036-9.013-9.013v-21.4c0-4.976 4.037-9.013 9.013-9.013h72.76c4.977 0 9.013 4.037 9.013 9.013zm0-60.14c0 4.977-4.036 9.013-9.013 9.013h-72.76c-4.976 0-9.013-4.036-9.013-9.013v-21.4c0-4.977 4.037-9.013 9.013-9.013h72.76c4.977 0 9.013 4.036 9.013 9.013z"/>
  </g>
 </g>
 <g transform="matrix(.01772 0 0 .01772 19.46 46.06)">
  <g fill="#020202">
   <path d="m269.6 91.58h-239.8c-16.46 0-29.84 13.38-29.84 29.84v162.7c0 16.46 13.38 29.84 29.84 29.84h80.36v39.37h-12.67c-8.856 0-16.02 7.165-16.02 16.02s7.165 16.02 16.02 16.02h104.4c8.855 0 16.02-7.167 16.02-16.02 0-8.857-7.167-16.02-16.02-16.02h-12.69v-39.37h80.38c16.46 0 29.84-13.38 29.84-29.84v-162.7c-1e-3 -16.46-13.38-29.84-29.84-29.84zm-2.206 190.4h-235.4v-158.3h235.4z"/>
   <path d="m460.3 134.1h-104.2c-9.2 0-16.65 7.448-16.65 16.65v218c0 9.2 7.448 16.65 16.65 16.65h104.2c9.201 0 16.65-7.448 16.65-16.65v-218c1e-3 -9.201-7.446-16.65-16.65-16.65zm-52.13 184.2c-6.978 0-12.64-5.663-12.64-12.64 0-6.978 5.663-12.64 12.64-12.64 6.979 0 12.64 5.664 12.64 12.64 0 6.98-5.664 12.64-12.64 12.64zm45.41-67c0 4.977-4.036 9.013-9.013 9.013h-72.76c-4.976 0-9.013-4.036-9.013-9.013v-21.4c0-4.976 4.037-9.013 9.013-9.013h72.76c4.977 0 9.013 4.037 9.013 9.013zm0-60.14c0 4.977-4.036 9.013-9.013 9.013h-72.76c-4.976 0-9.013-4.036-9.013-9.013v-21.4c0-4.977 4.037-9.013 9.013-9.013h72.76c4.977 0 9.013 4.036 9.013 9.013z"/>
  </g>
 </g>
 <g transform="matrix(.000538 0 0 -.000538 2.854 30.71)">
  <path d="m2280 9441c-674-3-1233-10-1243-15-10-4-21-16-25-25s-5-522-2-1141 6-2206 8-3527c1-1451 6-2412 11-2427 6-13 16-28 23-32 9-6 6-10-10-14-18-4-79-106-293-490-149-267-293-528-321-580s-123-220-210-375c-88-154-174-304-190-333-29-52-30-56-26-160 5-125 22-169 77-200 20-11 46-34 58-50 14-19 42-37 75-49 51-17 252-18 6178-18h6125l74 22c77 23 88 30 133 78 55 58 71 102 76 206 3 80 1 104-15 140-24 53-127 227-234 394-87 136-569 917-755 1222-121 198-123 203-109 230 13 24 15 469 15 3433 0 2335 3 3441 11 3519 12 130 8 154-25 177-22 14-405 16-4103 18-2243 2-4629 0-5303-3zm8930-3531v-2740h-9760v5480h9760z"/>
 </g>
 <g transform="matrix(.000538 0 0 -.000538 42.35 50.56)">
  <path d="m2280 9441c-674-3-1233-10-1243-15-10-4-21-16-25-25s-5-522-2-1141 6-2206 8-3527c1-1451 6-2412 11-2427 6-13 16-28 23-32 9-6 6-10-10-14-18-4-79-106-293-490-149-267-293-528-321-580s-123-220-210-375c-88-154-174-304-190-333-29-52-30-56-26-160 5-125 22-169 77-200 20-11 46-34 58-50 14-19 42-37 75-49 51-17 252-18 6178-18h6125l74 22c77 23 88 30 133 78 55 58 71 102 76 206 3 80 1 104-15 140-24 53-127 227-234 394-87 136-569 917-755 1222-121 198-123 203-109 230 13 24 15 469 15 3433 0 2335 3 3441 11 3519 12 130 8 154-25 177-22 14-405 16-4103 18-2243 2-4629 0-5303-3zm8930-3531v-2740h-9760v5480h9760z"/>
 </g>
 <g transform="matrix(.01772 0 0 .01772 24.52 26.78)">
  <g fill="#020202">
   <path d="m269.6 91.58h-239.8c-16.46 0-29.84 13.38-29.84 29.84v162.7c0 16.46 13.38 29.84 29.84 29.84h80.36v39.37h-12.67c-8.856 0-16.02 7.165-16.02 16.02s7.165 16.02 16.02 16.02h104.4c8.855 0 16.02-7.167 16.02-16.02 0-8.857-7.167-16.02-16.02-16.02h-12.69v-39.37h80.38c16.46 0 29.84-13.38 29.84-29.84v-162.7c-1e-3 -16.46-13.38-29.84-29.84-29.84zm-2.206 190.4h-235.4v-158.3h235.4z"/>
   <path d="m460.3 134.1h-104.2c-9.2 0-16.65 7.448-16.65 16.65v218c0 9.2 7.448 16.65 16.65 16.65h104.2c9.201 0 16.65-7.448 16.65-16.65v-218c1e-3 -9.201-7.446-16.65-16.65-16.65zm-52.13 184.2c-6.978 0-12.64-5.663-12.64-12.64 0-6.978 5.663-12.64 12.64-12.64 6.979 0 12.64 5.664 12.64 12.64 0 6.98-5.664 12.64-12.64 12.64zm45.41-67c0 4.977-4.036 9.013-9.013 9.013h-72.76c-4.976 0-9.013-4.036-9.013-9.013v-21.4c0-4.976 4.037-9.013 9.013-9.013h72.76c4.977 0 9.013 4.037 9.013 9.013zm0-60.14c0 4.977-4.036 9.013-9.013 9.013h-72.76c-4.976 0-9.013-4.036-9.013-9.013v-21.4c0-4.977 4.037-9.013 9.013-9.013h72.76c4.977 0 9.013 4.036 9.013 9.013z"/>
  </g>
 </g>
 <g transform="matrix(.000538 0 0 -.000538 35.39 8.839)">
  <path d="m2280 9441c-674-3-1233-10-1243-15-10-4-21-16-25-25s-5-522-2-1141 6-2206 8-3527c1-1451 6-2412 11-2427 6-13 16-28 23-32 9-6 6-10-10-14-18-4-79-106-293-490-149-267-293-528-321-580s-123-220-210-375c-88-154-174-304-190-333-29-52-30-56-26-160 5-125 22-169 77-200 20-11 46-34 58-50 14-19 42-37 75-49 51-17 252-18 6178-18h6125l74 22c77 23 88 30 133 78 55 58 71 102 76 206 3 80 1 104-15 140-24 53-127 227-234 394-87 136-569 917-755 1222-121 198-123 203-109 230 13 24 15 469 15 3433 0 2335 3 3441 11 3519 12 130 8 154-25 177-22 14-405 16-4103 18-2243 2-4629 0-5303-3zm8930-3531v-2740h-9760v5480h9760z"/>
 </g>
 <g transform="translate(0 -.0004013)" stroke="#fff">
  <g transform="translate(5.061 -22.66)">
   <circle cx="91.28" cy="48.86" r="6.048" fill="#fff" stroke-width=".5"/>
  </g>
  <g transform="translate(-8.331 -41.52)">
   <circle cx="91.28" cy="48.86" r="6.048" fill="#fff" stroke-width=".5"/>
  </g>
  <g transform="translate(17.9 -40.4)">
   <circle cx="91.28" cy="48.86" r="6.048" fill="#fff" stroke-width=".5"/>
  </g>
  <g transform="translate(17.9 -1.785)">
   <circle cx="91.28" cy="48.86" r="6.048" fill="#fff" stroke-width=".5"/>
  </g>
  <g transform="translate(-1.523 -3.012)">
   <circle cx="91.28" cy="48.86" r="6.048" fill="#fff" stroke-width=".5"/>
  </g>
  <g transform="translate(-15.14 -14.73)">
   <circle cx="91.28" cy="48.86" r="6.048" fill="#fff" stroke-width=".5"/>
  </g>
  <g transform="translate(23.81 -20.76)">
   <circle cx="91.28" cy="48.86" r="6.048" fill="#fff" stroke-width=".5"/>
  </g>
  <g transform="translate(3.151 -2.003)" fill="none" stroke-width=".5">
   <path d="m72.99 36.13 20.2-7.924"/>
   <path d="m79.8 9.346 13.39 18.86"/>
   <path d="m106 10.46-12.84 17.75"/>
   <path d="m111.9 30.1-18.75-1.897"/>
   <path d="m106 49.08-12.84-20.87"/>
   <path d="m86.61 47.85 6.585-19.64"/>
  </g>
 </g>
 <g transform="matrix(.01772 0 0 .01772 78.72 3.115)">
  <g fill="#020202">
   <path d="m269.6 91.58h-239.8c-16.46 0-29.84 13.38-29.84 29.84v162.7c0 16.46 13.38 29.84 29.84 29.84h80.36v39.37h-12.67c-8.856 0-16.02 7.165-16.02 16.02s7.165 16.02 16.02 16.02h104.4c8.855 0 16.02-7.167 16.02-16.02 0-8.857-7.167-16.02-16.02-16.02h-12.69v-39.37h80.38c16.46 0 29.84-13.38 29.84-29.84v-162.7c-1e-3 -16.46-13.38-29.84-29.84-29.84zm-2.206 190.4h-235.4v-158.3h235.4z"/>
   <path d="m460.3 134.1h-104.2c-9.2 0-16.65 7.448-16.65 16.65v218c0 9.2 7.448 16.65 16.65 16.65h104.2c9.201 0 16.65-7.448 16.65-16.65v-218c1e-3 -9.201-7.446-16.65-16.65-16.65zm-52.13 184.2c-6.978 0-12.64-5.663-12.64-12.64 0-6.978 5.663-12.64 12.64-12.64 6.979 0 12.64 5.664 12.64 12.64 0 6.98-5.664 12.64-12.64 12.64zm45.41-67c0 4.977-4.036 9.013-9.013 9.013h-72.76c-4.976 0-9.013-4.036-9.013-9.013v-21.4c0-4.976 4.037-9.013 9.013-9.013h72.76c4.977 0 9.013 4.037 9.013 9.013zm0-60.14c0 4.977-4.036 9.013-9.013 9.013h-72.76c-4.976 0-9.013-4.036-9.013-9.013v-21.4c0-4.977 4.037-9.013 9.013-9.013h72.76c4.977 0 9.013 4.036 9.013 9.013z"/>
  </g>
 </g>
 <g transform="matrix(.01772 0 0 .01772 85.53 41.62)">
  <g fill="#020202">
   <path d="m269.6 91.58h-239.8c-16.46 0-29.84 13.38-29.84 29.84v162.7c0 16.46 13.38 29.84 29.84 29.84h80.36v39.37h-12.67c-8.856 0-16.02 7.165-16.02 16.02s7.165 16.02 16.02 16.02h104.4c8.855 0 16.02-7.167 16.02-16.02 0-8.857-7.167-16.02-16.02-16.02h-12.69v-39.37h80.38c16.46 0 29.84-13.38 29.84-29.84v-162.7c-1e-3 -16.46-13.38-29.84-29.84-29.84zm-2.206 190.4h-235.4v-158.3h235.4z"/>
   <path d="m460.3 134.1h-104.2c-9.2 0-16.65 7.448-16.65 16.65v218c0 9.2 7.448 16.65 16.65 16.65h104.2c9.201 0 16.65-7.448 16.65-16.65v-218c1e-3 -9.201-7.446-16.65-16.65-16.65zm-52.13 184.2c-6.978 0-12.64-5.663-12.64-12.64 0-6.978 5.663-12.64 12.64-12.64 6.979 0 12.64 5.664 12.64 12.64 0 6.98-5.664 12.64-12.64 12.64zm45.41-67c0 4.977-4.036 9.013-9.013 9.013h-72.76c-4.976 0-9.013-4.036-9.013-9.013v-21.4c0-4.976 4.037-9.013 9.013-9.013h72.76c4.977 0 9.013 4.037 9.013 9.013zm0-60.14c0 4.977-4.036 9.013-9.013 9.013h-72.76c-4.976 0-9.013-4.036-9.013-9.013v-21.4c0-4.977 4.037-9.013 9.013-9.013h72.76c4.977 0 9.013 4.036 9.013 9.013z"/>
  </g>
 </g>
 <g transform="matrix(.01772 0 0 .01772 105 42.85)">
  <g fill="#020202">
   <path d="m269.6 91.58h-239.8c-16.46 0-29.84 13.38-29.84 29.84v162.7c0 16.46 13.38 29.84 29.84 29.84h80.36v39.37h-12.67c-8.856 0-16.02 7.165-16.02 16.02s7.165 16.02 16.02 16.02h104.4c8.855 0 16.02-7.167 16.02-16.02 0-8.857-7.167-16.02-16.02-16.02h-12.69v-39.37h80.38c16.46 0 29.84-13.38 29.84-29.84v-162.7c-1e-3 -16.46-13.38-29.84-29.84-29.84zm-2.206 190.4h-235.4v-158.3h235.4z"/>
   <path d="m460.3 134.1h-104.2c-9.2 0-16.65 7.448-16.65 16.65v218c0 9.2 7.448 16.65 16.65 16.65h104.2c9.201 0 16.65-7.448 16.65-16.65v-218c1e-3 -9.201-7.446-16.65-16.65-16.65zm-52.13 184.2c-6.978 0-12.64-5.663-12.64-12.64 0-6.978 5.663-12.64 12.64-12.64 6.979 0 12.64 5.664 12.64 12.64 0 6.98-5.664 12.64-12.64 12.64zm45.41-67c0 4.977-4.036 9.013-9.013 9.013h-72.76c-4.976 0-9.013-4.036-9.013-9.013v-21.4c0-4.976 4.037-9.013 9.013-9.013h72.76c4.977 0 9.013 4.037 9.013 9.013zm0-60.14c0 4.977-4.036 9.013-9.013 9.013h-72.76c-4.976 0-9.013-4.036-9.013-9.013v-21.4c0-4.977 4.037-9.013 9.013-9.013h72.76c4.977 0 9.013 4.036 9.013 9.013z"/>
  </g>
 </g>
 <g transform="matrix(.01772 0 0 .01772 110.9 23.87)">
  <g fill="#020202">
   <path d="m269.6 91.58h-239.8c-16.46 0-29.84 13.38-29.84 29.84v162.7c0 16.46 13.38 29.84 29.84 29.84h80.36v39.37h-12.67c-8.856 0-16.02 7.165-16.02 16.02s7.165 16.02 16.02 16.02h104.4c8.855 0 16.02-7.167 16.02-16.02 0-8.857-7.167-16.02-16.02-16.02h-12.69v-39.37h80.38c16.46 0 29.84-13.38 29.84-29.84v-162.7c-1e-3 -16.46-13.38-29.84-29.84-29.84zm-2.206 190.4h-235.4v-158.3h235.4z"/>
   <path d="m460.3 134.1h-104.2c-9.2 0-16.65 7.448-16.65 16.65v218c0 9.2 7.448 16.65 16.65 16.65h104.2c9.201 0 16.65-7.448 16.65-16.65v-218c1e-3 -9.201-7.446-16.65-16.65-16.65zm-52.13 184.2c-6.978 0-12.64-5.663-12.64-12.64 0-6.978 5.663-12.64 12.64-12.64 6.979 0 12.64 5.664 12.64 12.64 0 6.98-5.664 12.64-12.64 12.64zm45.41-67c0 4.977-4.036 9.013-9.013 9.013h-72.76c-4.976 0-9.013-4.036-9.013-9.013v-21.4c0-4.976 4.037-9.013 9.013-9.013h72.76c4.977 0 9.013 4.037 9.013 9.013zm0-60.14c0 4.977-4.036 9.013-9.013 9.013h-72.76c-4.976 0-9.013-4.036-9.013-9.013v-21.4c0-4.977 4.037-9.013 9.013-9.013h72.76c4.977 0 9.013 4.036 9.013 9.013z"/>
  </g>
 </g>
 <g transform="matrix(.000538 0 0 -.000538 105.7 11)">
  <path d="m2280 9441c-674-3-1233-10-1243-15-10-4-21-16-25-25s-5-522-2-1141 6-2206 8-3527c1-1451 6-2412 11-2427 6-13 16-28 23-32 9-6 6-10-10-14-18-4-79-106-293-490-149-267-293-528-321-580s-123-220-210-375c-88-154-174-304-190-333-29-52-30-56-26-160 5-125 22-169 77-200 20-11 46-34 58-50 14-19 42-37 75-49 51-17 252-18 6178-18h6125l74 22c77 23 88 30 133 78 55 58 71 102 76 206 3 80 1 104-15 140-24 53-127 227-234 394-87 136-569 917-755 1222-121 198-123 203-109 230 13 24 15 469 15 3433 0 2335 3 3441 11 3519 12 130 8 154-25 177-22 14-405 16-4103 18-2243 2-4629 0-5303-3zm8930-3531v-2740h-9760v5480h9760z"/>
 </g>
 <g transform="matrix(.000538 0 0 -.000538 72.7 36.67)">
  <path d="m2280 9441c-674-3-1233-10-1243-15-10-4-21-16-25-25s-5-522-2-1141 6-2206 8-3527c1-1451 6-2412 11-2427 6-13 16-28 23-32 9-6 6-10-10-14-18-4-79-106-293-490-149-267-293-528-321-580s-123-220-210-375c-88-154-174-304-190-333-29-52-30-56-26-160 5-125 22-169 77-200 20-11 46-34 58-50 14-19 42-37 75-49 51-17 252-18 6178-18h6125l74 22c77 23 88 30 133 78 55 58 71 102 76 206 3 80 1 104-15 140-24 53-127 227-234 394-87 136-569 917-755 1222-121 198-123 203-109 230 13 24 15 469 15 3433 0 2335 3 3441 11 3519 12 130 8 154-25 177-22 14-405 16-4103 18-2243 2-4629 0-5303-3zm8930-3531v-2740h-9760v5480h9760z"/>
 </g>
 <g transform="matrix(.008704 0 0 .008704 91.99 21.85)">
  <path d="m624.6 118.3h-249.2c-8.8 0-15.9 7.1-15.9 15.9v731.6c0 8.8 7.1 15.9 15.9 15.9h249.2c8.8 0 15.9-7.1 15.9-15.9v-731.6c-0.1-8.8-7.2-15.9-15.9-15.9zm-124.6 623.9c-30.6 0-55.4-24.8-55.4-55.4s24.8-55.4 55.4-55.4 55.4 24.8 55.4 55.4-24.8 55.4-55.4 55.4zm102-283c0 8.8-7.1 15.9-15.9 15.9h-172.2c-8.8 0-15.9-7.1-15.9-15.9v-15.9c0-8.8 7.1-15.9 15.9-15.9h172.2c8.8 0 15.9 7.1 15.9 15.9zm0-79.3c0 8.8-7.1 15.9-15.9 15.9h-172.2c-8.8 0-15.9-7.1-15.9-15.9v-15.9c0-8.8 7.1-15.9 15.9-15.9h172.2c8.8 0 15.9 7.1 15.9 15.9zm0-79.3c0 8.8-7.1 15.9-15.9 15.9h-172.2c-8.8 0-15.9-7.1-15.9-15.9v-15.9c0-8.8 7.1-15.9 15.9-15.9h172.2c8.8 0 15.9 7.1 15.9 15.9zm0-79.4c0 8.8-7.1 15.9-15.9 15.9h-172.2c-8.8 0-15.9-7.1-15.9-15.9v-15.9c0-8.8 7.1-15.9 15.9-15.9h172.2c8.8 0 15.9 7.1 15.9 15.9z"/>
  <path d="m990 202.8c0-7.5-6.3-14.1-14.1-14.8-73.9-6.7-147.8-13.4-221.6-20.1-0.8-0.1-3.1 0-5.6 0.7l-86.4 21.8v678.6l89.4 12.6c1.1 0.2 2.5 0 2.6 0 73.9-6.7 147.8-14.2 221.6-20.9 7.8-0.7 14.1-7.3 14.1-14.9zm-215.7 46.5c0-8 6.3-14.1 14.1-13.5 51.1 3.6 102.1 7.2 153.2 10.8 7.8 0.6 14.1 7.1 14.1 14.7v13.7c0 7.6-6.3 13.4-14.1 12.9-51-2.9-102.1-5.8-153.2-8.7-7.8-0.5-14.1-7.3-14.1-15.3zm181.4 231.3c0 7.6-6.3 13.8-14.1 13.8-51 0.6-102.1 1.1-153.2 1.7-7.8 0.1-14.1-6.3-14.1-14.4v-14.5c0-8 6.3-14.5 14.1-14.5 51.1 0.2 102.1 0.3 153.2 0.4 7.8 0 14.1 6.2 14.1 13.8zm-14.1-55c-51-0.6-102.1-1.2-153.2-1.8-7.8-0.1-14.1-6.7-14.1-14.7v-14.5c0-8 6.3-14.4 14.1-14.2 51.1 1.3 102.1 2.6 153.2 3.9 7.8 0.2 14.1 6.5 14.1 14.1v13.7c0 7.5-6.3 13.6-14.1 13.5zm14.1-82.1c0 7.6-6.3 13.5-14.1 13.2-51-1.7-102.1-3.5-153.2-5.3-7.8-0.3-14.1-7-14.1-15v-14.4c0-8 6.3-14.2 14.1-13.8 51.1 2.4 102.1 4.9 153.2 7.4 7.8 0.4 14.1 6.8 14.1 14.4z"/>
  <path d="m245.7 167.8c-73.9 6.7-147.8 13.4-221.6 20.1-7.8 0.7-14.1 7.3-14.1 14.8v643c0 7.5 6.3 14.1 14.1 14.9 73.9 6.7 147.8 14.2 221.6 20.9 0.1 0 1.5 0.2 2.6 0l89.4-12.6v-678.6l-86.4-21.8c-2.4-0.7-4.7-0.8-5.6-0.7zm-20.1 313.9c0 8-6.3 14.5-14.1 14.4-51.1-0.6-102.1-1.1-153.2-1.7-7.8-0.1-14.1-6.3-14.1-13.8v-13.7c0-7.6 6.3-13.7 14.1-13.8 51.1-0.1 102.1-0.3 153.2-0.4 7.8 0 14.1 6.5 14.1 14.5zm0-72.6c0 8-6.3 14.6-14.1 14.7-51.1 0.6-102.1 1.2-153.2 1.8-7.8 0.1-14.1-6-14.1-13.5v-13.7c0-7.6 6.3-13.9 14.1-14.1 51.1-1.3 102.1-2.6 153.2-3.9 7.8-0.2 14.1 6.1 14.1 14.2zm0-72.7c0 8-6.3 14.8-14.1 15-51.1 1.7-102.1 3.5-153.2 5.3-7.8 0.2-14.1-5.7-14.1-13.2v-13.7c0-7.6 6.3-14 14.1-14.4 51.1-2.4 102.1-4.9 153.2-7.4 7.8-0.4 14.1 5.8 14.1 13.8zm0-72.6c0 8-6.3 14.9-14.1 15.3-51.1 2.9-102.1 5.8-153.2 8.7-7.8 0.4-14.1-5.4-14.1-12.9v-13.7c0-7.6 6.3-14.1 14.1-14.7 51.1-3.6 102.1-7.2 153.2-10.8 7.8-0.6 14.1 5.5 14.1 13.5z"/>
 </g>
 <g fill="#808080" stroke-width=".2646" style="font-feature-settings:normal;font-variant-caps:normal;font-variant-ligatures:normal;font-variant-numeric:normal" aria-label="Distribuito">
  <path d="m20.96 64.25q0 0.3175-0.09878 0.5539-0.09878 0.2328-0.2787 0.3881-0.1799 0.1517-0.4304 0.2293-0.2505 0.07409-0.5504 0.07409-0.1482 0-0.3281-0.01411-0.1764-0.01058-0.321-0.04586v-2.371q0.1446-0.03528 0.321-0.04586 0.1799-0.01411 0.3281-0.01411 0.2999 0 0.5504 0.07762 0.2505 0.07409 0.4304 0.2293 0.1799 0.1517 0.2787 0.3881 0.09878 0.2328 0.09878 0.5504zm-1.33 0.9455q0.4869 0 0.7268-0.247 0.2399-0.2505 0.2399-0.6985t-0.2399-0.695q-0.2399-0.2505-0.7268-0.2505-0.1446 0-0.2258 0.0035-0.07762 0.0035-0.1094 0.0071v1.87q0.03175 0.0035 0.1094 0.0071 0.08114 0.0035 0.2258 0.0035z" style="font-feature-settings:normal;font-variant-caps:normal;font-variant-ligatures:normal;font-variant-numeric:normal"/>
  <path d="m21.78 65.48h-0.3281v-1.835h0.3281zm-0.1658-2.166q-0.0882 0-0.1517-0.05645-0.05998-0.05998-0.05998-0.1588t0.05998-0.1552q0.0635-0.05998 0.1517-0.05998 0.0882 0 0.1482 0.05998 0.0635 0.05645 0.0635 0.1552 0 0.09878-0.0635 0.1588-0.05998 0.05645-0.1482 0.05645z" style="font-feature-settings:normal;font-variant-caps:normal;font-variant-ligatures:normal;font-variant-numeric:normal"/>
  <path d="m22.77 65.24q0.2011 0 0.2964-0.05292 0.09878-0.05292 0.09878-0.1693 0-0.12-0.09526-0.1905t-0.314-0.1588q-0.1058-0.04234-0.2046-0.08467-0.09526-0.04586-0.1658-0.1058-0.07056-0.05998-0.1129-0.1446-0.04234-0.08467-0.04234-0.2082 0-0.2434 0.1799-0.3846 0.1799-0.1446 0.4904-0.1446 0.07762 0 0.1552 0.01058 0.07762 0.0071 0.1446 0.02117 0.06703 0.01058 0.1164 0.0247 0.05292 0.01411 0.08114 0.0247l-0.05998 0.2822q-0.05292-0.02822-0.1658-0.05645-0.1129-0.03175-0.2717-0.03175-0.1376 0-0.2399 0.05645-0.1023 0.05292-0.1023 0.1693 0 0.05998 0.02117 0.1058 0.0247 0.04586 0.07056 0.08467 0.04939 0.03528 0.12 0.06703 0.07056 0.03175 0.1693 0.06703 0.1305 0.04939 0.2328 0.09878 0.1023 0.04586 0.1729 0.1094 0.07409 0.0635 0.1129 0.1552 0.03881 0.0882 0.03881 0.2187 0 0.254-0.1905 0.3846-0.187 0.1305-0.5363 0.1305-0.2434 0-0.381-0.04234-0.1376-0.03881-0.187-0.05998l0.05998-0.2822q0.05645 0.02117 0.1799 0.0635 0.1235 0.04234 0.3281 0.04234z" style="font-feature-settings:normal;font-variant-caps:normal;font-variant-ligatures:normal;font-variant-numeric:normal"/>
  <path d="m24.22 63.64h0.695v0.2752h-0.695v0.8467q0 0.1376 0.02117 0.2293 0.02117 0.0882 0.0635 0.1411 0.04234 0.04939 0.1058 0.07056t0.1482 0.02117q0.1482 0 0.2364-0.03175 0.09173-0.03528 0.127-0.04939l0.0635 0.2717q-0.04939 0.0247-0.1729 0.05998-0.1235 0.03881-0.2822 0.03881-0.187 0-0.3105-0.04586-0.12-0.04939-0.194-0.1446-0.07409-0.09526-0.1058-0.2328-0.02822-0.1411-0.02822-0.3246v-1.637l0.3281-0.05645z" style="font-feature-settings:normal;font-variant-caps:normal;font-variant-ligatures:normal;font-variant-numeric:normal"/>
  <path d="m26.01 63.6q0.04234 0 0.09526 0.0071 0.05645 0.0035 0.1094 0.01411 0.05292 0.0071 0.09526 0.01764 0.04586 0.0071 0.06703 0.01411l-0.05645 0.2858q-0.03881-0.01411-0.1305-0.03175-0.0882-0.02117-0.2293-0.02117-0.09173 0-0.1835 0.02117-0.0882 0.01764-0.1164 0.0247v1.542h-0.3281v-1.757q0.1164-0.04234 0.2893-0.07762 0.1729-0.03881 0.3881-0.03881z" style="font-feature-settings:normal;font-variant-caps:normal;font-variant-ligatures:normal;font-variant-numeric:normal"/>
  <path d="m27.02 65.48h-0.3281v-1.835h0.3281zm-0.1658-2.166q-0.0882 0-0.1517-0.05645-0.05998-0.05998-0.05998-0.1588t0.05998-0.1552q0.0635-0.05998 0.1517-0.05998 0.0882 0 0.1482 0.05998 0.0635 0.05645 0.0635 0.1552 0 0.09878-0.0635 0.1588-0.05998 0.05645-0.1482 0.05645z" style="font-feature-settings:normal;font-variant-caps:normal;font-variant-ligatures:normal;font-variant-numeric:normal"/>
  <path d="m27.92 63.72q0.05998-0.03881 0.1799-0.08114 0.1235-0.04234 0.2822-0.04234 0.1976 0 0.3493 0.07056 0.1552 0.07056 0.2611 0.1976t0.1588 0.3034q0.05645 0.1764 0.05645 0.3881 0 0.2223-0.06703 0.4022-0.0635 0.1764-0.1835 0.2999-0.12 0.1235-0.2893 0.1905-0.1693 0.06703-0.381 0.06703-0.2293 0-0.4057-0.03175t-0.2893-0.0635v-2.628l0.3281-0.05645zm0 1.468q0.04939 0.01411 0.1376 0.02822 0.09173 0.01058 0.2258 0.01058 0.2646 0 0.4234-0.1729 0.1588-0.1764 0.1588-0.4974 0-0.1411-0.02822-0.2646t-0.09173-0.2117q-0.0635-0.09173-0.1658-0.1411-0.09878-0.05292-0.2399-0.05292-0.1341 0-0.247 0.04586t-0.1729 0.09526z" style="font-feature-settings:normal;font-variant-caps:normal;font-variant-ligatures:normal;font-variant-numeric:normal"/>
  <path d="m31.13 65.42q-0.1129 0.02822-0.2999 0.05998-0.1835 0.03175-0.4269 0.03175-0.2117 0-0.3563-0.05998-0.1446-0.0635-0.2328-0.1764-0.0882-0.1129-0.127-0.2646-0.03881-0.1552-0.03881-0.3422v-1.03h0.3281v0.9596q0 0.3352 0.1058 0.4798t0.3563 0.1446q0.05292 0 0.1094-0.0035 0.05645-0.0035 0.1058-0.0071 0.04939-0.0071 0.0882-0.01058 0.04234-0.0071 0.05998-0.01411v-1.549h0.3281z" style="font-feature-settings:normal;font-variant-caps:normal;font-variant-ligatures:normal;font-variant-numeric:normal"/>
  <path d="m32.02 65.48h-0.3281v-1.835h0.3281zm-0.1658-2.166q-0.0882 0-0.1517-0.05645-0.05998-0.05998-0.05998-0.1588t0.05998-0.1552q0.0635-0.05998 0.1517-0.05998 0.0882 0 0.1482 0.05998 0.0635 0.05645 0.0635 0.1552 0 0.09878-0.0635 0.1588-0.05998 0.05645-0.1482 0.05645z" style="font-feature-settings:normal;font-variant-caps:normal;font-variant-ligatures:normal;font-variant-numeric:normal"/>
  <path d="m32.89 63.64h0.695v0.2752h-0.695v0.8467q0 0.1376 0.02117 0.2293 0.02117 0.0882 0.0635 0.1411 0.04234 0.04939 0.1058 0.07056t0.1482 0.02117q0.1482 0 0.2364-0.03175 0.09173-0.03528 0.127-0.04939l0.0635 0.2717q-0.04939 0.0247-0.1729 0.05998-0.1235 0.03881-0.2822 0.03881-0.187 0-0.3105-0.04586-0.12-0.04939-0.194-0.1446-0.07409-0.09526-0.1058-0.2328-0.02822-0.1411-0.02822-0.3246v-1.637l0.3281-0.05645z" style="font-feature-settings:normal;font-variant-caps:normal;font-variant-ligatures:normal;font-variant-numeric:normal"/>
  <path d="m35.57 64.56q0 0.2187-0.0635 0.3951t-0.1799 0.3034q-0.1129 0.127-0.2717 0.1976-0.1588 0.06703-0.3457 0.06703t-0.3457-0.06703q-0.1588-0.07056-0.2752-0.1976-0.1129-0.127-0.1764-0.3034-0.0635-0.1764-0.0635-0.3951 0-0.2152 0.0635-0.3916 0.0635-0.1799 0.1764-0.3069 0.1164-0.127 0.2752-0.194 0.1588-0.07056 0.3457-0.07056t0.3457 0.07056q0.1588 0.06703 0.2717 0.194 0.1164 0.127 0.1799 0.3069 0.0635 0.1764 0.0635 0.3916zm-0.3422 0q0-0.3105-0.1411-0.4904-0.1376-0.1835-0.3775-0.1835t-0.381 0.1835q-0.1376 0.1799-0.1376 0.4904t0.1376 0.4939q0.1411 0.1799 0.381 0.1799t0.3775-0.1799q0.1411-0.1835 0.1411-0.4939z" style="font-feature-settings:normal;font-variant-caps:normal;font-variant-ligatures:normal;font-variant-numeric:normal"/>
 </g>
 <g fill="#808080" stroke-width=".2646" style="font-feature-settings:normal;font-variant-caps:normal;font-variant-ligatures:normal;font-variant-numeric:normal" aria-label="Centralizzato">
  <path d="m86.35 65.53q-0.2575 0-0.4692-0.08467t-0.3634-0.247q-0.1517-0.1623-0.2364-0.3987-0.08114-0.2399-0.08114-0.5468t0.09173-0.5433q0.09526-0.2399 0.254-0.4022 0.1588-0.1623 0.3704-0.247 0.2117-0.08467 0.4516-0.08467 0.1517 0 0.2717 0.02117 0.1235 0.02117 0.2117 0.04939 0.09173 0.02822 0.1482 0.05645 0.05645 0.02822 0.07762 0.04234l-0.09878 0.2822q-0.03175-0.02117-0.09173-0.04586-0.05998-0.0247-0.1376-0.04939-0.07409-0.0247-0.1658-0.03881-0.0882-0.01764-0.1799-0.01764-0.194 0-0.3493 0.06703t-0.2646 0.194q-0.1094 0.127-0.1693 0.3105-0.05645 0.1799-0.05645 0.4057 0 0.2187 0.04939 0.3987 0.05292 0.1799 0.1552 0.3105 0.1023 0.127 0.254 0.1976 0.1552 0.07056 0.3599 0.07056 0.2364 0 0.3916-0.04939t0.2328-0.0882l0.0882 0.2822q-0.0247 0.01764-0.0882 0.04586-0.0635 0.0247-0.1588 0.04939-0.09526 0.0247-0.2223 0.04234-0.127 0.01764-0.2752 0.01764z" style="font-feature-settings:normal;font-variant-caps:normal;font-variant-ligatures:normal;font-variant-numeric:normal"/>
  <path d="m87.31 64.56q0-0.2434 0.07056-0.4234 0.07056-0.1835 0.187-0.3034t0.2681-0.1799q0.1517-0.05998 0.3105-0.05998 0.3704 0 0.568 0.2328 0.1976 0.2293 0.1976 0.7021 0 0.02117 0 0.05645 0 0.03175-0.0035 0.05998h-1.256q0.02117 0.2858 0.1658 0.4339 0.1446 0.1482 0.4516 0.1482 0.1729 0 0.2893-0.02822 0.12-0.03175 0.1799-0.05998l0.04586 0.2752q-0.05998 0.03175-0.2117 0.06703-0.1482 0.03528-0.3387 0.03528-0.2399 0-0.4163-0.07056-0.1729-0.07409-0.2858-0.2011-0.1129-0.127-0.1693-0.2999-0.05292-0.1764-0.05292-0.3846zm1.259-0.1799q0.0035-0.2223-0.1129-0.3634-0.1129-0.1446-0.314-0.1446-0.1129 0-0.2011 0.04586-0.08467 0.04234-0.1446 0.1129-0.05998 0.07056-0.09526 0.1623-0.03175 0.09173-0.04234 0.187z" style="font-feature-settings:normal;font-variant-caps:normal;font-variant-ligatures:normal;font-variant-numeric:normal"/>
  <path d="m89.38 63.69q0.1129-0.02822 0.2999-0.05998 0.187-0.03175 0.4304-0.03175 0.2187 0 0.3634 0.0635 0.1446 0.05998 0.2293 0.1729 0.0882 0.1094 0.1235 0.2646t0.03528 0.3422v1.03h-0.3281v-0.9596q0-0.1693-0.0247-0.2893-0.02117-0.12-0.07409-0.194-0.05292-0.07409-0.1411-0.1058-0.0882-0.03528-0.2187-0.03528-0.05292 0-0.1094 0.0035-0.05645 0.0035-0.1094 0.01058-0.04939 0.0035-0.09173 0.01058-0.03881 0.0071-0.05645 0.01058v1.549h-0.3281z" style="font-feature-settings:normal;font-variant-caps:normal;font-variant-ligatures:normal;font-variant-numeric:normal"/>
  <path d="m91.71 63.64h0.695v0.2752h-0.695v0.8467q0 0.1376 0.02117 0.2293 0.02117 0.0882 0.0635 0.1411 0.04234 0.04939 0.1058 0.07056t0.1482 0.02117q0.1482 0 0.2364-0.03175 0.09173-0.03528 0.127-0.04939l0.0635 0.2717q-0.04939 0.0247-0.1729 0.05998-0.1235 0.03881-0.2822 0.03881-0.187 0-0.3105-0.04586-0.12-0.04939-0.194-0.1446-0.07409-0.09526-0.1058-0.2328-0.02822-0.1411-0.02822-0.3246v-1.637l0.3281-0.05645z" style="font-feature-settings:normal;font-variant-caps:normal;font-variant-ligatures:normal;font-variant-numeric:normal"/>
  <path d="m93.5 63.6q0.04234 0 0.09526 0.0071 0.05645 0.0035 0.1094 0.01411 0.05292 0.0071 0.09526 0.01764 0.04586 0.0071 0.06703 0.01411l-0.05645 0.2858q-0.03881-0.01411-0.1305-0.03175-0.0882-0.02117-0.2293-0.02117-0.09173 0-0.1835 0.02117-0.0882 0.01764-0.1164 0.0247v1.542h-0.3281v-1.757q0.1164-0.04234 0.2893-0.07762 0.1729-0.03881 0.3881-0.03881z" style="font-feature-settings:normal;font-variant-caps:normal;font-variant-ligatures:normal;font-variant-numeric:normal"/>
  <path d="m94.81 65.24q0.1164 0 0.2046-0.0035 0.09173-0.0071 0.1517-0.02117v-0.5468q-0.03528-0.01764-0.1164-0.02822-0.07762-0.01411-0.1905-0.01411-0.07409 0-0.1588 0.01058-0.08114 0.01058-0.1517 0.04586-0.06703 0.03175-0.1129 0.09173-0.04586 0.05645-0.04586 0.1517 0 0.1764 0.1129 0.247 0.1129 0.06703 0.3069 0.06703zm-0.02822-1.644q0.1976 0 0.3316 0.05292 0.1376 0.04939 0.2187 0.1446 0.08467 0.09173 0.12 0.2223 0.03528 0.127 0.03528 0.2822v1.147q-0.04234 0.0071-0.12 0.02117-0.07409 0.01058-0.1693 0.02117-0.09526 0.01058-0.2082 0.01764-0.1094 0.01058-0.2187 0.01058-0.1552 0-0.2858-0.03175t-0.2258-0.09878q-0.09526-0.07056-0.1482-0.1835-0.05292-0.1129-0.05292-0.2717 0-0.1517 0.05998-0.2611 0.0635-0.1094 0.1693-0.1764 0.1058-0.06703 0.247-0.09878t0.2964-0.03175q0.04939 0 0.1023 0.0071 0.05292 0.0035 0.09878 0.01411 0.04939 0.0071 0.08467 0.01411 0.03528 0.0071 0.04939 0.01058v-0.09173q0-0.08114-0.01764-0.1588-0.01764-0.08114-0.0635-0.1411-0.04586-0.0635-0.127-0.09878-0.07762-0.03881-0.2046-0.03881-0.1623 0-0.2858 0.0247-0.12 0.02117-0.1799 0.04586l-0.03881-0.2717q0.0635-0.02822 0.2117-0.05292 0.1482-0.02822 0.321-0.02822z" style="font-feature-settings:normal;font-variant-caps:normal;font-variant-ligatures:normal;font-variant-numeric:normal"/>
  <path d="m96.58 65.51q-0.3034-0.0071-0.4304-0.1305-0.127-0.1235-0.127-0.3846v-2.201l0.3281-0.05645v2.205q0 0.08114 0.01411 0.1341 0.01411 0.05292 0.04586 0.08467t0.08467 0.04939q0.05292 0.01411 0.1305 0.0247z" style="font-feature-settings:normal;font-variant-caps:normal;font-variant-ligatures:normal;font-variant-numeric:normal"/>
  <path d="m97.32 65.47h-0.3281v-1.835h0.3281zm-0.1658-2.166q-0.0882 0-0.1517-0.05645-0.05998-0.05998-0.05998-0.1588t0.05998-0.1552q0.0635-0.05998 0.1517-0.05998 0.0882 0 0.1482 0.05998 0.0635 0.05645 0.0635 0.1552 0 0.09878-0.0635 0.1588-0.05998 0.05645-0.1482 0.05645z" style="font-feature-settings:normal;font-variant-caps:normal;font-variant-ligatures:normal;font-variant-numeric:normal"/>
  <path d="m99.1 63.89q-0.07409 0.08114-0.1976 0.2293-0.12 0.1482-0.2611 0.3281-0.1376 0.1799-0.2787 0.3775-0.1376 0.1976-0.2434 0.3775h1.009v0.2752h-1.401v-0.2187q0.08467-0.1552 0.2082-0.3422 0.1235-0.187 0.2575-0.3704 0.1376-0.187 0.2646-0.3493 0.1305-0.1658 0.2258-0.2787h-0.9067v-0.2752h1.323z" style="font-feature-settings:normal;font-variant-caps:normal;font-variant-ligatures:normal;font-variant-numeric:normal"/>
  <path d="m100.8 63.89q-0.0741 0.08114-0.1976 0.2293-0.12 0.1482-0.2611 0.3281-0.1376 0.1799-0.2787 0.3775-0.1376 0.1976-0.2434 0.3775h1.009v0.2752h-1.401v-0.2187q0.08467-0.1552 0.2082-0.3422 0.1235-0.187 0.2575-0.3704 0.1376-0.187 0.2646-0.3493 0.1305-0.1658 0.2258-0.2787h-0.9067v-0.2752h1.323z" style="font-feature-settings:normal;font-variant-caps:normal;font-variant-ligatures:normal;font-variant-numeric:normal"/>
  <path d="m101.8 65.24q0.1164 0 0.2046-0.0035 0.0917-0.0071 0.1517-0.02117v-0.5468q-0.0353-0.01764-0.1164-0.02822-0.0776-0.01411-0.1905-0.01411-0.0741 0-0.1588 0.01058-0.0811 0.01058-0.1517 0.04586-0.067 0.03175-0.1129 0.09173-0.0459 0.05645-0.0459 0.1517 0 0.1764 0.1129 0.247 0.1129 0.06703 0.3069 0.06703zm-0.0282-1.644q0.1976 0 0.3316 0.05292 0.1376 0.04939 0.2187 0.1446 0.0847 0.09173 0.12 0.2223 0.0353 0.127 0.0353 0.2822v1.147q-0.0423 0.0071-0.12 0.02117-0.0741 0.01058-0.1693 0.02117-0.0953 0.01058-0.2082 0.01764-0.1094 0.01058-0.2187 0.01058-0.1552 0-0.2858-0.03175-0.1305-0.03175-0.2258-0.09878-0.0953-0.07056-0.1482-0.1835-0.0529-0.1129-0.0529-0.2717 0-0.1517 0.06-0.2611 0.0635-0.1094 0.1693-0.1764 0.1058-0.06703 0.247-0.09878t0.2964-0.03175q0.0494 0 0.1023 0.0071 0.0529 0.0035 0.0988 0.01411 0.0494 0.0071 0.0847 0.01411 0.0353 0.0071 0.0494 0.01058v-0.09173q0-0.08114-0.0176-0.1588-0.0176-0.08114-0.0635-0.1411-0.0459-0.0635-0.127-0.09878-0.0776-0.03881-0.2046-0.03881-0.1623 0-0.2858 0.0247-0.12 0.02117-0.1799 0.04586l-0.0388-0.2717q0.0635-0.02822 0.2117-0.05292 0.1482-0.02822 0.321-0.02822z" style="font-feature-settings:normal;font-variant-caps:normal;font-variant-ligatures:normal;font-variant-numeric:normal"/>
  <path d="m103.4 63.64h0.695v0.2752h-0.695v0.8467q0 0.1376 0.0212 0.2293 0.0212 0.0882 0.0635 0.1411 0.0423 0.04939 0.1058 0.07056 0.0635 0.02117 0.1482 0.02117 0.1482 0 0.2364-0.03175 0.0917-0.03528 0.127-0.04939l0.0635 0.2717q-0.0494 0.0247-0.1729 0.05998-0.1235 0.03881-0.2822 0.03881-0.187 0-0.3105-0.04586-0.12-0.04939-0.194-0.1446-0.0741-0.09526-0.1058-0.2328-0.0282-0.1411-0.0282-0.3246v-1.637l0.3281-0.05645z" style="font-feature-settings:normal;font-variant-caps:normal;font-variant-ligatures:normal;font-variant-numeric:normal"/>
  <path d="m106 64.56q0 0.2187-0.0635 0.3951t-0.1799 0.3034q-0.1129 0.127-0.2717 0.1976-0.1588 0.06703-0.3457 0.06703-0.187 0-0.3458-0.06703-0.1588-0.07056-0.2752-0.1976-0.1129-0.127-0.1764-0.3034t-0.0635-0.3951q0-0.2152 0.0635-0.3916 0.0635-0.1799 0.1764-0.3069 0.1164-0.127 0.2752-0.194 0.1588-0.07056 0.3458-0.07056 0.187 0 0.3457 0.07056 0.1588 0.06703 0.2717 0.194 0.1164 0.127 0.1799 0.3069 0.0635 0.1764 0.0635 0.3916zm-0.3422 0q0-0.3105-0.1411-0.4904-0.1376-0.1835-0.3775-0.1835-0.2399 0-0.381 0.1835-0.1376 0.1799-0.1376 0.4904t0.1376 0.4939q0.1411 0.1799 0.381 0.1799 0.2399 0 0.3775-0.1799 0.1411-0.1835 0.1411-0.4939z" style="font-feature-settings:normal;font-variant-caps:normal;font-variant-ligatures:normal;font-variant-numeric:normal"/>
 </g>
</svg>
