<svg width="458.8" height="247.7" version="1.1" viewBox="0 0 121.4 65.53" xmlns="http://www.w3.org/2000/svg">
	<g stroke="#fff">
		<g transform="translate(-60.79,-21.06)" fill="none" stroke-width=".5">
			<path d="m109 45.12-19.47 6.943"/>
			<path d="m78.08 30.33 21.55-2.969"/>
			<path d="m67.09 49.24 10.98-18.91"/>
			<path d="m67.09 49.24 22.45 2.829"/>
			<path d="m78.08 30.33 11.47 21.74"/>
			<path d="m109 45.12-9.388-17.76"/>
			<path d="m106.6 69.08-17.04-17.01"/>
			<path d="m84.48 71.35 5.066-19.28"/>
		</g>
		<g transform="translate(0,-4.013e-4)" fill="#fff" stroke-width=".5">
			<circle cx="23.68" cy="50.28" r="6.048"/>
			<circle cx="48.23" cy="24.06" r="6.048"/>
			<circle cx="17.28" cy="9.267" r="6.048"/>
			<circle cx="6.298" cy="28.17" r="6.048"/>
			<circle cx="45.8" cy="48.02" r="6.048"/>
		</g>
		<g transform="translate(-62.53,-17.86)">
			<circle cx="91.28" cy="48.86" r="6.048" fill="#fff" stroke-width=".5"/>
		</g>
		<g transform="translate(-61.33,-25.74)">
			<circle cx="100.2" cy="32.04" r="6.048" fill="#fff" stroke-width=".5"/>
		</g>
	</g>
	<g transform="matrix(.01772 0 0 .01772 44 19.83)">
		<g fill="#020202">
			<path d="m269.6 91.58h-239.8c-16.46 0-29.84 13.38-29.84 29.84v162.7c0 16.46 13.38 29.84 29.84 29.84h80.36v39.37h-12.67c-8.856 0-16.02 7.165-16.02 16.02s7.165 16.02 16.02 16.02h104.4c8.855 0 16.02-7.167 16.02-16.02 0-8.857-7.167-16.02-16.02-16.02h-12.69v-39.37h80.38c16.46 0 29.84-13.38 29.84-29.84v-162.7c-1e-3 -16.46-13.38-29.84-29.84-29.84zm-2.206 190.4h-235.4v-158.3h235.4z"/>
			<path d="m460.3 134.1h-104.2c-9.2 0-16.65 7.448-16.65 16.65v218c0 9.2 7.448 16.65 16.65 16.65h104.2c9.201 0 16.65-7.448 16.65-16.65v-218c1e-3 -9.201-7.446-16.65-16.65-16.65zm-52.13 184.2c-6.978 0-12.64-5.663-12.64-12.64 0-6.978 5.663-12.64 12.64-12.64 6.979 0 12.64 5.664 12.64 12.64 0 6.98-5.664 12.64-12.64 12.64zm45.41-67c0 4.977-4.036 9.013-9.013 9.013h-72.76c-4.976 0-9.013-4.036-9.013-9.013v-21.4c0-4.976 4.037-9.013 9.013-9.013h72.76c4.977 0 9.013 4.037 9.013 9.013zm0-60.14c0 4.977-4.036 9.013-9.013 9.013h-72.76c-4.976 0-9.013-4.036-9.013-9.013v-21.4c0-4.977 4.037-9.013 9.013-9.013h72.76c4.977 0 9.013 4.036 9.013 9.013z"/>
		</g>
	</g>
	<g transform="matrix(.01772 0 0 .01772 13.06 5.04)">
		<g fill="#020202">
			<path d="m269.6 91.58h-239.8c-16.46 0-29.84 13.38-29.84 29.84v162.7c0 16.46 13.38 29.84 29.84 29.84h80.36v39.37h-12.67c-8.856 0-16.02 7.165-16.02 16.02s7.165 16.02 16.02 16.02h104.4c8.855 0 16.02-7.167 16.02-16.02 0-8.857-7.167-16.02-16.02-16.02h-12.69v-39.37h80.38c16.46 0 29.84-13.38 29.84-29.84v-162.7c-1e-3 -16.46-13.38-29.84-29.84-29.84zm-2.206 190.4h-235.4v-158.3h235.4z"/>
			<path d="m460.3 134.1h-104.2c-9.2 0-16.65 7.448-16.65 16.65v218c0 9.2 7.448 16.65 16.65 16.65h104.2c9.201 0 16.65-7.448 16.65-16.65v-218c1e-3 -9.201-7.446-16.65-16.65-16.65zm-52.13 184.2c-6.978 0-12.64-5.663-12.64-12.64 0-6.978 5.663-12.64 12.64-12.64 6.979 0 12.64 5.664 12.64 12.64 0 6.98-5.664 12.64-12.64 12.64zm45.41-67c0 4.977-4.036 9.013-9.013 9.013h-72.76c-4.976 0-9.013-4.036-9.013-9.013v-21.4c0-4.976 4.037-9.013 9.013-9.013h72.76c4.977 0 9.013 4.037 9.013 9.013zm0-60.14c0 4.977-4.036 9.013-9.013 9.013h-72.76c-4.976 0-9.013-4.036-9.013-9.013v-21.4c0-4.977 4.037-9.013 9.013-9.013h72.76c4.977 0 9.013 4.036 9.013 9.013z"/>
		</g>
	</g>
	<g transform="matrix(.01772 0 0 .01772 19.46 46.06)">
		<g fill="#020202">
			<path d="m269.6 91.58h-239.8c-16.46 0-29.84 13.38-29.84 29.84v162.7c0 16.46 13.38 29.84 29.84 29.84h80.36v39.37h-12.67c-8.856 0-16.02 7.165-16.02 16.02s7.165 16.02 16.02 16.02h104.4c8.855 0 16.02-7.167 16.02-16.02 0-8.857-7.167-16.02-16.02-16.02h-12.69v-39.37h80.38c16.46 0 29.84-13.38 29.84-29.84v-162.7c-1e-3 -16.46-13.38-29.84-29.84-29.84zm-2.206 190.4h-235.4v-158.3h235.4z"/>
			<path d="m460.3 134.1h-104.2c-9.2 0-16.65 7.448-16.65 16.65v218c0 9.2 7.448 16.65 16.65 16.65h104.2c9.201 0 16.65-7.448 16.65-16.65v-218c1e-3 -9.201-7.446-16.65-16.65-16.65zm-52.13 184.2c-6.978 0-12.64-5.663-12.64-12.64 0-6.978 5.663-12.64 12.64-12.64 6.979 0 12.64 5.664 12.64 12.64 0 6.98-5.664 12.64-12.64 12.64zm45.41-67c0 4.977-4.036 9.013-9.013 9.013h-72.76c-4.976 0-9.013-4.036-9.013-9.013v-21.4c0-4.976 4.037-9.013 9.013-9.013h72.76c4.977 0 9.013 4.037 9.013 9.013zm0-60.14c0 4.977-4.036 9.013-9.013 9.013h-72.76c-4.976 0-9.013-4.036-9.013-9.013v-21.4c0-4.977 4.037-9.013 9.013-9.013h72.76c4.977 0 9.013 4.036 9.013 9.013z"/>
		</g>
	</g>
	<g transform="matrix(5.38e-4,0,0,-5.38e-4,2.854,30.71)">
		<path d="m2280 9441c-674-3-1233-10-1243-15-10-4-21-16-25-25s-5-522-2-1141 6-2206 8-3527c1-1451 6-2412 11-2427 6-13 16-28 23-32 9-6 6-10-10-14-18-4-79-106-293-490-149-267-293-528-321-580s-123-220-210-375c-88-154-174-304-190-333-29-52-30-56-26-160 5-125 22-169 77-200 20-11 46-34 58-50 14-19 42-37 75-49 51-17 252-18 6178-18h6125l74 22c77 23 88 30 133 78 55 58 71 102 76 206 3 80 1 104-15 140-24 53-127 227-234 394-87 136-569 917-755 1222-121 198-123 203-109 230 13 24 15 469 15 3433 0 2335 3 3441 11 3519 12 130 8 154-25 177-22 14-405 16-4103 18-2243 2-4629 0-5303-3zm8930-3531v-2740h-9760v5480h9760z"/>
	</g>
	<g transform="matrix(5.38e-4,0,0,-5.38e-4,42.35,50.56)">
		<path d="m2280 9441c-674-3-1233-10-1243-15-10-4-21-16-25-25s-5-522-2-1141 6-2206 8-3527c1-1451 6-2412 11-2427 6-13 16-28 23-32 9-6 6-10-10-14-18-4-79-106-293-490-149-267-293-528-321-580s-123-220-210-375c-88-154-174-304-190-333-29-52-30-56-26-160 5-125 22-169 77-200 20-11 46-34 58-50 14-19 42-37 75-49 51-17 252-18 6178-18h6125l74 22c77 23 88 30 133 78 55 58 71 102 76 206 3 80 1 104-15 140-24 53-127 227-234 394-87 136-569 917-755 1222-121 198-123 203-109 230 13 24 15 469 15 3433 0 2335 3 3441 11 3519 12 130 8 154-25 177-22 14-405 16-4103 18-2243 2-4629 0-5303-3zm8930-3531v-2740h-9760v5480h9760z"/>
	</g>
	<g transform="matrix(.01772 0 0 .01772 24.52 26.78)">
		<g fill="#020202">
			<path d="m269.6 91.58h-239.8c-16.46 0-29.84 13.38-29.84 29.84v162.7c0 16.46 13.38 29.84 29.84 29.84h80.36v39.37h-12.67c-8.856 0-16.02 7.165-16.02 16.02s7.165 16.02 16.02 16.02h104.4c8.855 0 16.02-7.167 16.02-16.02 0-8.857-7.167-16.02-16.02-16.02h-12.69v-39.37h80.38c16.46 0 29.84-13.38 29.84-29.84v-162.7c-1e-3 -16.46-13.38-29.84-29.84-29.84zm-2.206 190.4h-235.4v-158.3h235.4z"/>
			<path d="m460.3 134.1h-104.2c-9.2 0-16.65 7.448-16.65 16.65v218c0 9.2 7.448 16.65 16.65 16.65h104.2c9.201 0 16.65-7.448 16.65-16.65v-218c1e-3 -9.201-7.446-16.65-16.65-16.65zm-52.13 184.2c-6.978 0-12.64-5.663-12.64-12.64 0-6.978 5.663-12.64 12.64-12.64 6.979 0 12.64 5.664 12.64 12.64 0 6.98-5.664 12.64-12.64 12.64zm45.41-67c0 4.977-4.036 9.013-9.013 9.013h-72.76c-4.976 0-9.013-4.036-9.013-9.013v-21.4c0-4.976 4.037-9.013 9.013-9.013h72.76c4.977 0 9.013 4.037 9.013 9.013zm0-60.14c0 4.977-4.036 9.013-9.013 9.013h-72.76c-4.976 0-9.013-4.036-9.013-9.013v-21.4c0-4.977 4.037-9.013 9.013-9.013h72.76c4.977 0 9.013 4.036 9.013 9.013z"/>
		</g>
	</g>
	<g transform="matrix(5.38e-4,0,0,-5.38e-4,35.39,8.839)">
		<path d="m2280 9441c-674-3-1233-10-1243-15-10-4-21-16-25-25s-5-522-2-1141 6-2206 8-3527c1-1451 6-2412 11-2427 6-13 16-28 23-32 9-6 6-10-10-14-18-4-79-106-293-490-149-267-293-528-321-580s-123-220-210-375c-88-154-174-304-190-333-29-52-30-56-26-160 5-125 22-169 77-200 20-11 46-34 58-50 14-19 42-37 75-49 51-17 252-18 6178-18h6125l74 22c77 23 88 30 133 78 55 58 71 102 76 206 3 80 1 104-15 140-24 53-127 227-234 394-87 136-569 917-755 1222-121 198-123 203-109 230 13 24 15 469 15 3433 0 2335 3 3441 11 3519 12 130 8 154-25 177-22 14-405 16-4103 18-2243 2-4629 0-5303-3zm8930-3531v-2740h-9760v5480h9760z"/>
	</g>
	<g transform="translate(0,-4.013e-4)" stroke="#fff">
		<g transform="translate(5.061,-22.66)">
			<circle cx="91.28" cy="48.86" r="6.048" fill="#fff" stroke-width=".5"/>
		</g>
		<g transform="translate(-8.331,-41.52)">
			<circle cx="91.28" cy="48.86" r="6.048" fill="#fff" stroke-width=".5"/>
		</g>
		<g transform="translate(17.9,-40.4)">
			<circle cx="91.28" cy="48.86" r="6.048" fill="#fff" stroke-width=".5"/>
		</g>
		<g transform="translate(17.9,-1.785)">
			<circle cx="91.28" cy="48.86" r="6.048" fill="#fff" stroke-width=".5"/>
		</g>
		<g transform="translate(-1.523,-3.012)">
			<circle cx="91.28" cy="48.86" r="6.048" fill="#fff" stroke-width=".5"/>
		</g>
		<g transform="translate(-15.14,-14.73)">
			<circle cx="91.28" cy="48.86" r="6.048" fill="#fff" stroke-width=".5"/>
		</g>
		<g transform="translate(23.81,-20.76)">
			<circle cx="91.28" cy="48.86" r="6.048" fill="#fff" stroke-width=".5"/>
		</g>
		<g transform="translate(3.151,-2.003)" fill="none" stroke-width=".5">
			<path d="m72.99 36.13 20.2-7.924"/>
			<path d="m79.8 9.346 13.39 18.86"/>
			<path d="m106 10.46-12.84 17.75"/>
			<path d="m111.9 30.1-18.75-1.897"/>
			<path d="m106 49.08-12.84-20.87"/>
			<path d="m86.61 47.85 6.585-19.64"/>
		</g>
	</g>
	<g transform="matrix(.01772 0 0 .01772 78.72 3.115)">
		<g fill="#020202">
			<path d="m269.6 91.58h-239.8c-16.46 0-29.84 13.38-29.84 29.84v162.7c0 16.46 13.38 29.84 29.84 29.84h80.36v39.37h-12.67c-8.856 0-16.02 7.165-16.02 16.02s7.165 16.02 16.02 16.02h104.4c8.855 0 16.02-7.167 16.02-16.02 0-8.857-7.167-16.02-16.02-16.02h-12.69v-39.37h80.38c16.46 0 29.84-13.38 29.84-29.84v-162.7c-1e-3 -16.46-13.38-29.84-29.84-29.84zm-2.206 190.4h-235.4v-158.3h235.4z"/>
			<path d="m460.3 134.1h-104.2c-9.2 0-16.65 7.448-16.65 16.65v218c0 9.2 7.448 16.65 16.65 16.65h104.2c9.201 0 16.65-7.448 16.65-16.65v-218c1e-3 -9.201-7.446-16.65-16.65-16.65zm-52.13 184.2c-6.978 0-12.64-5.663-12.64-12.64 0-6.978 5.663-12.64 12.64-12.64 6.979 0 12.64 5.664 12.64 12.64 0 6.98-5.664 12.64-12.64 12.64zm45.41-67c0 4.977-4.036 9.013-9.013 9.013h-72.76c-4.976 0-9.013-4.036-9.013-9.013v-21.4c0-4.976 4.037-9.013 9.013-9.013h72.76c4.977 0 9.013 4.037 9.013 9.013zm0-60.14c0 4.977-4.036 9.013-9.013 9.013h-72.76c-4.976 0-9.013-4.036-9.013-9.013v-21.4c0-4.977 4.037-9.013 9.013-9.013h72.76c4.977 0 9.013 4.036 9.013 9.013z"/>
		</g>
	</g>
	<g transform="matrix(.01772 0 0 .01772 85.53 41.62)">
		<g fill="#020202">
			<path d="m269.6 91.58h-239.8c-16.46 0-29.84 13.38-29.84 29.84v162.7c0 16.46 13.38 29.84 29.84 29.84h80.36v39.37h-12.67c-8.856 0-16.02 7.165-16.02 16.02s7.165 16.02 16.02 16.02h104.4c8.855 0 16.02-7.167 16.02-16.02 0-8.857-7.167-16.02-16.02-16.02h-12.69v-39.37h80.38c16.46 0 29.84-13.38 29.84-29.84v-162.7c-1e-3 -16.46-13.38-29.84-29.84-29.84zm-2.206 190.4h-235.4v-158.3h235.4z"/>
			<path d="m460.3 134.1h-104.2c-9.2 0-16.65 7.448-16.65 16.65v218c0 9.2 7.448 16.65 16.65 16.65h104.2c9.201 0 16.65-7.448 16.65-16.65v-218c1e-3 -9.201-7.446-16.65-16.65-16.65zm-52.13 184.2c-6.978 0-12.64-5.663-12.64-12.64 0-6.978 5.663-12.64 12.64-12.64 6.979 0 12.64 5.664 12.64 12.64 0 6.98-5.664 12.64-12.64 12.64zm45.41-67c0 4.977-4.036 9.013-9.013 9.013h-72.76c-4.976 0-9.013-4.036-9.013-9.013v-21.4c0-4.976 4.037-9.013 9.013-9.013h72.76c4.977 0 9.013 4.037 9.013 9.013zm0-60.14c0 4.977-4.036 9.013-9.013 9.013h-72.76c-4.976 0-9.013-4.036-9.013-9.013v-21.4c0-4.977 4.037-9.013 9.013-9.013h72.76c4.977 0 9.013 4.036 9.013 9.013z"/>
		</g>
	</g>
	<g transform="matrix(.01772 0 0 .01772 105 42.85)">
		<g fill="#020202">
			<path d="m269.6 91.58h-239.8c-16.46 0-29.84 13.38-29.84 29.84v162.7c0 16.46 13.38 29.84 29.84 29.84h80.36v39.37h-12.67c-8.856 0-16.02 7.165-16.02 16.02s7.165 16.02 16.02 16.02h104.4c8.855 0 16.02-7.167 16.02-16.02 0-8.857-7.167-16.02-16.02-16.02h-12.69v-39.37h80.38c16.46 0 29.84-13.38 29.84-29.84v-162.7c-1e-3 -16.46-13.38-29.84-29.84-29.84zm-2.206 190.4h-235.4v-158.3h235.4z"/>
			<path d="m460.3 134.1h-104.2c-9.2 0-16.65 7.448-16.65 16.65v218c0 9.2 7.448 16.65 16.65 16.65h104.2c9.201 0 16.65-7.448 16.65-16.65v-218c1e-3 -9.201-7.446-16.65-16.65-16.65zm-52.13 184.2c-6.978 0-12.64-5.663-12.64-12.64 0-6.978 5.663-12.64 12.64-12.64 6.979 0 12.64 5.664 12.64 12.64 0 6.98-5.664 12.64-12.64 12.64zm45.41-67c0 4.977-4.036 9.013-9.013 9.013h-72.76c-4.976 0-9.013-4.036-9.013-9.013v-21.4c0-4.976 4.037-9.013 9.013-9.013h72.76c4.977 0 9.013 4.037 9.013 9.013zm0-60.14c0 4.977-4.036 9.013-9.013 9.013h-72.76c-4.976 0-9.013-4.036-9.013-9.013v-21.4c0-4.977 4.037-9.013 9.013-9.013h72.76c4.977 0 9.013 4.036 9.013 9.013z"/>
		</g>
	</g>
	<g transform="matrix(.01772 0 0 .01772 110.9 23.87)">
		<g fill="#020202">
			<path d="m269.6 91.58h-239.8c-16.46 0-29.84 13.38-29.84 29.84v162.7c0 16.46 13.38 29.84 29.84 29.84h80.36v39.37h-12.67c-8.856 0-16.02 7.165-16.02 16.02s7.165 16.02 16.02 16.02h104.4c8.855 0 16.02-7.167 16.02-16.02 0-8.857-7.167-16.02-16.02-16.02h-12.69v-39.37h80.38c16.46 0 29.84-13.38 29.84-29.84v-162.7c-1e-3 -16.46-13.38-29.84-29.84-29.84zm-2.206 190.4h-235.4v-158.3h235.4z"/>
			<path d="m460.3 134.1h-104.2c-9.2 0-16.65 7.448-16.65 16.65v218c0 9.2 7.448 16.65 16.65 16.65h104.2c9.201 0 16.65-7.448 16.65-16.65v-218c1e-3 -9.201-7.446-16.65-16.65-16.65zm-52.13 184.2c-6.978 0-12.64-5.663-12.64-12.64 0-6.978 5.663-12.64 12.64-12.64 6.979 0 12.64 5.664 12.64 12.64 0 6.98-5.664 12.64-12.64 12.64zm45.41-67c0 4.977-4.036 9.013-9.013 9.013h-72.76c-4.976 0-9.013-4.036-9.013-9.013v-21.4c0-4.976 4.037-9.013 9.013-9.013h72.76c4.977 0 9.013 4.037 9.013 9.013zm0-60.14c0 4.977-4.036 9.013-9.013 9.013h-72.76c-4.976 0-9.013-4.036-9.013-9.013v-21.4c0-4.977 4.037-9.013 9.013-9.013h72.76c4.977 0 9.013 4.036 9.013 9.013z"/>
		</g>
	</g>
	<g transform="matrix(5.38e-4,0,0,-5.38e-4,105.7,11)">
		<path d="m2280 9441c-674-3-1233-10-1243-15-10-4-21-16-25-25s-5-522-2-1141 6-2206 8-3527c1-1451 6-2412 11-2427 6-13 16-28 23-32 9-6 6-10-10-14-18-4-79-106-293-490-149-267-293-528-321-580s-123-220-210-375c-88-154-174-304-190-333-29-52-30-56-26-160 5-125 22-169 77-200 20-11 46-34 58-50 14-19 42-37 75-49 51-17 252-18 6178-18h6125l74 22c77 23 88 30 133 78 55 58 71 102 76 206 3 80 1 104-15 140-24 53-127 227-234 394-87 136-569 917-755 1222-121 198-123 203-109 230 13 24 15 469 15 3433 0 2335 3 3441 11 3519 12 130 8 154-25 177-22 14-405 16-4103 18-2243 2-4629 0-5303-3zm8930-3531v-2740h-9760v5480h9760z"/>
	</g>
	<g transform="matrix(5.38e-4,0,0,-5.38e-4,72.7,36.67)">
		<path d="m2280 9441c-674-3-1233-10-1243-15-10-4-21-16-25-25s-5-522-2-1141 6-2206 8-3527c1-1451 6-2412 11-2427 6-13 16-28 23-32 9-6 6-10-10-14-18-4-79-106-293-490-149-267-293-528-321-580s-123-220-210-375c-88-154-174-304-190-333-29-52-30-56-26-160 5-125 22-169 77-200 20-11 46-34 58-50 14-19 42-37 75-49 51-17 252-18 6178-18h6125l74 22c77 23 88 30 133 78 55 58 71 102 76 206 3 80 1 104-15 140-24 53-127 227-234 394-87 136-569 917-755 1222-121 198-123 203-109 230 13 24 15 469 15 3433 0 2335 3 3441 11 3519 12 130 8 154-25 177-22 14-405 16-4103 18-2243 2-4629 0-5303-3zm8930-3531v-2740h-9760v5480h9760z"/>
	</g>
	<g transform="matrix(.008704 0 0 .008704 91.99 21.85)">
		<path d="m624.6 118.3h-249.2c-8.8 0-15.9 7.1-15.9 15.9v731.6c0 8.8 7.1 15.9 15.9 15.9h249.2c8.8 0 15.9-7.1 15.9-15.9v-731.6c-0.1-8.8-7.2-15.9-15.9-15.9zm-124.6 623.9c-30.6 0-55.4-24.8-55.4-55.4s24.8-55.4 55.4-55.4 55.4 24.8 55.4 55.4-24.8 55.4-55.4 55.4zm102-283c0 8.8-7.1 15.9-15.9 15.9h-172.2c-8.8 0-15.9-7.1-15.9-15.9v-15.9c0-8.8 7.1-15.9 15.9-15.9h172.2c8.8 0 15.9 7.1 15.9 15.9zm0-79.3c0 8.8-7.1 15.9-15.9 15.9h-172.2c-8.8 0-15.9-7.1-15.9-15.9v-15.9c0-8.8 7.1-15.9 15.9-15.9h172.2c8.8 0 15.9 7.1 15.9 15.9zm0-79.3c0 8.8-7.1 15.9-15.9 15.9h-172.2c-8.8 0-15.9-7.1-15.9-15.9v-15.9c0-8.8 7.1-15.9 15.9-15.9h172.2c8.8 0 15.9 7.1 15.9 15.9zm0-79.4c0 8.8-7.1 15.9-15.9 15.9h-172.2c-8.8 0-15.9-7.1-15.9-15.9v-15.9c0-8.8 7.1-15.9 15.9-15.9h172.2c8.8 0 15.9 7.1 15.9 15.9z"/>
		<path d="m990 202.8c0-7.5-6.3-14.1-14.1-14.8-73.9-6.7-147.8-13.4-221.6-20.1-0.8-0.1-3.1 0-5.6 0.7l-86.4 21.8v678.6l89.4 12.6c1.1 0.2 2.5 0 2.6 0 73.9-6.7 147.8-14.2 221.6-20.9 7.8-0.7 14.1-7.3 14.1-14.9zm-215.7 46.5c0-8 6.3-14.1 14.1-13.5 51.1 3.6 102.1 7.2 153.2 10.8 7.8 0.6 14.1 7.1 14.1 14.7v13.7c0 7.6-6.3 13.4-14.1 12.9-51-2.9-102.1-5.8-153.2-8.7-7.8-0.5-14.1-7.3-14.1-15.3zm181.4 231.3c0 7.6-6.3 13.8-14.1 13.8-51 0.6-102.1 1.1-153.2 1.7-7.8 0.1-14.1-6.3-14.1-14.4v-14.5c0-8 6.3-14.5 14.1-14.5 51.1 0.2 102.1 0.3 153.2 0.4 7.8 0 14.1 6.2 14.1 13.8zm-14.1-55c-51-0.6-102.1-1.2-153.2-1.8-7.8-0.1-14.1-6.7-14.1-14.7v-14.5c0-8 6.3-14.4 14.1-14.2 51.1 1.3 102.1 2.6 153.2 3.9 7.8 0.2 14.1 6.5 14.1 14.1v13.7c0 7.5-6.3 13.6-14.1 13.5zm14.1-82.1c0 7.6-6.3 13.5-14.1 13.2-51-1.7-102.1-3.5-153.2-5.3-7.8-0.3-14.1-7-14.1-15v-14.4c0-8 6.3-14.2 14.1-13.8 51.1 2.4 102.1 4.9 153.2 7.4 7.8 0.4 14.1 6.8 14.1 14.4z"/>
		<path d="m245.7 167.8c-73.9 6.7-147.8 13.4-221.6 20.1-7.8 0.7-14.1 7.3-14.1 14.8v643c0 7.5 6.3 14.1 14.1 14.9 73.9 6.7 147.8 14.2 221.6 20.9 0.1 0 1.5 0.2 2.6 0l89.4-12.6v-678.6l-86.4-21.8c-2.4-0.7-4.7-0.8-5.6-0.7zm-20.1 313.9c0 8-6.3 14.5-14.1 14.4-51.1-0.6-102.1-1.1-153.2-1.7-7.8-0.1-14.1-6.3-14.1-13.8v-13.7c0-7.6 6.3-13.7 14.1-13.8 51.1-0.1 102.1-0.3 153.2-0.4 7.8 0 14.1 6.5 14.1 14.5zm0-72.6c0 8-6.3 14.6-14.1 14.7-51.1 0.6-102.1 1.2-153.2 1.8-7.8 0.1-14.1-6-14.1-13.5v-13.7c0-7.6 6.3-13.9 14.1-14.1 51.1-1.3 102.1-2.6 153.2-3.9 7.8-0.2 14.1 6.1 14.1 14.2zm0-72.7c0 8-6.3 14.8-14.1 15-51.1 1.7-102.1 3.5-153.2 5.3-7.8 0.2-14.1-5.7-14.1-13.2v-13.7c0-7.6 6.3-14 14.1-14.4 51.1-2.4 102.1-4.9 153.2-7.4 7.8-0.4 14.1 5.8 14.1 13.8zm0-72.6c0 8-6.3 14.9-14.1 15.3-51.1 2.9-102.1 5.8-153.2 8.7-7.8 0.4-14.1-5.4-14.1-12.9v-13.7c0-7.6 6.3-14.1 14.1-14.7 51.1-3.6 102.1-7.2 153.2-10.8 7.8-0.6 14.1 5.5 14.1 13.5z"/>
	</g>
	<path d="m40.82 63.15q-0.09596-0.07903-0.2766-0.1524-0.1806-0.07338-0.3951-0.07338-0.2258 0-0.3895 0.08467-0.1581 0.07903-0.2597 0.2258-0.1016 0.1411-0.1468 0.3387-0.04516 0.1976-0.04516 0.4234 0 0.5137 0.254 0.7959 0.254 0.2766 0.6774 0.2766 0.2145 0 0.3556-0.01694 0.1468-0.02258 0.2258-0.04516zm0-1.976 0.525-0.09032v4.296q-0.1806 0.0508-0.4629 0.1016-0.2822 0.0508-0.6492 0.0508-0.3387 0-0.6096-0.1073-0.271-0.1073-0.4629-0.3048-0.1919-0.1976-0.2992-0.4798-0.1016-0.2879-0.1016-0.6435 0-0.3387 0.08467-0.6209 0.09032-0.2822 0.2597-0.4855 0.1693-0.2032 0.4121-0.3161 0.2484-0.1129 0.5645-0.1129 0.254 0 0.4459 0.06774 0.1976 0.06774 0.2935 0.1298zm-5.216 2.828q0-0.3895 0.1129-0.6774 0.1129-0.2935 0.2992-0.4855 0.1863-0.1919 0.429-0.2879 0.2427-0.09596 0.4967-0.09596 0.5927 0 0.9088 0.3726 0.3161 0.3669 0.3161 1.123 0 0.03387 0 0.09032 0 0.0508-0.0056 0.09596h-2.01q0.03387 0.4572 0.2653 0.6943 0.2314 0.2371 0.7225 0.2371 0.2766 0 0.4629-0.04516 0.1919-0.0508 0.2879-0.09596l0.07338 0.4403q-0.09596 0.0508-0.3387 0.1073-0.2371 0.05645-0.5419 0.05645-0.3839 0-0.6661-0.1129-0.2766-0.1185-0.4572-0.3218-0.1806-0.2032-0.271-0.4798-0.08467-0.2822-0.08467-0.6153zm2.015-0.2879q0.0056-0.3556-0.1806-0.5814-0.1806-0.2314-0.5024-0.2314-0.1806 0-0.3218 0.07338-0.1355 0.06774-0.2314 0.1806-0.09596 0.1129-0.1524 0.2597-0.0508 0.1468-0.06774 0.2992zm-3.573-1.185h1.112v0.4403h-1.112v1.355q0 0.2202 0.03387 0.3669 0.03387 0.1411 0.1016 0.2258 0.06774 0.07903 0.1693 0.1129 0.1016 0.03387 0.2371 0.03387 0.2371 0 0.3782-0.0508 0.1468-0.05645 0.2032-0.07903l0.1016 0.4347q-0.07903 0.03951-0.2766 0.09596-0.1976 0.06209-0.4516 0.06209-0.2992 0-0.4967-0.07338-0.1919-0.07903-0.3105-0.2314-0.1185-0.1524-0.1693-0.3726-0.04516-0.2258-0.04516-0.5193v-2.619l0.525-0.09032zm-1.394 2.851q-0.1806 0.04516-0.4798 0.09596-0.2935 0.0508-0.683 0.0508-0.3387 0-0.5701-0.09596-0.2314-0.1016-0.3726-0.2822t-0.2032-0.4234q-0.06209-0.2484-0.06209-0.5476v-1.648h0.525v1.535q0 0.5363 0.1693 0.7677 0.1693 0.2314 0.5701 0.2314 0.08467 0 0.175-0.0056 0.09032-0.0056 0.1693-0.01129 0.07903-0.01129 0.1411-0.01693 0.06774-0.01129 0.09596-0.02258v-2.478h0.525zm-5.137-2.721q0.09596-0.06209 0.2879-0.1298 0.1976-0.06774 0.4516-0.06774 0.3161 0 0.5588 0.1129 0.2484 0.1129 0.4177 0.3161 0.1693 0.2032 0.254 0.4855 0.09032 0.2822 0.09032 0.6209 0 0.3556-0.1073 0.6435-0.1016 0.2822-0.2935 0.4798-0.1919 0.1976-0.4629 0.3048-0.271 0.1073-0.6096 0.1073-0.3669 0-0.6492-0.0508-0.2822-0.0508-0.4629-0.1016v-4.205l0.525-0.09032zm0 2.348q0.07903 0.02258 0.2202 0.04516 0.1468 0.01694 0.3613 0.01694 0.4234 0 0.6774-0.2766 0.254-0.2822 0.254-0.7959 0-0.2258-0.04516-0.4234-0.04516-0.1976-0.1468-0.3387-0.1016-0.1468-0.2653-0.2258-0.1581-0.08467-0.3839-0.08467-0.2145 0-0.3951 0.07338t-0.2766 0.1524zm-1.428 0.4572h-0.525v-2.935h0.525zm-0.2653-3.466q-0.1411 0-0.2427-0.09032-0.09596-0.09596-0.09596-0.254 0-0.1581 0.09596-0.2484 0.1016-0.09596 0.2427-0.09596 0.1411 0 0.2371 0.09596 0.1016 0.09032 0.1016 0.2484 0 0.1581-0.1016 0.254-0.09596 0.09032-0.2371 0.09032zm-1.355 0.4685q0.06774 0 0.1524 0.01129 0.09032 0.0056 0.175 0.02258 0.08467 0.01129 0.1524 0.02822 0.07338 0.01129 0.1073 0.02258l-0.09032 0.4572q-0.06209-0.02258-0.2089-0.0508-0.1411-0.03387-0.3669-0.03387-0.1468 0-0.2935 0.03387-0.1411 0.02822-0.1863 0.03951v2.467h-0.525v-2.811q0.1863-0.06774 0.4629-0.1242 0.2766-0.06209 0.6209-0.06209zm-2.862 0.06209h1.112v0.4403h-1.112v1.355q0 0.2202 0.03387 0.3669 0.03387 0.1411 0.1016 0.2258 0.06774 0.07903 0.1693 0.1129 0.1016 0.03387 0.2371 0.03387 0.2371 0 0.3782-0.0508 0.1468-0.05645 0.2032-0.07903l0.1016 0.4347q-0.07903 0.03951-0.2766 0.09596-0.1976 0.06209-0.4516 0.06209-0.2992 0-0.4967-0.07338-0.1919-0.07903-0.3105-0.2314-0.1185-0.1524-0.1693-0.3726-0.04516-0.2258-0.04516-0.5193v-2.619l0.525-0.09032zm-2.326 2.557q0.3218 0 0.4742-0.08467 0.1581-0.08467 0.1581-0.271 0-0.1919-0.1524-0.3048-0.1524-0.1129-0.5024-0.254-0.1693-0.06774-0.3274-0.1355-0.1524-0.07338-0.2653-0.1693-0.1129-0.09596-0.1806-0.2314-0.06774-0.1355-0.06774-0.333 0-0.3895 0.2879-0.6153 0.2879-0.2314 0.7846-0.2314 0.1242 0 0.2484 0.01693 0.1242 0.01129 0.2314 0.03387 0.1073 0.01693 0.1863 0.03951 0.08467 0.02258 0.1298 0.03951l-0.09596 0.4516q-0.08467-0.04516-0.2653-0.09032-0.1806-0.0508-0.4347-0.0508-0.2202 0-0.3839 0.09032-0.1637 0.08467-0.1637 0.271 0 0.09596 0.03387 0.1693 0.03951 0.07338 0.1129 0.1355 0.07903 0.05645 0.1919 0.1073 0.1129 0.0508 0.271 0.1073 0.2089 0.07903 0.3726 0.1581 0.1637 0.07338 0.2766 0.175 0.1185 0.1016 0.1806 0.2484 0.06209 0.1411 0.06209 0.35 0 0.4064-0.3048 0.6153-0.2992 0.2089-0.858 0.2089-0.3895 0-0.6096-0.06774-0.2202-0.06209-0.2992-0.09596l0.09596-0.4516q0.09032 0.03387 0.2879 0.1016 0.1976 0.06774 0.525 0.06774zm-1.586 0.3782h-0.525v-2.935h0.525zm-0.2653-3.466q-0.1411 0-0.2427-0.09032-0.09596-0.09596-0.09596-0.254 0-0.1581 0.09596-0.2484 0.1016-0.09596 0.2427-0.09596t0.2371 0.09596q0.1016 0.09032 0.1016 0.2484 0 0.1581-0.1016 0.254-0.09596 0.09032-0.2371 0.09032zm-1.039 1.507q0 0.508-0.1581 0.8862-0.1581 0.3726-0.4459 0.6209-0.2879 0.2427-0.6887 0.3669-0.4008 0.1185-0.8806 0.1185-0.2371 0-0.525-0.02258-0.2822-0.01694-0.5137-0.07338v-3.793q0.2314-0.05645 0.5137-0.07338 0.2879-0.02258 0.525-0.02258 0.4798 0 0.8806 0.1242 0.4008 0.1185 0.6887 0.3669 0.2879 0.2427 0.4459 0.6209 0.1581 0.3726 0.1581 0.8806zm-2.128 1.513q0.779 0 1.163-0.3951 0.3839-0.4008 0.3839-1.118 0-0.7169-0.3839-1.112-0.3839-0.4008-1.163-0.4008-0.2314 0-0.3613 0.0056-0.1242 0.0056-0.175 0.01129v2.992q0.0508 0.0056 0.175 0.01129 0.1298 0.0056 0.3613 0.0056z" fill="#808080" style="font-feature-settings:normal;font-variant-caps:normal;font-variant-ligatures:normal;font-variant-numeric:normal"/>
	<path d="m109.3 63.14q-0.096-0.07903-0.2766-0.1524-0.1806-0.07338-0.3951-0.07338-0.2258 0-0.3895 0.08467-0.1581 0.07903-0.2597 0.2258-0.1016 0.1411-0.1468 0.3387-0.0452 0.1976-0.0452 0.4234 0 0.5137 0.254 0.7959 0.254 0.2766 0.6774 0.2766 0.2145 0 0.3556-0.01694 0.1468-0.02258 0.2258-0.04516zm0-1.976 0.525-0.09032v4.296q-0.1806 0.0508-0.4629 0.1016-0.2822 0.0508-0.6492 0.0508-0.3387 0-0.6096-0.1073-0.271-0.1073-0.4629-0.3048-0.1919-0.1976-0.2992-0.4798-0.1016-0.2879-0.1016-0.6435 0-0.3387 0.0847-0.6209 0.0903-0.2822 0.2597-0.4855 0.1694-0.2032 0.4121-0.3161 0.2484-0.1129 0.5645-0.1129 0.254 0 0.446 0.06774 0.1976 0.06774 0.2935 0.1298zm-5.216 2.828q0-0.3895 0.1129-0.6774 0.1129-0.2935 0.2992-0.4855 0.1863-0.1919 0.429-0.2879 0.2427-0.09596 0.4967-0.09596 0.5927 0 0.9088 0.3726 0.3161 0.3669 0.3161 1.123 0 0.03387 0 0.09032 0 0.0508-6e-3 0.09596h-2.01q0.0339 0.4572 0.2653 0.6943 0.2314 0.2371 0.7225 0.2371 0.2766 0 0.4629-0.04516 0.1919-0.0508 0.2879-0.09596l0.0734 0.4403q-0.096 0.0508-0.3387 0.1073-0.2371 0.05645-0.5419 0.05645-0.3839 0-0.6661-0.1129-0.2766-0.1185-0.4572-0.3218-0.1806-0.2032-0.271-0.4798-0.0847-0.2822-0.0847-0.6153zm2.015-0.2879q6e-3 -0.3556-0.1806-0.5814-0.1806-0.2314-0.5024-0.2314-0.1806 0-0.3218 0.07338-0.1355 0.06774-0.2314 0.1806-0.096 0.1129-0.1524 0.2597-0.0508 0.1468-0.0677 0.2992zm-2.456-0.7903q-0.1185 0.1298-0.3161 0.3669-0.1919 0.2371-0.4177 0.525-0.2202 0.2879-0.4459 0.604-0.2202 0.3161-0.3895 0.604h1.614v0.4403h-2.241v-0.35q0.1355-0.2484 0.333-0.5476t0.4121-0.5927q0.2202-0.2992 0.4234-0.5588 0.2089-0.2653 0.3613-0.4459h-1.451v-0.4403h2.117zm-2.851 2.54h-0.525v-2.935h0.525zm-0.2653-3.466q-0.1411 0-0.2427-0.09032-0.096-0.09596-0.096-0.254 0-0.1581 0.096-0.2484 0.1016-0.09596 0.2427-0.09596 0.1411 0 0.2371 0.09596 0.1016 0.09032 0.1016 0.2484 0 0.1581-0.1016 0.254-0.096 0.09032-0.2371 0.09032zm-0.9201 3.522q-0.4855-0.01129-0.6887-0.2089-0.2032-0.1976-0.2032-0.6153v-3.522l0.525-0.09032v3.528q0 0.1298 0.02258 0.2145 0.02258 0.08467 0.07338 0.1355 0.0508 0.0508 0.1355 0.07903 0.08467 0.02258 0.2089 0.03951zm-2.834-0.4347q0.1863 0 0.3274-0.0056 0.1468-0.01129 0.2427-0.03387v-0.875q-0.05645-0.02822-0.1863-0.04516-0.1242-0.02258-0.3048-0.02258-0.1185 0-0.254 0.01693-0.1298 0.01694-0.2427 0.07338-0.1073 0.0508-0.1806 0.1468-0.07338 0.09032-0.07338 0.2427 0 0.2822 0.1806 0.3951 0.1806 0.1073 0.4911 0.1073zm-0.04516-2.631q0.3161 0 0.5306 0.08467 0.2202 0.07903 0.35 0.2314 0.1355 0.1468 0.1919 0.3556 0.05645 0.2032 0.05645 0.4516v1.835q-0.06774 0.01129-0.1919 0.03387-0.1185 0.01694-0.271 0.03387-0.1524 0.01694-0.333 0.02822-0.175 0.01694-0.35 0.01694-0.2484 0-0.4572-0.0508t-0.3613-0.1581q-0.1524-0.1129-0.2371-0.2935-0.08467-0.1806-0.08467-0.4347 0-0.2427 0.09596-0.4177 0.1016-0.175 0.271-0.2822 0.1693-0.1073 0.3951-0.1581 0.2258-0.0508 0.4742-0.0508 0.07903 0 0.1637 0.01129 0.08467 0.0056 0.1581 0.02258 0.07903 0.01129 0.1355 0.02258 0.05645 0.01129 0.07903 0.01693v-0.1468q0-0.1298-0.02823-0.254-0.02822-0.1298-0.1016-0.2258-0.07338-0.1016-0.2032-0.1581-0.1242-0.06209-0.3274-0.06209-0.2597 0-0.4572 0.03951-0.1919 0.03387-0.2879 0.07338l-0.06209-0.4347q0.1016-0.04516 0.3387-0.08467 0.2371-0.04516 0.5137-0.04516zm-2.043 0.01129q0.06774 0 0.1524 0.01129 0.09032 0.0056 0.175 0.02258 0.08467 0.01129 0.1524 0.02822 0.07338 0.01129 0.1073 0.02258l-0.09032 0.4572q-0.06209-0.02258-0.2089-0.0508-0.1411-0.03387-0.3669-0.03387-0.1468 0-0.2935 0.03387-0.1411 0.02822-0.1863 0.03951v2.467h-0.525v-2.811q0.1863-0.06774 0.4629-0.1242 0.2766-0.06209 0.6209-0.06209zm-2.862 0.06209h1.112v0.4403h-1.112v1.355q0 0.2202 0.03387 0.3669 0.03387 0.1411 0.1016 0.2258 0.06774 0.07903 0.1693 0.1129 0.1016 0.03387 0.2371 0.03387 0.2371 0 0.3782-0.0508 0.1468-0.05645 0.2032-0.07903l0.1016 0.4347q-0.07903 0.03951-0.2766 0.09596-0.1976 0.06209-0.4516 0.06209-0.2992 0-0.4967-0.07338-0.1919-0.07903-0.3105-0.2314-0.1185-0.1524-0.1693-0.3726-0.04516-0.2258-0.04516-0.5193v-2.619l0.525-0.09032zm-3.731 0.08467q0.1806-0.04516 0.4798-0.09596 0.2992-0.0508 0.6887-0.0508 0.35 0 0.5814 0.1016 0.2314 0.09596 0.3669 0.2766 0.1411 0.175 0.1976 0.4234 0.05645 0.2484 0.05645 0.5476v1.648h-0.525v-1.535q0-0.271-0.03951-0.4629-0.03387-0.1919-0.1185-0.3105-0.08467-0.1185-0.2258-0.1693-0.1411-0.05645-0.35-0.05645-0.08467 0-0.175 0.0056-0.09032 0.0056-0.175 0.01693-0.07903 0.0056-0.1468 0.01694-0.06209 0.01129-0.09032 0.01693v2.478h-0.525zm-3.319 1.389q0-0.3895 0.1129-0.6774 0.1129-0.2935 0.2992-0.4855 0.1863-0.1919 0.429-0.2879 0.2427-0.09596 0.4967-0.09596 0.5927 0 0.9088 0.3726 0.3161 0.3669 0.3161 1.123 0 0.03387 0 0.09032 0 0.0508-0.0056 0.09596h-2.01q0.03387 0.4572 0.2653 0.6943 0.2314 0.2371 0.7225 0.2371 0.2766 0 0.4629-0.04516 0.1919-0.0508 0.2879-0.09596l0.07338 0.4403q-0.09596 0.0508-0.3387 0.1073-0.2371 0.05645-0.5419 0.05645-0.3839 0-0.6661-0.1129-0.2766-0.1185-0.4572-0.3218t-0.271-0.4798q-0.08467-0.2822-0.08467-0.6153zm2.015-0.2879q0.0056-0.3556-0.1806-0.5814-0.1806-0.2314-0.5024-0.2314-0.1806 0-0.3218 0.07338-0.1355 0.06774-0.2314 0.1806-0.09596 0.1129-0.1524 0.2597-0.0508 0.1468-0.06774 0.2992zm-3.551 1.835q-0.4121 0-0.7508-0.1355t-0.5814-0.3951q-0.2427-0.2597-0.3782-0.6379-0.1298-0.3839-0.1298-0.875 0-0.4911 0.1468-0.8693 0.1524-0.3839 0.4064-0.6435 0.254-0.2597 0.5927-0.3951t0.7225-0.1355q0.2427 0 0.4347 0.03387 0.1976 0.03387 0.3387 0.07903 0.1468 0.04516 0.2371 0.09032 0.09032 0.04516 0.1242 0.06774l-0.1581 0.4516q-0.0508-0.03387-0.1468-0.07338-0.09596-0.03951-0.2202-0.07903-0.1185-0.03951-0.2653-0.06209-0.1411-0.02823-0.2879-0.02823-0.3105 0-0.5588 0.1073-0.2484 0.1073-0.4234 0.3105-0.175 0.2032-0.271 0.4967-0.09032 0.2879-0.09032 0.6492 0 0.35 0.07903 0.6379 0.08467 0.2879 0.2484 0.4967 0.1637 0.2032 0.4064 0.3161 0.2484 0.1129 0.5758 0.1129 0.3782 0 0.6266-0.07903 0.2484-0.07903 0.3726-0.1411l0.1411 0.4516q-0.03951 0.02822-0.1411 0.07338-0.1016 0.03951-0.254 0.07903-0.1524 0.03951-0.3556 0.06774-0.2032 0.02822-0.4403 0.02822z" fill="#808080" style="font-feature-settings:normal;font-variant-caps:normal;font-variant-ligatures:normal;font-variant-numeric:normal"/>
</svg>
