<?xml version="1.0" encoding="UTF-8"?>
<svg id="logo_art" width="1017.4" height="311.01" data-name="logo art" version="1.1" viewBox="0 0 1017.4 311.01" xmlns="http://www.w3.org/2000/svg" xmlns:cc="http://creativecommons.org/ns#" xmlns:dc="http://purl.org/dc/elements/1.1/" xmlns:rdf="http://www.w3.org/1999/02/22-rdf-syntax-ns#">
 <metadata>
  <rdf:RDF>
   <cc:Work rdf:about="">
    <dc:format>image/svg+xml</dc:format>
    <dc:type rdf:resource="http://purl.org/dc/dcmitype/StillImage"/>
    <dc:title>gitlab-logo-white-rgb</dc:title>
   </cc:Work>
  </rdf:RDF>
 </metadata>
 <defs>
  <style>.cls-1{fill:#fff;}.cls-2{fill:#fc6d26;}.cls-3{fill:#e24329;}.cls-4{fill:#fca326;}</style>
 </defs>
 <title>gitlab-logo-white-rgb</title>
 <path class="cls-1" d="m715.66 74.195h-21.8l0.1 162.5h88.3v-20.1h-66.5z" fill="#fff"/>
 <g transform="translate(-124.04 -123.99)">
  <path class="cls-1" d="m990.33 332.18a37.2 37.2 0 0 1-27 11.4c-16.6 0-23.3-8.2-23.3-18.9 0-16.1 11.2-23.8 35-23.8a104.65 104.65 0 0 1 15.4 1.2v30.1zm-22.6-98.5a72.19 72.19 0 0 0-46.4 16.7l7.7 13.4c8.9-5.2 19.8-10.4 35.5-10.4 17.9 0 25.8 9.2 25.8 24.6v7.9a99.42 99.42 0 0 0-15.1-1.2c-38.2 0-57.6 13.4-57.6 41.4 0 25.1 15.4 37.7 38.7 37.7 15.7 0 30.8-7.2 36-18.9l4 15.9h15.4v-83.2c-0.1-26.3-11.5-43.9-44-43.9z" fill="#fff"/>
 </g>
 <g transform="translate(-124.04 -123.99)">
  <path class="cls-1" d="m1082.1 344.32c-8.2 0-15.4-1-20.8-3.5v-75.1c7.4-6.2 16.6-10.7 28.3-10.7 21.1 0 29.2 14.9 29.2 39 0 34.2-13.1 50.3-36.7 50.3m9.2-110.6a39.93 39.93 0 0 0-30 13.3v-21.02l-0.1-27.8h-21.3l0.1 158.5c10.7 4.5 25.3 6.9 41.2 6.9 40.7 0 60.3-26 60.3-70.9-0.1-35.5-18.2-59-50.2-59" fill="#fff"/>
 </g>
 <g transform="translate(-124.04 -123.99)">
  <path class="cls-1" d="m602.34 215.82c19.3 0 31.8 6.4 39.9 12.9l9.4-16.3c-12.7-11.2-29.9-17.2-48.3-17.2-46.4 0-78.9 28.3-78.9 85.4 0 59.8 35.1 83.1 75.2 83.1a127.79 127.79 0 0 0 48.4-9.4l-0.5-63.9v-20.1h-59.54v20.1h38l0.5 48.5c-5 2.5-13.6 4.5-25.3 4.5-32.2 0-53.8-20.3-53.8-63-0.1-43.5 22.2-64.6 54.9-64.6" fill="#fff"/>
 </g>
 <g transform="translate(-124.04 -123.99)">
  <path class="cls-1" d="m755.87 198.17h-21.3l0.1 27.3v94.3c0 26.3 11.4 43.9 43.9 43.9a70.14 70.14 0 0 0 13.1-1.2v-19.1a62.36 62.36 0 0 1-9.9 0.7c-17.9 0-25.8-9.2-25.8-24.6v-65h35.7v-17.8h-35.67l-0.1-38.5z" fill="#fff"/>
 </g>
 <path class="cls-1" d="m556.36 236.7h21.3v-124h-21.3z" fill="#fff"/>
 <path class="cls-1" d="m556.36 95.595h21.3v-21.3h-21.3z" fill="#fff"/>
 <g transform="translate(-124.04 -123.99)">
  <path class="cls-2" d="m461 301.81-18.91-58.12-37.42-115.28a6.47 6.47 0 0 0-12.27 0l-37.4 115.21h-124.34l-37.42-115.21a6.47 6.47 0 0 0-12.27 0l-37.35 115.21-18.92 58.19a12.89 12.89 0 0 0 4.66 14.39l163.46 118.8 163.46-118.8a12.9 12.9 0 0 0 4.72-14.39" fill="#fc6d26"/>
 </g>
 <g transform="translate(-124.04 -123.99)">
  <path class="cls-3" d="m292.86 434.89 62.14-191.28h-124.3z" fill="#e24329"/>
 </g>
 <g transform="translate(-124.04 -123.99)">
  <path class="cls-2" d="m292.82 434.9-62.16-191.29h-87z" fill="#fc6d26"/>
 </g>
 <g transform="translate(-124.04 -123.99)">
  <path class="cls-4" d="m143.59 243.68-18.92 58.12a12.89 12.89 0 0 0 4.66 14.39l163.46 118.81z" fill="#fca326"/>
 </g>
 <g transform="translate(-124.04 -123.99)">
  <path class="cls-3" d="m143.61 243.68h87.11l-37.49-115.21a6.47 6.47 0 0 0-12.27 0z" fill="#e24329"/>
 </g>
 <g transform="translate(-124.04 -123.99)">
  <path class="cls-2" d="m292.86 434.9 62.14-191.29h87.1z" fill="#fc6d26"/>
 </g>
 <g transform="translate(-124.04 -123.99)">
  <path class="cls-4" d="m442.07 243.68 18.93 58.12a12.89 12.89 0 0 1-4.66 14.39l-163.47 118.7z" fill="#fca326"/>
 </g>
 <g transform="translate(-124.04 -123.99)">
  <path class="cls-3" d="m442.12 243.68h-87.12l37.42-115.21a6.47 6.47 0 0 1 12.27 0l37.42 115.21z" fill="#e24329"/>
 </g>
</svg>
