<svg width="132.53" height="34.942" viewBox="0 0 35.065 9.245" xmlns="http://www.w3.org/2000/svg">
  <defs>
    <marker id="f" overflow="visible" orient="auto">
      <path d="M1.926 1.21-1.352.005l3.278-1.206a2.05 2.05 0 0 0 0 2.411z" fill="gray" fill-rule="evenodd" stroke="gray" stroke-linejoin="round" stroke-width=".1875"/>
    </marker>
    <marker id="g" overflow="visible" orient="auto">
      <path d="M1.926 1.21-1.352.005l3.278-1.206a2.05 2.05 0 0 0 0 2.411z" fill="gray" fill-rule="evenodd" stroke="gray" stroke-linejoin="round" stroke-width=".1875"/>
    </marker>
    <marker id="a" overflow="visible" orient="auto">
      <path d="M1.926 1.21-1.352.005l3.278-1.206a2.05 2.05 0 0 0 0 2.411z" fill="gray" fill-rule="evenodd" stroke="gray" stroke-linejoin="round" stroke-width=".1875"/>
    </marker>
    <marker id="b" overflow="visible" orient="auto">
      <path d="M1.926 1.21-1.352.005l3.278-1.206a2.05 2.05 0 0 0 0 2.411z" fill="gray" fill-rule="evenodd" stroke="gray" stroke-linejoin="round" stroke-width=".1875"/>
    </marker>
    <marker id="c" overflow="visible" orient="auto">
      <path d="M1.926 1.21-1.352.005l3.278-1.206a2.05 2.05 0 0 0 0 2.411z" fill="gray" fill-rule="evenodd" stroke="gray" stroke-linejoin="round" stroke-width=".1875"/>
    </marker>
    <marker id="d" overflow="visible" orient="auto">
      <path d="M1.926 1.21-1.352.005l3.278-1.206a2.05 2.05 0 0 0 0 2.411z" fill="gray" fill-rule="evenodd" stroke="gray" stroke-linejoin="round" stroke-width=".1875"/>
    </marker>
    <marker id="e" overflow="visible" orient="auto">
      <path d="M1.926 1.21-1.352.005l3.278-1.206a2.05 2.05 0 0 0 0 2.411z" fill="gray" fill-rule="evenodd" stroke="gray" stroke-linejoin="round" stroke-width=".1875"/>
    </marker>
  </defs>
  <g fill="#ffc600" stroke="#414141" stroke-miterlimit="10" stroke-width=".125" transform="translate(0 -.1)">
    <circle cx="1.323" cy="1.422" r="1.26"/>
    <circle cx="11.91" cy="1.422" r="1.26"/>
    <circle cx="22.49" cy="1.422" r="1.26"/>
  </g>
  <g fill="#09f" stroke="#414141" stroke-miterlimit="10" stroke-width=".125" transform="translate(0 -.1)">
    <circle cx="11.906" cy="8.022" r="1.26"/>
    <circle cx="18.946" cy="8.022" r="1.26"/>
    <circle cx="29.705" cy="8.022" r="1.26"/>
  </g>
  <g fill="gray" stroke-width=".265">
    <path d="m28.072.904.119-.024q.074-.012.172-.012.07 0 .118.02.048.018.08.055l.032-.02q.02-.013.052-.024.031-.013.07-.021.037-.01.08-.01.086 0 .14.025.053.024.082.07.032.044.041.107.012.062.012.135v.412h-.132v-.384q0-.065-.007-.111-.005-.047-.024-.078-.017-.03-.048-.045-.03-.016-.077-.016-.067 0-.11.019-.043.017-.058.03.011.037.017.081.005.044.005.092v.412h-.13v-.384q0-.065-.008-.111-.007-.047-.025-.078-.017-.031-.048-.045-.03-.016-.076-.016l-.043.002q-.022.001-.043.004-.02.001-.037.004l-.023.004v.62h-.13zM29.532 1.522h.082q.037-.004.06-.01v-.218q-.014-.007-.046-.011-.031-.006-.076-.006-.03 0-.064.004-.032.004-.06.019-.027.012-.046.036-.018.023-.018.06 0 .071.045.1.045.026.123.026zm-.011-.657q.079 0 .132.021.055.02.088.058.034.037.048.089.014.05.014.113v.458l-.048.009-.068.008-.083.007q-.044.005-.088.005-.062 0-.114-.013-.052-.013-.09-.04-.038-.028-.06-.073-.02-.045-.02-.109 0-.06.023-.104.026-.044.068-.07.042-.028.099-.04.056-.013.118-.013.02 0 .041.003.022.001.04.006l.034.005.02.004v-.036q0-.033-.008-.064-.007-.032-.025-.056-.018-.026-.05-.04-.032-.015-.083-.015-.065 0-.114.01-.048.008-.072.018l-.015-.109q.025-.011.084-.02.06-.012.129-.012zM30.192 1.522q.08 0 .119-.02.04-.022.04-.068 0-.048-.039-.077-.038-.028-.126-.063l-.081-.034q-.039-.018-.067-.042-.028-.024-.045-.058-.017-.034-.017-.083 0-.098.072-.154.072-.058.196-.058.031 0 .062.004.031.003.058.009.027.004.047.01.02.005.032.01l-.024.112Q30.398 1 30.353.988q-.045-.013-.109-.013-.055 0-.096.023-.04.02-.04.067 0 .024.008.043.01.018.028.033.02.015.048.027.028.013.068.027.052.02.093.04.04.018.069.043.03.026.045.062.016.036.016.088 0 .102-.077.154-.074.052-.214.052-.097 0-.152-.017-.055-.016-.075-.024l.024-.113.072.026q.05.016.13.016zM30.772.883h.278v.11h-.278v.34q0 .054.009.091.008.035.025.056.017.02.042.029.026.008.06.008.059 0 .094-.013l.05-.02.026.11q-.02.01-.069.023-.05.016-.113.016-.075 0-.124-.018-.048-.02-.078-.058-.03-.038-.042-.093-.011-.057-.011-.13V.679l.131-.023zM31.162 1.251q0-.097.028-.169.028-.073.075-.121t.107-.072q.06-.024.124-.024.149 0 .228.093.079.092.079.28v.023q0 .013-.002.024H31.3q.008.115.066.174.058.06.18.06.07 0 .117-.012.047-.013.071-.024l.019.11q-.024.013-.085.027-.06.014-.135.014-.096 0-.167-.028-.069-.03-.114-.08-.045-.052-.068-.12-.021-.071-.021-.154Zm.504-.072q.001-.088-.045-.145-.045-.058-.126-.058-.045 0-.08.019-.034.017-.058.045-.024.028-.038.065-.013.036-.017.075zM32.262.868q.017 0 .038.003.023.002.044.006l.038.007.027.006-.023.114q-.015-.006-.052-.013-.035-.008-.092-.008-.036 0-.073.008l-.047.01v.617h-.13V.915q.046-.017.115-.03.069-.016.155-.016ZM33.345 7.81q-.024-.02-.07-.038-.044-.018-.098-.018-.056 0-.097.021-.04.02-.065.057-.026.035-.037.084-.011.05-.011.106 0 .129.063.2.064.068.17.068.053 0 .089-.004.036-.006.056-.011zm0-.493.131-.023v1.074q-.045.013-.115.025-.071.013-.163.013-.084 0-.152-.027-.068-.027-.116-.076-.048-.05-.075-.12-.025-.072-.025-.16 0-.085.021-.156.023-.07.065-.121.042-.051.103-.08.062-.028.141-.028.064 0 .112.017.049.017.073.033zM33.665 8.023q0-.097.028-.169.028-.073.075-.121t.107-.072q.06-.024.124-.024.149 0 .228.093.079.092.079.28v.023q0 .013-.002.024h-.502q.008.115.066.174.058.06.18.06.07 0 .117-.012.047-.013.071-.024l.019.11q-.024.013-.085.027-.06.014-.135.014-.096 0-.167-.028-.069-.03-.114-.08-.045-.052-.068-.12-.021-.071-.021-.154Zm.504-.072q.001-.088-.045-.145-.045-.058-.126-.058-.045 0-.08.019-.034.017-.058.045-.024.028-.038.065-.013.036-.017.075zM35.065 7.655q-.055.206-.13.396-.073.189-.142.338h-.119q-.069-.15-.144-.338-.073-.19-.128-.396h.141q.017.07.04.149l.049.155.054.148q.026.072.05.128.024-.056.051-.128.027-.072.052-.148.027-.078.05-.155.024-.08.04-.149z"/>
  </g>
  <g fill="none" stroke="gray" stroke-width=".212">
    <path d="M3.395 3.782h6.372" marker-start="url(#a)" transform="translate(0 -2.46)"/>
    <path d="M13.972 3.782h6.248" marker-start="url(#b)" transform="translate(0 -2.46)"/>
    <path d="M21.154 10.382h6.476" marker-start="url(#c)" transform="translate(0 -2.46)"/>
    <path d="M13.916 10.382h2.997" marker-start="url(#d)" transform="translate(0 -2.46)"/>
    <path d="m2.842 5.03 7.237 4.321" marker-start="url(#e)" transform="translate(0 -2.46)"/>
    <path d="M24.945 3.682h2.58" marker-start="url(#f)" transform="translate(0 -2.46)"/>
    <path d="M31.459 10.382h.864" marker-start="url(#g)" transform="translate(0 -2.46)"/>
  </g>
</svg>
