<svg width="198.53" height="20.872" viewBox="0 0 52.528 5.522" xmlns="http://www.w3.org/2000/svg">
  <defs>
    <marker id="f" overflow="visible" orient="auto">
      <path d="M1.926 1.21-1.352.005l3.278-1.206a2.05 2.05 0 0 0 0 2.411z" fill="gray" fill-rule="evenodd" stroke="gray" stroke-linejoin="round" stroke-width=".1875"/>
    </marker>
    <marker id="a" overflow="visible" orient="auto">
      <path d="M1.926 1.21-1.352.005l3.278-1.206a2.05 2.05 0 0 0 0 2.411z" fill="gray" fill-rule="evenodd" stroke="gray" stroke-linejoin="round" stroke-width=".1875"/>
    </marker>
    <marker id="b" overflow="visible" orient="auto">
      <path d="M1.926 1.21-1.352.005l3.278-1.206a2.05 2.05 0 0 0 0 2.411z" fill="gray" fill-rule="evenodd" stroke="gray" stroke-linejoin="round" stroke-width=".1875"/>
    </marker>
    <marker id="c" overflow="visible" orient="auto">
      <path d="M1.926 1.21-1.352.005l3.278-1.206a2.05 2.05 0 0 0 0 2.411z" fill="gray" fill-rule="evenodd" stroke="gray" stroke-linejoin="round" stroke-width=".1875"/>
    </marker>
    <marker id="d" overflow="visible" orient="auto">
      <path d="M1.926 1.21-1.352.005l3.278-1.206a2.05 2.05 0 0 0 0 2.411z" fill="gray" fill-rule="evenodd" stroke="gray" stroke-linejoin="round" stroke-width=".1875"/>
    </marker>
    <marker id="g" overflow="visible" orient="auto">
      <path d="M1.926 1.21-1.352.005l3.278-1.206a2.05 2.05 0 0 0 0 2.411z" fill="gray" fill-rule="evenodd" stroke="gray" stroke-linejoin="round" stroke-width=".1875"/>
    </marker>
    <marker id="e" overflow="visible" orient="auto">
      <path d="M1.926 1.21-1.352.005l3.278-1.206a2.05 2.05 0 0 0 0 2.411z" fill="gray" fill-rule="evenodd" stroke="gray" stroke-linejoin="round" stroke-width=".1875"/>
    </marker>
  </defs>
  <g fill="#ffc600" stroke="#414141" stroke-miterlimit="10" stroke-width=".125">
    <circle cx="1.323" cy="4.2" r="1.26"/>
    <circle cx="11.91" cy="4.2" r="1.26"/>
    <circle cx="22.49" cy="4.2" r="1.26"/>
  </g>
  <g fill="#09f" stroke="#414141" stroke-miterlimit="10" stroke-width=".125">
    <circle cx="29.37" cy="4.199" r="1.26"/>
    <circle cx="36.41" cy="4.199" r="1.26"/>
    <circle cx="47.168" cy="4.199" r="1.26"/>
  </g>
  <g fill="gray" stroke-width=".265">
    <path d="M20.39.248q.045-.011.119-.024.074-.013.172-.013.07 0 .118.02.048.018.08.055l.032-.02q.021-.012.052-.024.031-.012.07-.02.037-.01.081-.01.085 0 .138.025.054.024.084.069.03.045.04.107.012.062.012.136V.96h-.131V.577q0-.065-.007-.112-.006-.046-.024-.077-.017-.031-.048-.045-.03-.016-.078-.016-.066 0-.11.018-.042.017-.058.031.011.037.017.08.006.045.006.093V.96h-.132V.577q0-.065-.007-.112-.007-.046-.025-.077-.017-.031-.048-.046-.03-.015-.076-.015l-.043.001q-.023.001-.043.005-.02.001-.037.004t-.023.004v.62h-.13zM21.85.866l.082-.001q.037-.003.06-.009V.637q-.013-.007-.046-.01-.03-.006-.076-.006-.03 0-.064.004-.032.004-.06.018-.027.013-.045.037-.019.022-.019.06 0 .071.045.1.046.026.123.026zM21.84.208q.079 0 .133.022.055.02.087.057.034.037.048.09.014.05.014.112v.459l-.048.008q-.03.005-.068.009l-.083.007q-.044.004-.087.004-.062 0-.115-.013t-.09-.04q-.038-.027-.06-.072t-.02-.11q0-.06.024-.104.025-.043.067-.07t.1-.04q.056-.012.118-.012l.04.002q.022.002.04.006l.034.006.02.004V.496q0-.032-.007-.063Q21.978.4 21.96.376q-.018-.025-.05-.04t-.082-.015q-.065 0-.115.01-.048.009-.072.019l-.015-.11q.025-.01.084-.02.06-.012.129-.012zM22.51.866q.08 0 .119-.021.04-.021.04-.068 0-.048-.039-.076t-.125-.064q-.043-.016-.082-.033-.038-.019-.067-.043t-.045-.058Q22.294.47 22.294.42q0-.097.072-.154.072-.058.196-.058.031 0 .062.005.031.003.058.008.027.004.047.01l.032.01-.024.113q-.02-.011-.066-.023-.045-.012-.109-.012-.055 0-.096.022-.04.021-.04.068 0 .024.008.042.01.019.028.034.02.014.048.027t.068.027q.052.02.093.04.04.018.07.043.029.025.044.062.016.035.016.088 0 .101-.076.153-.075.053-.215.053-.097 0-.152-.017-.055-.016-.075-.024l.024-.113.072.025q.05.017.131.017zM23.09.227h.278v.11h-.278v.339q0 .055.009.092.008.035.025.056.017.02.042.028.026.009.06.009.059 0 .094-.013l.051-.02.025.109q-.02.01-.069.024-.05.015-.113.015-.074 0-.124-.018-.048-.02-.077-.058T22.97.807q-.011-.056-.011-.13V.023L23.09 0zM23.48.595q0-.097.028-.17.029-.073.075-.12.047-.049.107-.073.061-.024.125-.024.148 0 .227.094.079.091.079.28v.023q0 .013-.002.024h-.502q.009.114.066.173.058.06.18.06.07 0 .117-.012.048-.012.072-.024l.018.11q-.024.013-.085.027-.059.015-.135.015-.096 0-.167-.029-.069-.03-.114-.08t-.068-.12q-.02-.07-.02-.154zm.504-.072q.001-.089-.045-.145-.045-.058-.126-.058-.045 0-.08.018-.034.017-.058.045-.024.029-.038.065-.013.037-.017.075zM24.58.212q.017 0 .038.003.023.001.044.006.021.002.038.007.018.002.027.005l-.023.115q-.015-.006-.052-.013-.035-.009-.092-.009-.036 0-.073.009l-.046.01V.96h-.132V.26q.047-.017.116-.031.07-.016.155-.016z"/>
  </g>
  <g fill="gray" stroke-width=".265">
    <path d="M50.808 4.087q-.024-.02-.07-.038-.044-.018-.098-.018-.056 0-.097.02-.04.02-.065.057-.026.036-.037.085t-.011.106q0 .128.063.199.064.069.17.069.053 0 .089-.004.036-.006.056-.012zm0-.494.131-.022v1.074q-.045.012-.116.025-.07.013-.162.013-.084 0-.152-.027t-.116-.076q-.048-.05-.075-.12-.025-.072-.025-.161 0-.085.021-.155.023-.07.065-.122.042-.05.103-.079.062-.028.141-.028.064 0 .112.017.049.017.073.032zM51.128 4.3q0-.097.028-.17.028-.073.075-.12.047-.049.107-.073.06-.024.124-.024.149 0 .228.094.079.091.079.28v.023q0 .013-.002.024h-.502q.008.114.066.174.058.059.18.059.07 0 .116-.011.048-.013.072-.024l.019.11q-.024.012-.085.026-.06.015-.135.015-.096 0-.167-.029-.069-.03-.114-.08t-.068-.12q-.021-.07-.021-.154zm.504-.072q.001-.089-.045-.145-.046-.058-.126-.058-.045 0-.08.018-.034.017-.058.045-.024.029-.038.065-.013.037-.017.075zM52.528 3.932q-.055.206-.13.395-.073.19-.142.339h-.119q-.069-.15-.144-.339-.073-.189-.128-.395h.141q.017.07.04.148l.049.156.054.148q.026.072.05.128.024-.056.051-.128.027-.072.052-.149.027-.077.05-.155.024-.079.04-.148z"/>
  </g>
  <g fill="none" stroke="gray" stroke-width=".212">
    <path d="M3.395 4.2h6.372" marker-start="url(#a)"/>
    <path d="M13.972 4.2h6.248" marker-start="url(#b)"/>
    <path d="M38.618 4.2h6.476" marker-start="url(#c)"/>
    <path d="M31.38 4.2h2.997" marker-start="url(#d)"/>
    <path d="M24.54 4.207h2.997" marker-start="url(#e)"/>
    <path d="M22.452 2.179v-.864" marker-start="url(#f)"/>
    <path d="M48.927 4.314h.864" marker-start="url(#g)"/>
  </g>
</svg>
