<?xml version="1.0" encoding="UTF-8"?>
<!-- Created with Inkscape (http://www.inkscape.org/) -->
<svg width="60.521mm" height="62.582mm" version="1.1" viewBox="0 0 60.521 62.582" xmlns="http://www.w3.org/2000/svg" xmlns:cc="http://creativecommons.org/ns#" xmlns:dc="http://purl.org/dc/elements/1.1/" xmlns:rdf="http://www.w3.org/1999/02/22-rdf-syntax-ns#">
 <metadata>
  <rdf:RDF>
   <cc:Work rdf:about="">
    <dc:format>image/svg+xml</dc:format>
    <dc:type rdf:resource="http://purl.org/dc/dcmitype/StillImage"/>
    <dc:title/>
   </cc:Work>
  </rdf:RDF>
 </metadata>
 <g transform="translate(-57.793,-18.064)" fill="none" stroke="#fff" stroke-width=".5">
  <path d="m109.02 45.122-19.473 6.9434"/>
  <path d="m78.075 30.331 21.554-2.9691"/>
  <path d="m67.091 49.237 10.984-18.906"/>
  <path d="m67.091 49.237 22.453 2.8293"/>
  <path d="m78.075 30.331 11.469 21.735"/>
  <path d="m109.02 45.122-9.3878-17.761"/>
  <path d="m106.59 69.08-17.045-17.014"/>
  <path d="m84.478 71.348 5.0663-19.282"/>
 </g>
 <g fill="#fff" stroke="#fff" stroke-width=".5">
  <circle cx="26.685" cy="53.284" r="6.0476"/>
  <circle cx="51.227" cy="27.058" r="6.0476"/>
  <circle cx="20.282" cy="12.267" r="6.0476"/>
  <circle cx="9.298" cy="31.173" r="6.0476"/>
  <circle cx="48.797" cy="51.016" r="6.0476"/>
 </g>
 <g transform="translate(-59.53 -14.857)" stroke="#fff">
  <circle cx="91.281" cy="48.859" r="6.0476" fill="#fff" stroke-width=".5"/>
  <g transform="matrix(.10711 0 0 .10711 80.37 37.755)">
   <g transform="matrix(.26458 0 0 .26458 24.385 29.715)">
    <path class="cls-2" d="m461 301.81-18.91-58.12-37.42-115.28a6.47 6.47 0 0 0-12.27 0l-37.4 115.21h-124.34l-37.42-115.21a6.47 6.47 0 0 0-12.27 0l-37.35 115.21-18.92 58.19a12.89 12.89 0 0 0 4.66 14.39l163.46 118.8 163.46-118.8a12.9 12.9 0 0 0 4.72-14.39" fill="#fc6d26" stroke="#fff"/>
   </g>
   <g transform="matrix(.26458 0 0 .26458 24.385 29.715)">
    <path class="cls-3" d="m292.86 434.89 62.14-191.28h-124.3z" fill="#e24329" stroke="#fff"/>
   </g>
   <g transform="matrix(.26458 0 0 .26458 24.385 29.715)">
    <path class="cls-2" d="m292.82 434.9-62.16-191.29h-87z" fill="#fc6d26" stroke="#fff"/>
   </g>
   <g transform="matrix(.26458 0 0 .26458 24.385 29.715)">
    <path class="cls-4" d="m143.59 243.68-18.92 58.12a12.89 12.89 0 0 0 4.66 14.39l163.46 118.81z" fill="#fca326" stroke="#fff"/>
   </g>
   <g transform="matrix(.26458 0 0 .26458 24.385 29.715)">
    <path class="cls-3" d="m143.61 243.68h87.11l-37.49-115.21a6.47 6.47 0 0 0-12.27 0z" fill="#e24329" stroke="#fff"/>
   </g>
   <g transform="matrix(.26458 0 0 .26458 24.385 29.715)">
    <path class="cls-2" d="m292.86 434.9 62.14-191.29h87.1z" fill="#fc6d26" stroke="#fff"/>
   </g>
   <g transform="matrix(.26458 0 0 .26458 24.385 29.715)">
    <path class="cls-4" d="m442.07 243.68 18.93 58.12a12.89 12.89 0 0 1-4.66 14.39l-163.47 118.7z" fill="#fca326" stroke="#fff"/>
   </g>
   <g transform="matrix(.26458 0 0 .26458 24.385 29.715)">
    <path class="cls-3" d="m442.12 243.68h-87.12l37.42-115.21a6.47 6.47 0 0 1 12.27 0l37.42 115.21z" fill="#e24329" stroke="#fff"/>
   </g>
  </g>
 </g>
 <g transform="translate(-58.328 -22.741)" stroke="#fff">
  <circle cx="100.16" cy="32.039" r="6.0476" fill="#fff" stroke-width=".5"/>
  <path d="m100.16 26.068c-3.4141 0-6.1828 2.7407-6.1828 6.1218 0 2.7043 1.7716 4.9989 4.2287 5.8088 0.30938 0.05599 0.4221-0.13304 0.4221-0.29538 0-0.14544-0.0052-0.53026-0.0084-1.041-1.7199 0.36979-2.0828-0.82075-2.0828-0.82075-0.28129-0.70726-0.68668-0.89554-0.68668-0.89554-0.56142-0.37956 0.04254-0.37204 0.04254-0.37204 0.62062 0.04321 0.94709 0.63097 0.94709 0.63097 0.55154 0.93537 1.4474 0.66517 1.7997 0.50846 0.05623-0.39534 0.21598-0.66517 0.3925-0.81812-1.373-0.15483-2.8166-0.67983-2.8166-3.0256 0-0.66855 0.24104-1.2146 0.63658-1.6426-0.06376-0.15483-0.27597-0.77716 0.06062-1.6201 0 0 0.5189-0.1646 1.7002 0.62722 0.49309-0.13566 1.0222-0.20331 1.548-0.20594 0.52538 0.0026 1.0541 0.07027 1.548 0.20594 1.1805-0.79182 1.6987-0.62722 1.6987-0.62722 0.33746 0.84293 0.12527 1.4653 0.0619 1.6201 0.3963 0.42804 0.63545 0.97408 0.63545 1.6426 0 2.3518-1.4459 2.8693-2.823 3.0207 0.22168 0.18903 0.41945 0.56258 0.41945 1.1338 0 0.81812-7e-3 1.4784-7e-3 1.6791 0 0.16385 0.11161 0.35438 0.42516 0.29463 2.4552-0.81136 4.2253-3.1041 4.2253-5.808 0-3.3811-2.7688-6.1218-6.184-6.1218" fill="#1b1817" fill-rule="evenodd" stroke-width=".037769"/>
  <circle cx="100.16" cy="32.039" r="6.0476" fill="none" stroke-width=".5"/>
 </g>
 <g transform="matrix(.017721 0 0 .017721 47.001 22.832)">
  <g fill="#020202">
   <path d="m269.6 91.579h-239.77c-16.461 0-29.838 13.378-29.838 29.838v162.72c0 16.461 13.377 29.84 29.838 29.84h80.36v39.366h-12.674c-8.856 0-16.021 7.165-16.021 16.021 0 8.855 7.165 16.022 16.021 16.022h104.39c8.855 0 16.023-7.167 16.023-16.022 0-8.857-7.167-16.021-16.023-16.021h-12.689v-39.366h80.376c16.461 0 29.838-13.379 29.838-29.84v-162.72c-1e-3 -16.46-13.378-29.838-29.839-29.838zm-2.206 190.36h-235.35v-158.31h235.35z"/>
   <path d="m460.32 134.07h-104.24c-9.2 0-16.648 7.448-16.648 16.648v218.02c0 9.2 7.448 16.648 16.648 16.648h104.24c9.201 0 16.648-7.448 16.648-16.648v-218.02c1e-3 -9.201-7.446-16.649-16.648-16.649zm-52.134 184.16c-6.978 0-12.641-5.663-12.641-12.643 0-6.978 5.663-12.642 12.641-12.642 6.979 0 12.643 5.664 12.643 12.642 0 6.98-5.664 12.643-12.643 12.643zm45.407-66.999c0 4.977-4.036 9.013-9.013 9.013h-72.756c-4.976 0-9.013-4.036-9.013-9.013v-21.403c0-4.976 4.037-9.013 9.013-9.013h72.756c4.977 0 9.013 4.037 9.013 9.013zm0-60.145c0 4.977-4.036 9.013-9.013 9.013h-72.756c-4.976 0-9.013-4.036-9.013-9.013v-21.403c0-4.977 4.037-9.013 9.013-9.013h72.756c4.977 0 9.013 4.036 9.013 9.013z"/>
  </g>
 </g>
 <g transform="matrix(.017721 0 0 .017721 16.056 8.0408)">
  <g fill="#020202">
   <path d="m269.6 91.579h-239.77c-16.461 0-29.838 13.378-29.838 29.838v162.72c0 16.461 13.377 29.84 29.838 29.84h80.36v39.366h-12.674c-8.856 0-16.021 7.165-16.021 16.021 0 8.855 7.165 16.022 16.021 16.022h104.39c8.855 0 16.023-7.167 16.023-16.022 0-8.857-7.167-16.021-16.023-16.021h-12.689v-39.366h80.376c16.461 0 29.838-13.379 29.838-29.84v-162.72c-1e-3 -16.46-13.378-29.838-29.839-29.838zm-2.206 190.36h-235.35v-158.31h235.35z"/>
   <path d="m460.32 134.07h-104.24c-9.2 0-16.648 7.448-16.648 16.648v218.02c0 9.2 7.448 16.648 16.648 16.648h104.24c9.201 0 16.648-7.448 16.648-16.648v-218.02c1e-3 -9.201-7.446-16.649-16.648-16.649zm-52.134 184.16c-6.978 0-12.641-5.663-12.641-12.643 0-6.978 5.663-12.642 12.641-12.642 6.979 0 12.643 5.664 12.643 12.642 0 6.98-5.664 12.643-12.643 12.643zm45.407-66.999c0 4.977-4.036 9.013-9.013 9.013h-72.756c-4.976 0-9.013-4.036-9.013-9.013v-21.403c0-4.976 4.037-9.013 9.013-9.013h72.756c4.977 0 9.013 4.037 9.013 9.013zm0-60.145c0 4.977-4.036 9.013-9.013 9.013h-72.756c-4.976 0-9.013-4.036-9.013-9.013v-21.403c0-4.977 4.037-9.013 9.013-9.013h72.756c4.977 0 9.013 4.036 9.013 9.013z"/>
  </g>
 </g>
 <g transform="matrix(.017721 0 0 .017721 22.459 49.058)">
  <g fill="#020202">
   <path d="m269.6 91.579h-239.77c-16.461 0-29.838 13.378-29.838 29.838v162.72c0 16.461 13.377 29.84 29.838 29.84h80.36v39.366h-12.674c-8.856 0-16.021 7.165-16.021 16.021 0 8.855 7.165 16.022 16.021 16.022h104.39c8.855 0 16.023-7.167 16.023-16.022 0-8.857-7.167-16.021-16.023-16.021h-12.689v-39.366h80.376c16.461 0 29.838-13.379 29.838-29.84v-162.72c-1e-3 -16.46-13.378-29.838-29.839-29.838zm-2.206 190.36h-235.35v-158.31h235.35z"/>
   <path d="m460.32 134.07h-104.24c-9.2 0-16.648 7.448-16.648 16.648v218.02c0 9.2 7.448 16.648 16.648 16.648h104.24c9.201 0 16.648-7.448 16.648-16.648v-218.02c1e-3 -9.201-7.446-16.649-16.648-16.649zm-52.134 184.16c-6.978 0-12.641-5.663-12.641-12.643 0-6.978 5.663-12.642 12.641-12.642 6.979 0 12.643 5.664 12.643 12.642 0 6.98-5.664 12.643-12.643 12.643zm45.407-66.999c0 4.977-4.036 9.013-9.013 9.013h-72.756c-4.976 0-9.013-4.036-9.013-9.013v-21.403c0-4.976 4.037-9.013 9.013-9.013h72.756c4.977 0 9.013 4.037 9.013 9.013zm0-60.145c0 4.977-4.036 9.013-9.013 9.013h-72.756c-4.976 0-9.013-4.036-9.013-9.013v-21.403c0-4.977 4.037-9.013 9.013-9.013h72.756c4.977 0 9.013 4.036 9.013 9.013z"/>
  </g>
 </g>
 <g transform="matrix(.00053801 0 0 -.00053801 5.8549 33.715)">
  <path d="m2280 9441c-674-3-1233-10-1243-15-10-4-21-16-25-25s-5-522-2-1141 6-2206 8-3527c1-1451 6-2412 11-2427 6-13 16-28 23-32 9-6 6-10-10-14-18-4-79-106-293-490-149-267-293-528-321-580s-123-220-210-375c-88-154-174-304-190-333-29-52-30-56-26-160 5-125 22-169 77-200 20-11 46-34 58-50 14-19 42-37 75-49 51-17 252-18 6178-18h6125l74 22c77 23 88 30 133 78 55 58 71 102 76 206 3 80 1 104-15 140-24 53-127 227-234 394-87 136-569 917-755 1222-121 198-123 203-109 230 13 24 15 469 15 3433 0 2335 3 3441 11 3519 12 130 8 154-25 177-22 14-405 16-4103 18-2243 2-4629 0-5303-3zm8930-3531v-2740h-9760v5480h9760z"/>
 </g>
 <g transform="matrix(.00053801 0 0 -.00053801 45.354 53.558)">
  <path d="m2280 9441c-674-3-1233-10-1243-15-10-4-21-16-25-25s-5-522-2-1141 6-2206 8-3527c1-1451 6-2412 11-2427 6-13 16-28 23-32 9-6 6-10-10-14-18-4-79-106-293-490-149-267-293-528-321-580s-123-220-210-375c-88-154-174-304-190-333-29-52-30-56-26-160 5-125 22-169 77-200 20-11 46-34 58-50 14-19 42-37 75-49 51-17 252-18 6178-18h6125l74 22c77 23 88 30 133 78 55 58 71 102 76 206 3 80 1 104-15 140-24 53-127 227-234 394-87 136-569 917-755 1222-121 198-123 203-109 230 13 24 15 469 15 3433 0 2335 3 3441 11 3519 12 130 8 154-25 177-22 14-405 16-4103 18-2243 2-4629 0-5303-3zm8930-3531v-2740h-9760v5480h9760z"/>
 </g>
</svg>
