<svg width="105.21151mm" height="105.21155mm" version="1.1" viewBox="0 0 105.21151 105.21155" xmlns="http://www.w3.org/2000/svg">
 <g transform="translate(127.44502,-96.227659)">
  <path d="m-27.3182 151.70575s-0.0601 0.82729-0.0601 0.82729l-4.19719-0.30484s0.0601-0.82727 0.0601-0.82727l4.19719 0.30482m-0.25623 2.81745-0.11028 0.87575s-4.16198-0.6224-4.16198-0.6224l0.0959-0.77029s4.17638 0.51694 4.17638 0.51694m-0.41834 2.79769s-0.16466 0.86693-0.16466 0.86693-4.12529-0.83159-4.12529-0.83159l0.14501-0.76266s4.14494 0.72732 4.14494 0.72732m-0.59385 2.81942s-0.20451 0.80384-0.20451 0.80384l-4.07829-1.03792s0.20452-0.80383 0.20452-0.80383l4.07828 1.03791m-0.75273 2.72575s-0.266 0.84077-0.266 0.84077l-3.98908-1.34056 0.23384-0.74091 4.02124 1.2407m-0.90974 2.67683-0.31847 0.82204-3.91762-1.53695s0.28157-0.72442 0.28157-0.72442l3.95452 1.43933m-1.09245 2.66309-0.36433 0.80228-3.79336-1.82227s0.32069-0.70849 0.32069-0.70849l3.837 1.72848m-1.22603 2.54584-0.41406 0.77743-3.69966-2.00572s0.36614-0.68642 0.36614-0.68642l3.74758 1.91471m-1.40246 2.51109s-0.45733 0.75234-0.45733 0.75234l-3.54373-2.26999 0.40336-0.66575 3.5977 2.1834m-1.52254 2.37872s-0.50347 0.72191-0.50347 0.72191l-3.42998-2.43849s0.44566-0.63843 0.44566-0.63843l3.48779 2.35501m-1.69117 2.32411s-0.51245 0.65216-0.51245 0.65216l-3.30876-2.60063s0.51245-0.65216 0.51245-0.65216l3.30876 2.60063m-1.79515 2.17896s-0.58545 0.65657-0.58545 0.65657l-3.11355-2.83151s0.51864-0.58128 0.51864-0.58128l3.18036 2.75622m-1.95476 2.10561-0.5866 0.58633s-2.97483-2.97694-2.97483-2.97694l0.58661-0.58633s2.97482 2.97694 2.97482 2.97694m-2.0411 1.94969-0.65907 0.58236-2.75445-3.182 0.584-0.51578s2.82952 3.11542 2.82952 3.11542m-2.19051 1.8586-0.65218 0.51239s-2.59961-3.30974-2.59961-3.30974l0.65218-0.5124s2.59961 3.30975 2.59961 3.30975m-2.25824 1.69359-0.72362 0.50014s-2.35595-3.48744-2.35595-3.48744l0.64091-0.44279s2.43866 3.43009 2.43866 3.43009m-2.39615 1.58576-0.70865 0.4309s-2.18616-3.59632-2.18616-3.59632l0.70865-0.4309s2.18616 3.59632 2.18616 3.59632m-2.44441 1.413-0.77836 0.41071s-1.92096-3.74473-1.92096-3.74473l0.6886-0.36327 2.01072 3.69729m-2.56921 1.28981-0.75536 0.34245-1.73747-3.83334 0.75536-0.34247s1.73747 3.83336 1.73747 3.83336m-2.59709 1.11055-0.82242 0.31511-1.45286-3.95003 0.72635-0.27841 1.54893 3.91333m-2.7069 0.9741-0.79146 0.24782-1.25732-4.01655 0.79146-0.24782 1.25732 4.01655m-2.71339 0.78987-0.8549 0.21473-0.95631-4.09869 0.75361-0.18976 1.0576 4.07372m-2.7552 0.63126-0.86707 0.16033-0.75117-4.14121 0.76409-0.14034 0.85415 4.12122m-2.84149 0.46835-0.87507 0.11164-0.43814-4.18592s0.77012-0.0993 0.77012-0.0993l0.54309 4.1736m-2.81261 0.2932-0.88051 0.0565s-0.22686-4.20267-0.22686-4.20267l0.77466-0.0495s0.33271 4.19563 0.33271 4.19563m-2.8786 0.12813-0.82934 3e-3 -0.0143-4.20878 0.82934-3e-3 0.0143 4.20878m-2.82826-0.0469-0.88138-0.0457 0.30502-4.19773 0.77505 0.0394-0.19869 4.2041m-2.82089-0.20903s-0.87685-0.0998-0.87685-0.0998l0.51701-4.17693s0.77103 0.0881 0.77103 0.0881-0.41119 4.18867-0.41119 4.18867m-2.85625-0.3816-0.81687-0.14336 0.72727-4.14547 0.81686 0.14336-0.72726 4.14547m-2.775-0.54537-0.85877-0.20165 1.03771-4.07883 0.75605 0.17688-0.93499 4.1036m-2.73822-0.70548-0.84413-0.25528 1.24038-4.02182 0.74327 0.22554-1.13952 4.05156m-2.73919-0.88762-0.82806-0.30226s1.53653-3.91823 1.53653-3.91823l0.73048 0.26539s-1.43895 3.9551-1.43895 3.9551m-2.63146-1.03117-0.80699-0.35385 1.72796-3.83763 0.71191 0.31243-1.63288 3.87905m-2.61121-1.20835-0.73859-0.37728 1.91413-3.74822 0.73859 0.37728-1.91413 3.74822m-2.4865-1.34061-0.75831-0.44739 2.18275-3.59839 0.67023 0.39541-2.09467 3.65037m-2.44605-1.51114-0.68742-0.46405 2.35435-3.4885 0.68741 0.46403-2.35434 3.48852m-2.30674-1.62852-0.69912-0.53424s2.59991-3.30951 2.59991-3.30951l0.61887 0.47275-2.51966 3.371m-2.24719-1.79107-0.62684-0.54312s2.75548-3.1811 2.75548-3.1811l0.62683 0.5431-2.75547 3.18112m-2.09557-1.89138-0.63047-0.6133 2.97618-2.97558 0.55862 0.54309-2.90433 3.04579m-2.01797-2.04481s-0.55771-0.61392-0.55771-0.61392l3.11467-2.83027 0.5577 0.6139-3.11466 2.83029m-1.85593-2.12677s-0.55328-0.68374-0.55328-0.68374l3.30899-2.60035s0.49032 0.60554 0.49032 0.60554l-3.24603 2.67855m-1.76125-2.26986s-0.48068-0.67592-0.48068-0.67592l3.42935-2.43938s0.48068 0.67592 0.48068 0.67592l-3.42935 2.43938m-1.59033-2.33255-0.46835-0.74483 3.59561-2.18685s0.41487 0.65922 0.41487 0.65922l-3.54213 2.27246m-1.47962-2.46395s-0.39634-0.72862-0.39634-0.72862l3.6966-2.01137s0.39634 0.7286 0.39634 0.7286l-3.6966 2.01139m-1.30117-2.5065s-0.37654-0.79581-0.37654-0.79581l3.83268-1.73804s0.33329 0.70339 0.33329 0.70339l-3.78943 1.83046m-1.15543-2.57746-0.32586-0.81821 3.91271-1.54946s0.28694 0.72331 0.28694 0.72331l-3.87379 1.64436m-1.01187-2.69288-0.27901-0.83579 4.01596-1.25774s0.24688 0.73744 0.24688 0.73744l-3.98383 1.35609m-0.8369-2.69926s-0.22575-0.85204-0.22575-0.85204l4.07313-1.05797s0.19836 0.75163 0.19836 0.75163l-4.04574 1.15838m-0.68224-2.79694s-0.1774-0.86387-0.1774-0.86387 4.14064-0.75142 4.14064-0.75142l0.15738 0.76086s-4.12062 0.85443-4.12062 0.85443m-0.50429-2.78215-0.1226-0.87357 4.17305-0.54326 0.10767 0.76915-4.15812 0.64768m-0.34351-2.86042s-0.0656-0.82685-0.0656-0.82685l4.19508-0.33281s0.0656 0.82686 0.0656 0.82686l-4.19507 0.3328m-0.16445-2.82388-0.019-0.88241 4.20822-0.0142 0.0173 0.77599-4.20652 0.1207m-7.9e-4 -2.82893s0.0356-0.882 0.0356-0.882l4.20355 0.19882s-0.0319 0.77544-0.0319 0.77544-4.20724-0.0923-4.20724-0.0923m0.17027-2.87709s0.081-0.82549 0.081-0.82549l4.18814 0.41096s-0.081 0.82549-0.081 0.82549l-4.18814-0.41096m0.33585-2.8089s0.13675-0.87188 0.13675-0.87188 4.14497 0.72718 4.14497 0.72718l-0.11972 0.76696s-4.162-0.62226-4.162-0.62226m0.49766-2.78449 0.19099-0.86145s4.1031 0.93499 4.1031 0.93499l-0.16877 0.75789s-4.12532-0.83143-4.12532-0.83143m0.67841-2.79992 0.22456-0.79845 4.05105 1.1396s-0.22456 0.79848-0.22456 0.79848l-4.05105-1.13963m0.8301-2.70286 0.29166-0.83206 3.95458 1.43917s-0.25711 0.73328-0.25711 0.73328l-3.98913-1.34039m1.00724-2.69695s0.32182-0.76448 0.32182-0.76448l3.87851 1.6332s-0.32182 0.76445-0.32182 0.76445l-3.87851-1.63317m1.15054-2.5812 0.38872-0.79057 3.74764 1.91455s-0.34292 0.69813-0.34292 0.69813l-3.79344-1.82211m1.29756-2.50987 0.43761-0.7643 3.64977 2.09518-0.38764 0.6747-3.69974-2.00558m1.47719-2.46745 0.48003-0.73787 3.48786 2.35494-0.4241 0.6528-3.54379-2.26987m1.58873-2.33478s0.52521-0.70618 0.52521-0.70618l3.37033 2.52032s-0.46551 0.62428-0.46551 0.62428l-3.43003-2.43842m1.75983-2.27224s0.56418-0.67506 0.56418-0.67506l3.18038 2.7562s-0.49908 0.59808-0.49908 0.59808l-3.24548-2.67922m1.85532-2.1278 0.6051-0.63847 3.04503 2.90507-0.53658 0.56487-3.11355-2.83147m2.01663-2.04629 0.64016-0.60315s2.82948 3.11544 2.82948 3.11544l-0.56667 0.5348-2.90297-3.04709m2.0947-1.89197 0.67648-0.56213s2.67776 3.24683 2.67776 3.24683l-0.59983 0.49733s-2.75441-3.18203-2.75441-3.18203m2.24504-1.79247 0.70724-0.52302 2.43859 3.43015-0.626 0.46375-2.51983-3.37088m2.30479-1.62984 0.73859-0.47796 2.27169 3.54291-0.65441 0.42252s-2.35587-3.48747-2.35587-3.48747m2.44275-1.51347 0.7647-0.43546 2.01063 3.69734-0.67629 0.38599-2.09904-3.64787m2.48334-1.34382 0.79068-0.38678 1.82976 3.79014-0.69958 0.34142-1.92086-3.74478m2.60719-1.21204 0.81172-0.34144 1.54883 3.91338-0.71684 0.30253s-1.64371-3.87447-1.64371-3.87447m2.62775-1.03666 0.83186-0.28973 1.35555 3.98449-0.73465 0.25529-1.45276-3.95005m2.73548-0.8919 0.79733-0.22822 1.15789 4.04635-0.79733 0.22822-1.15789-4.04635m2.73504-0.71229 0.86123-0.18834 0.85413 4.12121-0.75909 0.16584-0.95627-4.09871m2.82473-0.55836 0.81947-0.12762 0.64748 4.15868-0.81947 0.12762-0.64748-4.15868m2.80248-0.37629 0.87813-0.0849s0.3328 4.19561 0.3328 4.19561l-0.77271 0.0752-0.43822-4.18592m2.82003-0.21292 0.88191-0.0298 0.12085 4.20706-0.77578 0.0254s-0.22698-4.20267-0.22698-4.20267m2.88129-0.0422 0.82915 0.0182-0.092 4.20779-0.82915-0.0182 0.092-4.20779m2.82556 0.12633 0.87898 0.072s-0.4092 4.18886-0.4092 4.18886l-0.77407-0.0631s0.30429-4.1978 0.30429-4.1978m2.81267 0.28788 0.87278 0.12628-0.61793 4.16318-0.76862-0.11213 0.51377-4.17733m2.84143 0.46693 0.86425 0.17428-0.92693 4.10544-0.76192-0.15251 0.8246-4.12721m2.75715 0.62284 0.85132 0.22824-1.12919 4.05445-0.75062-0.20151 1.02849-4.08118m2.76427 0.80096 0.78699 0.2617-1.32773 3.99384-0.78699-0.26171 1.32773-3.99383m2.66062 0.95078 0.8173 0.32815-1.61743 3.88552-0.7219-0.28977s1.52203-3.9239 1.52203-3.9239m2.64632 1.12603 0.74923 0.35569-1.80449 3.80223-0.74923-0.35566s1.80449-3.80226 1.80449-3.80226m2.52532 1.26403 0.77142 0.42349s-2.07507 3.66156-2.07507 3.66156l-0.68262-0.37454 1.98627-3.71051m2.49023 1.43454 0.70106 0.44315-2.24834 3.55778-0.70106-0.44316s2.24834-3.55777 2.24834-3.55777m2.35455 1.55692 0.7147 0.51241-2.49695 3.38786-0.63337-0.45392 2.41562-3.44635m2.29945 1.72103 0.64347 0.52328-2.65488 3.26557-0.64348-0.5233s2.65489-3.26555 2.65489-3.26555m2.15174 1.82563 0.64823 0.59372-2.87964 3.06914-0.57496-0.52657 2.80637-3.13629m2.07742 1.98195s0.57734 0.59548 0.57734 0.59548l-3.02115 2.92992s-0.57734-0.59547-0.57734-0.59547l3.02115-2.92993m1.91991 2.06755s0.57294 0.66654 0.57294 0.66654l-3.22052 2.70918-0.50822-0.5914 3.1558-2.78432m1.82712 2.2147 0.50333 0.65922-3.34463 2.55434s-0.50334-0.65924-0.50334-0.65924l3.34464-2.55432m1.66164 2.28058s0.48967 0.73016 0.48967 0.73016l-3.51711 2.31101s-0.43403-0.6476-0.43403-0.6476l3.46147-2.39357m1.55115 2.41694s0.42202 0.71403 0.42202 0.71403l-3.62268 2.1417s-0.42202-0.71405-0.42202-0.71405l3.62268-2.14168m1.37927 2.46258s0.39922 0.7838 0.39922 0.7838l-3.76633 1.87753s-0.35334-0.69442-0.35334-0.69442l3.72045-1.96691m1.25222 2.58619 0.33399 0.75923-3.85192 1.69494s-0.334-0.75923-0.334-0.75923l3.85193-1.69494m1.07546 2.61096 0.30264 0.8266-3.96435 1.41204-0.26735-0.73115 3.92906-1.50749m0.93385 2.71959s0.23998 0.79398 0.23998 0.79398l-4.02823 1.21786s-0.23998-0.79398-0.23998-0.79398l4.02823-1.21786m0.75385 2.72281s0.20143 0.85766 0.20143 0.85766l-4.10666 0.91923s-0.17765-0.75722-0.17765-0.75722l4.08288-1.01967m0.60107 2.81417s0.14106 0.81737 0.14106 0.81737-4.14693 0.7159-4.14693 0.7159-0.14106-0.81737-0.14106-0.81737 4.14693-0.7159 4.14693-0.7159m0.41974 2.79528 0.0977 0.87622-4.18864 0.4059-0.0863-0.77233s4.17727-0.50979 4.17727-0.50979m0.2572 2.81538 0.0425 0.88088-4.20365 0.1968-0.0363-0.77613 4.19744-0.30155m0.0841 2.87881s-6e-3 0.88205-6e-3 0.88205l-4.20658-0.11864 4e-3 -0.77678 4.20823 0.0134" fill="#fff" stroke-width="0" style="paint-order:markers stroke fill"/>
  <g transform="matrix(.61026141 0 0 .61818623 -125.80224 85.46404)" fill="#fff" stroke-width=".64218158">
   <path d="m25.242 80.871c-0.08 1e-3 -0.071-0.089-0.092-0.155 0.629 0.676 1.481 2.048 0.611 2.911-0.059 0.409 0.256 0.387 0.258 0.723-0.449 0.646-0.775 1.199-0.311 2.13-0.601 0.024-0.819-0.357-1.309-0.428-0.029 1.016 1.308 1.288 2.009 1.789-0.202 1.184 0.292 2.715-0.645 3.533 0.175 0.682 0.404 1.635 0.175 2.283-0.922-0.506-1.993-0.85-2.914-1.355 0.269-0.254 0.473 0.268 0.911 0.134 0.24-0.422 0.249-1.061 0.575-1.415-0.07-0.572-0.628-0.635-0.71-1.191 0.913-0.321 1.295 0.633 2.069 0.723 1.311-1.462-1.689-1.431-2.056-2.436 0.904 0.06 1.283 0.712 2.243 0.72 0.548-1.307-1.875-1.448-2.633-2.173 0.224-0.582-0.012-0.795-0.127-1.381 0.874-0.424 1.109 0.479 1.805 0.493-0.541-1.075-2.305-1.65-1.921-3.181 0.658-0.374 1.753 0.587 2.223 0.399 0.781-0.328 0.097-1.373-0.161-2.123zm-1.544 2.11c-0.448 0.956 0.677 1.553 1.539 1.646 0.191-1.003-0.739-1.482-1.539-1.646zm1.929 8.973c-0.28-1.27-1.755-0.154-1.139 0.62 0.146 0.155 0.553 0.213 0.914 0.118 0.166-0.262 0.3-0.383 0.225-0.738z"/>
   <path d="m21.186 87.655c-0.158-0.504-0.615-1.283-0.232-1.873 1.517-0.7 1.674 2.291 0.232 1.873zm0.172-1.647c-0.091 0.27-0.25 0.766-0.021 1.067 0.23-0.015 0.536 0.018 0.63-0.106 0.206-0.428 0.102-1.209-0.609-0.961z"/>
  </g>
  <g fill="none" stroke="#fff" stroke-linecap="round" stroke-width=".39449376">
   <g transform="translate(-127.4451,96.227624)">
    <g stroke-dashoffset="20" stroke-linejoin="round">
     <path d="m92.330443 67.112344c-2.97548 0.0078-3.488563-1.215633-3.85114-2.514306 0.890513-28.071635-15.883064-32.576809-23.400988-25.620368"/>
     <path d="m66.424325 39.732177c-6.058814-4.254818-13.664121 2.881002-8.08393 9.206946-1.064237 6.792378-2.75118 10.072463-4.436568 14.535526 3.833812 1.276911 8.133166-2.001639 10.784219-10.663812"/>
     <path d="m92.330443 67.112344c-1.101386 2.399565-4.007646 2.666093-7.034083 2.790598 0.544687 1.047559 0.453515 1.640935 0.392237 2.255668-1.069866 0.337521-2.407147-0.07542-3.477011-0.44132-0.354542 0.655738-0.8504 0.887519-1.283965 1.306182-0.698899-0.327176-1.484714-0.567431-1.758712-1.319512-0.625919-0.189941-2.156404 0.236805-3.671011 0.757815-0.03161-0.912024 0.515051-1.631289 0.998569-2.371603-0.743395-0.09654-1.345271-0.381765-1.821273-0.83483-0.694041 0.325702-0.999704 0.552686-1.860952 0.460367-0.267549 1.5679-1.285645 2.235153-2.434016 2.746066-0.575476-0.279694-1.157679-0.516935-1.602912-1.618806-0.982096-0.530627-2.097899 0.714309-3.079998 0.896538-0.253947-1.191217 0.269988-1.735297-0.15119-2.090354-0.751166-0.34575-2.797277-0.0627-3.809294 0.02631-0.110219-0.281255 0.501778-1.132216 1.014912-1.386906 1.503687-0.746347 1.880173-0.798825 4.695185-1.069271-0.308153-8.317415 0.627382-13.050084 3.147567-13.215237"/>
     <path d="m59.44335 50.12597c0.375855 1.573226 0.01702 2.50199 3.342671 4.612886 2.467867-2.423583 9.05266-8.988414 4.600157-10.392-0.806657 0.195038-0.910609 1.288635-1.526214 1.967043-1.249395 1.376854-2.59432 1.876956-4.1436 1.438777-0.638231 1.059839-1.285878 2.098493-2.273014 2.373294z"/>
     <path d="m72.814242 69.715709c-0.522795-0.205036-0.684122-0.847531-1.285983-0.983384-1.576351-0.35582-3.628311-0.174305-4.08133-1.513041"/>
     <path d="m76.496467 70.090172c2.281137-0.910217 4.7615-1.561444 8.799893-0.18723"/>
     <path d="m58.340395 48.939123c0.304809 0.714788 0.731401 1.295617 1.102955 1.186847"/>
     <path d="m57.519223 47.84681c0.119458-1.130549 1.256754-1.752076 1.91791-1.651291 0.661156 0.100787 1.107972 0.413424 1.833234 2.132221"/>
     <path d="m58.340395 48.939123c0.108815-1.566545 1.870941-1.299805 2.347602 0.193048"/>
     <path d="m66.610866 46.592457c0.409279-0.36803 0.850051-0.224279 0.915797 0.0027-0.182007 2.871322-2.930075 6.408209-4.740642 8.143706"/>
     <path d="m62.29306 47.834769c-0.145606-0.920052-0.624117-3.215259 0.52321-3.70131 1.126353-0.477168 2.117605 0.508926 2.967577 2.158871"/>
     <path d="m64.627973 47.132927c-0.213186-2.154595-1.808443-1.86763-2.476111-0.804421"/>
     <path d="m66.459411 50.963445c0.482497 1.760985 1.509625 3.064502 2.490496 4.04232"/>
     <path d="m68.734407 45.37163c0.458806-0.414898 1.883103-0.334685 2.734162-0.0086 1.459119 0.559073 1.609135 0.976019 3.477622 3.143314"/>
     <path d="m74.764907 42.161033c0.167428 0.739889-0.633524 1.557335-0.457904 2.48943 0.433149 2.298891 1.109953 5.266354 0.512024 8.415896 0.759664 8.856792 2.02556 9.963517 4.168801 12.006887 0.549818 0.524195 1.916568 0.878297 2.893952 0.576177-0.340185-2.620192 0.12631-5.307216 0.05807-10.258348-0.03201-2.322388-0.778709-6.886151-2.04991-9.028334"/>
     <path d="m78.475156 69.347756c0.538583-2.022007 0.744614-1.755468 0.361095-4.418968"/>
     <path d="m73.430991 43.435012c0.135324 0.230508 0.159158 0.868543 0.829112 0.831734"/>
     <path d="m19.943596 71.999672c-4.029367 0.932148-5.042584-1.076447-6.278002-2.868398 1.564571 0.09299 3.147478 0.360145 4.5732-0.865931"/>
     <path d="m26.19454 73.163267c1.907161-4.80473 1.195882-7.148126-0.487086-8.578133-0.770647 0.208611-1.304675 0.890456-1.867166 1.51538-0.910503-0.635674-1.75846-0.70843-2.597794-0.703569-0.470612 0.43689-0.773654 1.097206-0.81181 2.110708-0.866156 0.117036-1.682092 0.284292-2.19189 0.75769 0.975286 5.358484 4.440007 5.184889 7.955746 4.897924z"/>
     <path d="m18.238794 68.265343c-1.013228-9.215239 2.194694-12.996352 7.4416-14.152568 6.388938-5.164349 11.13631-5.531188 13.402236-5.146085"/>
     <path d="m38.969151 50.256362c0.498868-8.516532 10.635445-6.961452 11.011446-1.149755"/>
     <path d="m49.980597 49.106607s0.435488 2.656748 0.754649 4.760974c0.18755 1.236503 0.334931 2.282219 0.330174 2.485943-0.01286 0.550407-0.643239 2.823662-1.464747 2.527112-5.408014-2.579235-4.344773-1.805988-6.141623-3.658386-0.924359-0.952934-1.393121-1.826413-1.217716-2.787219 0.130401-0.965398 1.096603-0.259199 1.747054-0.184496 0.132112 1.528032 1.013151 1.768723 1.851973 1.672817 0.838821-0.09591 1.744225-0.605144 2.130824-0.988637 0.434421-0.09313 0.727212 0.41107 1.414083 0.718035 0.478998 0.214066 1.283535-0.04642 1.096936-0.595329"/>
     <path d="m35.316397 62.249382c0.569063-0.553947 1.657451-1.682427 2.297615-3.373985 1.38072-0.963226 2.556692-1.892424 3.492383-2.378234 3.489576-1.811784 3.986537-0.251153 2.509299 3.024685-0.316834 0.702593-0.778301 0.994606-1.266119 1.897224-0.347174 1.514867 0.2091 2.993895 0.463992 4.441865"/>
     <path d="m43.988388 52.250535c0.399787-0.730039 0.531521-1.453526 0.887821-1.885844 0.718614-0.871935 1.932539-0.80985 2.499959 0.546097 0.234835 0.561181 0.0071 1.420646 0.0066 2.417236"/>
     <path d="m26.540684 72.433829c2.338006 1.074423 4.602053 1.448076 6.940057 0.705827 0.540429 0.378161 1.008188 0.945263 1.728091 0.856787 4.535249-1.038699 6.673491-2.83835 8.829235-4.632447 0.02199-0.564687-0.07283-1.155335-0.740611-1.873305 0.03579-0.312606 0.103111-0.72539-0.130696-1.423136-0.401066-0.322268-1.129646-0.13635-1.670003-0.145217-0.851569-1.263007-1.635379-1.577342-2.410613-1.771655-0.850958 0.294082-1.498327 1.339459-2.236218 2.236552"/>
     <path d="m48.409119 52.93988c0.08645-1.696823 0.02294-3.515251 1.704866-2.65743"/>
     <path d="m47.378073 51.269875c-1.529412-0.576085-2.254916 0.127521-1.887831 2.570353"/>
     <path d="m48.539815 51.444135c1.280174-0.898012 1.605733 0.764344 1.90235 1.902354"/>
     <path d="m43.384586 53.506924c0.41541 0.267978 0.66333 1.078056 1.083237 1.547096 1.020838 1.140293 2.491266 2.184 3.448003 3.031937"/>
     <path d="m47.915826 58.085957c-0.844309 11.120347 1.91259 12.683829 4.371401 14.350412-2.17126 0.837809-4.178469 2.203667-8.24916-3.072373"/>
     <path d="m35.265907 56.149292c-1.021664 8.526131 1.739801 11.502858 4.933709 12.797506 0.771018 0.312534 0.861918 2.095074 0.52508 2.835088-10.207412 0.835313-12.441165-5.683721-10.695585-15.873013"/>
     <path d="m34.136235 71.062827c-0.220255 0.929775-0.437482 1.366391-0.655494 2.076829"/>
     <path d="m31.038348 68.291312c-1.661376 2.325309-1.252603 3.730551-0.872644 5.148598"/>
     <path d="m42.339087 61.397424c-0.983689 0.470617-1.77734 0.08606-2.530667-0.479952"/>
     <path d="m42.349575 61.419072s-0.357066 2.516307-1.12187 3.799813"/>
     <path d="m63.055077 38.467717c-0.12884-2.053336 0.588694-5.568741-3.098983-8.484343"/>
     <path d="m51.202086 26.940663c-2.474338-0.182368-3.911665-0.05727-5.50894 1.425011"/>
     <path d="m44.916602 27.740195c0.714357-10.349727-10.405329-9.316024-11.204756-1.590724-13.541369 5.602759-12.228703 19.816479-15.858933 32.11069-0.430532 1.458053-2.692778 2.082231-3.817286 2.52322 0.790622 1.123559 1.177965 2.608678 4.171589 1.757133"/>
    </g>
    <g stroke-dashoffset="10" stroke-linejoin="round">
     <path d="m59.905806 30.090132c-1.506829 2.193545-3.663949 3.108273-5.966595 3.498285-1.818036-2.466981-2.061775-1.763247-2.737125-6.647754"/>
     <path d="m51.396377 26.945037c0.632672-0.181069 1.419295 0.601334 2.006394 0.602547 0.848274 0.0018 1.215791-0.636565 1.962922-0.467985 0.733872 0.165587 0.760679 1.134203 1.550855 1.671112 0.440519 0.299325 1.950899 0.01872 2.583177 0.207879 0.505965 0.151381 0.149568 0.764343 0.456369 1.024784"/>
     <path d="m53.939211 33.588417c2.060956-0.866116 4.232423-1.600748 5.035832-3.963113"/>
     <path d="m51.882232 26.852528c0.806961-2.255971 1.174533-3.196531 1.8007-3.252255 0.41549-0.03698 1.14159 0.116479 1.298899 1.581988 0.0583 0.543094-0.05176 1.087391-0.03486 1.882876"/>
     <path d="m56.259765 27.919925c0.117597-1.529574 1.523663-3.282731 2.512407-3.030789 0.399734 0.101855 0.868331 0.240153 0.943715 1.304558 0.04522 0.638529-0.176368 1.746367-0.60332 2.704124"/>
     <path d="m45.693146 28.365674c0.987122 0.484084 4.167389 2.881601 1.484105 4.013827-2.544371-0.704649-3.255712-0.137827-4.978948-0.549153-2.74183-1.387033-3.800949-2.417124-3.925565-3.248989"/>
     <path d="m45.693146 28.365674c-0.376554-0.496811-0.935291-0.837556-1.311844-0.588856-0.860196 1.045132-1.414292 1.318272-2.115645 1.251508-2.869479 0.299669-2.448148-1.299209-3.486346-2.056049-1.097504-0.157617-1.551715 0.488878-1.698477 1.519689 0.34648 1.041462 0.380358 2.135025 2.085848 2.949987 1.317744 0.743865 2.180302 0.577358 3.031631 0.388395"/>
     <path d="m43.991155 28.219817c-0.185004-0.762253-0.182695-1.424269-0.404052-1.959811-0.764204-1.848889-1.916757-2.190373-2.785867 0.05504-0.242715 0.627079-0.167187 1.455913-0.430078 2.510019"/>
     <path d="m41.698065 29.064504c-0.17163-2.312918 0.643308-2.926743 1.89701-2.78492"/>
     <path d="m32.816451 38.46378c4.378915-7.189774 6.946564-6.670979 6.170381 2.635562"/>
     <path d="m40.680429 31.970847c-1.151417 0.110384-1.787058 1.466466-2.075936 2.360977"/>
     <path d="m32.816451 38.46378c0.203061 3.655002 1.56688 5.125101 2.691065 7.444753 0.935337-2.937489 2.873591-4.440055 4.801716-5.773811"/>
     <path d="m32.909138 32.753056c-0.296452 1.797351-0.181247 3.759366-0.09269 5.710724"/>
     <path d="m35.507516 45.908533c-0.151233 0.882325-0.284384 1.800815-0.278945 2.996486"/>
     <path d="m26.532403 37.340356c-0.919051 7.03257 0.291823 10.197039 4.376263 13.179166"/>
    </g>
    <g stroke-linejoin="round">
     <path d="m50.923721 45.364341c1.621159 7.432317 3.577569 8.317537 5.710701 9.926171 0.384468-3.566633 0.558013-11.944029-5.880393-15.689823"/>
     <path d="m49.078765 42.161848c-0.950827 1.468086-1.640052 2.07165-3.790476 2.211295"/>
     <path d="m41.425266 42.15961c-0.105219-0.332703-0.01121-1.413897 1.289597-1.066496 0.851988 0.227536 1.59736-0.02133 2.138828-0.307618 0.859006-0.454181 0.58818 0.39561 1.751438 0.506915 1.242529 0.118888 2.118443-0.395113 2.720446-0.261308 0.442647 0.09839 0.804921 0.764443 0.70976 1.203122"/>
     <path d="m41.959616 41.063488c-0.377914-3.293525 2.719882-4.09404 2.729771-0.282598"/>
     <path d="m45.938892 41.088891c-0.559321-2.67068 2.531048-4.518215 2.936405-0.06414"/>
     <path d="m44.481987 39.635622c-1.275378-0.573521-1.662618-0.157445-1.713169 1.26891"/>
     <path d="m46.050668 39.696519c0.758097-0.05456 1.768225-0.957178 2.016193 1.488905"/>
     <path d="m40.914932 44.67408c-0.218775 0.749284-0.212373 0.828688-0.496467 1.447339"/>
     <path d="m55.307716 54.339928c0.128397 2.513502-0.04715 5.006229-0.510395 6.86235"/>
     <path d="m52.551846 50.749723c0.140474 4.075694 2.19485 16.455014-4.571545 13.62003"/>
     <path d="m51.835966 63.65701c0.75883-0.139999 1.793439 0.04361 2.425486-1.110641"/>
     <path d="m57.092474 25.960397c0.948956 0.111737 1.864477 0.275481 1.17687 2.932981"/>
     <path d="m52.961073 27.440225c0.379383-1.342764 0.643142-2.592494 2.008134-2.053643"/>
     <path d="m48.807251 68.278546c0.392653-0.300321 0.717971-0.465971 1.193028-0.931106 0.68499 0.45158 1.278982 0.675669 1.778037 0.662408 0.405885-0.431691 0.8206-0.845727 1.045903-1.638583 0.680484-0.0594 1.1641 0.274939 2.091808-0.278908 0.438349-1.095139-0.515851-1.891874-1.333126-2.717953"/>
     <path d="m62.295458 58.834215c0.729892 0.396531 1.520448 0.656566 1.894249 1.854305-0.181703 0.324753-0.160666 0.621319-1.812899 1.150496 0.07925 0.701498-0.326477 1.305999-0.69727 1.917488-0.835991 0.09114-1.508763-0.225766-2.161534-0.592677-0.325393 0.488088-0.743754 0.883206-1.255084 1.185357-0.808974 0.574784-0.906701-0.272923-1.195842-0.737804"/>
     <path d="m58.712974 68.041542c-2.720158 0.747903-3.459232 4.552911-3.391263 9.603299-0.323471 0.282-0.359244 1.014555-1.267762 0.380327-0.805748-1.532927-1.74585-2.790338-3.535914-2.30478 0.540019 1.821545 0.06307 2.962087-0.160139 4.272548-0.08658 0.07818 1.597044 1.554572 1.752467 3.091759 1.351072-0.474155 2.690502-0.517295 2.660884-2.809393 10.311167-0.861365 5.487082-12.334407 3.941727-12.23376z"/>
     <path d="m54.062205 78.03091c-0.398131 0.536797-1.208265 0.922681 0.709514 2.307765"/>
     <path d="m51.913256 78.00628c0.710975-0.141198 1.210858 0.222835 1.665448 0.695272"/>
     <path d="m52.11266 80.301252c0.533856-0.553548 1.066951-0.813485 1.598711-0.948923"/>
     <path d="m53.157282 81.486014c0.937278-0.635823 0.962067-1.089147 1.085116-1.562124"/>
     <path d="m55.53783 73.274636c1.843806-1.282722 3.728446-1.07147 5.653772 0.628544"/>
     <path d="m58.806609 68.048615c-0.274631 0.99446-0.453557 1.987574 0.26666 2.96804"/>
     <path d="m55.336601 75.805007c-1.198034 0.0906-2.261446-0.203364-2.871513-1.792393 1.323369-0.299529 2.002128-1.597625 2.581832-3.049164 0.518753-0.442352 0.785219-0.272489 1.021833-0.03018"/>
     <path d="m55.691016 72.356045c-0.744038 0.741222-1.347218 1.087339-1.473733 1.385654"/>
     <path d="m55.482088 73.718604c-0.567125 0.178612-0.73385 0.457324-0.980613 0.716028"/>
     <path d="m57.021984 71.88597c0.317558 0.08284 0.75728-0.217477 0.824046-0.538797 0.06509-0.313249-0.164908-0.782246-0.527595-0.801802-0.305931-0.01648-0.615486 0.331629-0.665573 0.633881-0.04345 0.262194 0.11196 0.639628 0.369122 0.706718z"/>
     <path d="m48.364865 76.70194c-1.14777 0.283466-1.050217 0.923237-1.560931 1.10137-0.510715 0.178133-1.161195-0.581057-0.261477-1.362845 0.89972-0.781788 1.847772-0.203377 1.822408 0.261475z"/>
     <path d="m47.746833 79.736647c0.05575 0.236741-0.0949 0.556837-0.05628 0.769443 0.152157 0.83753 0.461968 1.247216 0.214748 1.797777-0.0733 0.163227-0.263804 0.333777-0.440647 0.306541-0.206718-0.03184-0.343453-0.291401-0.383399-0.496707-0.157157-0.807678 0.232088-2.057758 0.665576-2.377054z"/>
     <path d="m40.063039 32.119233c-0.189847 2.873269 0.211657 3.718928 0.517237 4.693047"/>
     <path d="m51.86275 48.880799c-1.447655-2.77944-1.810186-2.696432-3.227438-2.815148"/>
     <path d="m41.425266 42.15961c0.217742 1.097917 0.501479 1.90401 1.182684 2.445773"/>
     <path d="m50.035335 42.234225c-0.371946 1.096401-0.929646 2.020858-2.690865 2.839405"/>
     <path d="m49.906731 41.549856c0.601597-0.711758 0.973587-1.946889 0.884559-2.772809 1.83e-4 -2.923808-2.369925-5.294146-5.293733-5.294249-2.923807 1.03e-4 -5.293915 2.370441-5.293733 5.294249 0.0019 0.710649-0.04522 2.160471 1.191282 3.196725" style="paint-order:markers stroke fill"/>
     <path d="m59.956094 29.983374c1.369798-1.016831 2.147973-3.051372 2.148685-4.676242 2.54e-4 -2.960522-2.195562-5.47486-5.395317-5.474684-3.199553 8.9e-5 -5.603688 2.741331-5.603434 5.701664 5.3e-4 0.314146 0.0363 1.097309 0.09606 1.406551" style="paint-order:markers stroke fill"/>
     <path d="m43.444442 31.994397c-0.459136 0.699876-0.860836 1.445702-0.962993 2.431164"/>
     <path d="m47.984488 34.102219c6.440669-0.410438 9.293997 4.987187 8.86112 8.02853"/>
     <path d="m48.14464 33.174333c-0.21579 0.158724-0.366695 0.414774-0.438142 0.790012"/>
     <path d="m56.789507 36.94387c0.617618 1.665793 0.267705 3.234831 0.221271 4.834216"/>
     <path d="m56.570855 45.725217c0.0212 1.306083-0.02685 2.16209-0.107426 2.806617"/>
    </g>
    <path d="m56.885416 46.904001c0.116161 0.99903 0.208258 1.729866 1.089572 4.089176"/>
   </g>
   <path d="m-85.85259 160.72527c0.33271 0.13722 0.6354 0.0943 0.92415-0.0322"/>
  </g>
 </g>
</svg>
